<?xml version="1.0" encoding="UTF-8"?>
<svg xmlns="http://www.w3.org/2000/svg" width="1400" height="1400" viewBox="0 0 1400 1400">
<rect x="0" y="0" width="100%" height="100%" fill="#ffffff" />
<g opacity="0.75">
<line x1="1356.23" y1="44.95" x2="1356.23" y2="44.59" stroke="#9aa0a6" stroke-width="2.00" />
<line x1="1356.23" y1="44.95" x2="1356.23" y2="45.14" stroke="#9aa0a6" stroke-width="2.00" />
<line x1="1355.20" y1="44.65" x2="1354.97" y2="44.66" stroke="#9aa0a6" stroke-width="2.00" />
<line x1="1355.20" y1="44.65" x2="1355.46" y2="44.60" stroke="#9aa0a6" stroke-width="2.00" />
<line x1="1352.83" y1="42.46" x2="1352.95" y2="42.80" stroke="#9aa0a6" stroke-width="2.00" />
<line x1="1355.27" y1="43.64" x2="1355.07" y2="43.64" stroke="#9aa0a6" stroke-width="2.00" />
<line x1="1355.27" y1="43.64" x2="1355.47" y2="43.60" stroke="#9aa0a6" stroke-width="2.00" />
<line x1="1352.26" y1="46.13" x2="1351.84" y2="46.09" stroke="#9aa0a6" stroke-width="2.00" />
<line x1="1352.26" y1="46.13" x2="1352.53" y2="46.09" stroke="#9aa0a6" stroke-width="2.00" />
<line x1="1353.32" y1="43.74" x2="1353.56" y2="43.68" stroke="#9aa0a6" stroke-width="2.00" />
<line x1="1351.84" y1="46.09" x2="1351.43" y2="46.09" stroke="#9aa0a6" stroke-width="2.00" />
<line x1="1358.93" y1="46.10" x2="1358.50" y2="46.03" stroke="#9aa0a6" stroke-width="2.00" />
<line x1="1358.93" y1="46.10" x2="1359.26" y2="46.18" stroke="#9aa0a6" stroke-width="2.00" />
<line x1="1352.95" y1="42.80" x2="1353.19" y2="42.94" stroke="#9aa0a6" stroke-width="2.00" />
<line x1="1355.53" y1="46.23" x2="1355.38" y2="46.32" stroke="#9aa0a6" stroke-width="2.00" />
<line x1="1355.53" y1="46.23" x2="1355.79" y2="46.12" stroke="#9aa0a6" stroke-width="2.00" />
<line x1="1354.71" y1="47.54" x2="1354.68" y2="47.92" stroke="#9aa0a6" stroke-width="2.00" />
<line x1="1354.71" y1="47.54" x2="1354.73" y2="47.05" stroke="#9aa0a6" stroke-width="2.00" />
<line x1="1354.15" y1="44.98" x2="1353.77" y2="44.82" stroke="#9aa0a6" stroke-width="2.00" />
<line x1="1354.15" y1="44.98" x2="1354.40" y2="44.90" stroke="#9aa0a6" stroke-width="2.00" />
<line x1="1355.07" y1="43.64" x2="1354.84" y2="43.65" stroke="#9aa0a6" stroke-width="2.00" />
<line x1="1355.07" y1="43.64" x2="1355.07" y2="43.34" stroke="#9aa0a6" stroke-width="2.00" />
<line x1="1355.46" y1="44.89" x2="1355.46" y2="44.60" stroke="#9aa0a6" stroke-width="2.00" />
<line x1="1355.46" y1="44.89" x2="1355.47" y2="45.14" stroke="#9aa0a6" stroke-width="2.00" />
<line x1="1355.77" y1="41.35" x2="1355.27" y2="41.07" stroke="#9aa0a6" stroke-width="2.00" />
<line x1="1355.77" y1="41.35" x2="1355.90" y2="43.05" stroke="#9aa0a6" stroke-width="2.00" />
<line x1="1355.38" y1="41.84" x2="1355.36" y2="42.76" stroke="#9aa0a6" stroke-width="2.00" />
<line x1="1355.38" y1="41.84" x2="1355.31" y2="41.44" stroke="#9aa0a6" stroke-width="2.00" />
<line x1="1354.62" y1="46.73" x2="1354.73" y2="47.05" stroke="#9aa0a6" stroke-width="2.00" />
<line x1="1354.62" y1="46.73" x2="1354.62" y2="46.37" stroke="#9aa0a6" stroke-width="2.00" />
<line x1="1354.43" y1="46.38" x2="1354.31" y2="46.09" stroke="#9aa0a6" stroke-width="2.00" />
<line x1="1354.43" y1="46.38" x2="1354.62" y2="46.37" stroke="#9aa0a6" stroke-width="2.00" />
<line x1="1355.66" y1="45.51" x2="1355.65" y2="45.19" stroke="#9aa0a6" stroke-width="2.00" />
<line x1="1355.66" y1="45.51" x2="1355.79" y2="46.12" stroke="#9aa0a6" stroke-width="2.00" />
<line x1="1354.30" y1="45.23" x2="1354.31" y2="45.53" stroke="#9aa0a6" stroke-width="2.00" />
<line x1="1354.30" y1="45.23" x2="1354.40" y2="44.90" stroke="#9aa0a6" stroke-width="2.00" />
<line x1="1355.38" y1="46.32" x2="1355.49" y2="46.54" stroke="#9aa0a6" stroke-width="2.00" />
<line x1="1355.38" y1="46.32" x2="1355.51" y2="46.02" stroke="#9aa0a6" stroke-width="2.00" />
<line x1="1355.38" y1="46.32" x2="1355.05" y2="46.35" stroke="#9aa0a6" stroke-width="2.00" />
<line x1="1355.49" y1="46.54" x2="1355.53" y2="46.89" stroke="#9aa0a6" stroke-width="2.00" />
<line x1="1357.84" y1="45.99" x2="1357.34" y2="46.02" stroke="#9aa0a6" stroke-width="2.00" />
<line x1="1357.84" y1="45.99" x2="1358.12" y2="45.99" stroke="#9aa0a6" stroke-width="2.00" />
<line x1="1355.36" y1="42.76" x2="1355.47" y2="43.28" stroke="#9aa0a6" stroke-width="2.00" />
<line x1="1356.51" y1="46.02" x2="1356.13" y2="45.97" stroke="#9aa0a6" stroke-width="2.00" />
<line x1="1356.51" y1="46.02" x2="1356.87" y2="45.88" stroke="#9aa0a6" stroke-width="2.00" />
<line x1="1354.10" y1="44.05" x2="1354.40" y2="44.90" stroke="#9aa0a6" stroke-width="2.00" />
<line x1="1354.10" y1="44.05" x2="1354.08" y2="43.69" stroke="#9aa0a6" stroke-width="2.00" />
<line x1="1355.48" y1="45.71" x2="1355.51" y2="46.02" stroke="#9aa0a6" stroke-width="2.00" />
<line x1="1355.48" y1="45.71" x2="1355.37" y2="45.52" stroke="#9aa0a6" stroke-width="2.00" />
<line x1="1355.51" y1="46.02" x2="1355.79" y2="46.12" stroke="#9aa0a6" stroke-width="2.00" />
<line x1="1355.51" y1="46.02" x2="1355.26" y2="46.08" stroke="#9aa0a6" stroke-width="2.00" />
<line x1="1355.37" y1="45.52" x2="1355.47" y2="45.14" stroke="#9aa0a6" stroke-width="2.00" />
<line x1="1355.65" y1="45.19" x2="1355.66" y2="44.85" stroke="#9aa0a6" stroke-width="2.00" />
<line x1="1355.66" y1="44.85" x2="1355.73" y2="44.29" stroke="#9aa0a6" stroke-width="2.00" />
<line x1="1355.66" y1="44.85" x2="1356.15" y2="44.20" stroke="#9aa0a6" stroke-width="2.00" />
<line x1="1355.66" y1="44.85" x2="1355.46" y2="44.60" stroke="#9aa0a6" stroke-width="2.00" />
<line x1="1353.62" y1="43.15" x2="1353.51" y2="42.89" stroke="#9aa0a6" stroke-width="2.00" />
<line x1="1353.62" y1="43.15" x2="1353.63" y2="43.43" stroke="#9aa0a6" stroke-width="2.00" />
<line x1="1355.04" y1="42.49" x2="1354.94" y2="42.80" stroke="#9aa0a6" stroke-width="2.00" />
<line x1="1354.31" y1="45.53" x2="1354.31" y2="46.09" stroke="#9aa0a6" stroke-width="2.00" />
<line x1="1354.31" y1="46.09" x2="1354.23" y2="46.10" stroke="#9aa0a6" stroke-width="2.00" />
<line x1="1354.31" y1="46.09" x2="1354.62" y2="46.10" stroke="#9aa0a6" stroke-width="2.00" />
<line x1="1357.34" y1="46.02" x2="1357.05" y2="46.06" stroke="#9aa0a6" stroke-width="2.00" />
<line x1="1354.67" y1="48.53" x2="1354.67" y2="48.19" stroke="#9aa0a6" stroke-width="2.00" />
<line x1="1353.52" y1="46.09" x2="1353.73" y2="46.09" stroke="#9aa0a6" stroke-width="2.00" />
<line x1="1353.52" y1="46.09" x2="1353.26" y2="46.09" stroke="#9aa0a6" stroke-width="2.00" />
<line x1="1355.72" y1="43.94" x2="1355.73" y2="44.29" stroke="#9aa0a6" stroke-width="2.00" />
<line x1="1355.72" y1="43.94" x2="1355.79" y2="43.61" stroke="#9aa0a6" stroke-width="2.00" />
<line x1="1358.50" y1="46.03" x2="1358.12" y2="45.99" stroke="#9aa0a6" stroke-width="2.00" />
<line x1="1351.43" y1="46.09" x2="1351.24" y2="45.44" stroke="#9aa0a6" stroke-width="2.00" />
<line x1="1354.97" y1="44.66" x2="1354.71" y2="44.62" stroke="#9aa0a6" stroke-width="2.00" />
<line x1="1356.13" y1="45.97" x2="1356.23" y2="45.71" stroke="#9aa0a6" stroke-width="2.00" />
<line x1="1356.13" y1="45.97" x2="1356.24" y2="46.53" stroke="#9aa0a6" stroke-width="2.00" />
<line x1="1356.13" y1="45.97" x2="1355.96" y2="46.02" stroke="#9aa0a6" stroke-width="2.00" />
<line x1="1359.32" y1="46.58" x2="1359.50" y2="46.68" stroke="#9aa0a6" stroke-width="2.00" />
<line x1="1359.32" y1="46.58" x2="1359.26" y2="46.18" stroke="#9aa0a6" stroke-width="2.00" />
<line x1="1353.75" y1="43.67" x2="1353.71" y2="44.03" stroke="#9aa0a6" stroke-width="2.00" />
<line x1="1353.75" y1="43.67" x2="1353.56" y2="43.68" stroke="#9aa0a6" stroke-width="2.00" />
<line x1="1353.75" y1="43.67" x2="1353.94" y2="43.66" stroke="#9aa0a6" stroke-width="2.00" />
<line x1="1353.75" y1="43.67" x2="1353.63" y2="43.43" stroke="#9aa0a6" stroke-width="2.00" />
<line x1="1355.49" y1="44.26" x2="1355.48" y2="43.93" stroke="#9aa0a6" stroke-width="2.00" />
<line x1="1355.49" y1="44.26" x2="1355.46" y2="44.60" stroke="#9aa0a6" stroke-width="2.00" />
<line x1="1354.79" y1="46.35" x2="1355.05" y2="46.35" stroke="#9aa0a6" stroke-width="2.00" />
<line x1="1354.79" y1="46.35" x2="1354.62" y2="46.37" stroke="#9aa0a6" stroke-width="2.00" />
<line x1="1355.48" y1="43.93" x2="1355.47" y2="43.60" stroke="#9aa0a6" stroke-width="2.00" />
<line x1="1354.05" y1="40.35" x2="1354.49" y2="40.39" stroke="#9aa0a6" stroke-width="2.00" />
<line x1="1354.05" y1="40.35" x2="1353.79" y2="40.39" stroke="#9aa0a6" stroke-width="2.00" />
<line x1="1355.47" y1="43.28" x2="1355.47" y2="43.60" stroke="#9aa0a6" stroke-width="2.00" />
<line x1="1355.47" y1="43.60" x2="1355.79" y2="43.61" stroke="#9aa0a6" stroke-width="2.00" />
<line x1="1356.23" y1="45.49" x2="1356.23" y2="45.71" stroke="#9aa0a6" stroke-width="2.00" />
<line x1="1356.23" y1="45.49" x2="1356.23" y2="45.14" stroke="#9aa0a6" stroke-width="2.00" />
<line x1="1354.49" y1="40.39" x2="1355.27" y2="41.07" stroke="#9aa0a6" stroke-width="2.00" />
<line x1="1354.84" y1="43.65" x2="1354.65" y2="43.66" stroke="#9aa0a6" stroke-width="2.00" />
<line x1="1355.79" y1="46.12" x2="1355.96" y2="46.02" stroke="#9aa0a6" stroke-width="2.00" />
<line x1="1354.67" y1="48.19" x2="1354.68" y2="47.92" stroke="#9aa0a6" stroke-width="2.00" />
<line x1="1356.23" y1="46.84" x2="1356.24" y2="46.53" stroke="#9aa0a6" stroke-width="2.00" />
<line x1="1354.71" y1="44.62" x2="1354.40" y2="44.90" stroke="#9aa0a6" stroke-width="2.00" />
<line x1="1359.50" y1="46.68" x2="1359.70" y2="46.92" stroke="#9aa0a6" stroke-width="2.00" />
<line x1="1356.23" y1="44.59" x2="1356.15" y2="44.20" stroke="#9aa0a6" stroke-width="2.00" />
<line x1="1354.76" y1="45.80" x2="1354.62" y2="46.10" stroke="#9aa0a6" stroke-width="2.00" />
<line x1="1354.76" y1="45.80" x2="1354.71" y2="45.41" stroke="#9aa0a6" stroke-width="2.00" />
<line x1="1359.87" y1="47.20" x2="1359.70" y2="46.92" stroke="#9aa0a6" stroke-width="2.00" />
<line x1="1359.87" y1="47.20" x2="1360.00" y2="47.32" stroke="#9aa0a6" stroke-width="2.00" />
<line x1="1355.27" y1="41.07" x2="1355.31" y2="41.44" stroke="#9aa0a6" stroke-width="2.00" />
<line x1="1355.27" y1="41.07" x2="1355.28" y2="40.59" stroke="#9aa0a6" stroke-width="2.00" />
<line x1="1355.55" y1="47.77" x2="1355.54" y2="47.47" stroke="#9aa0a6" stroke-width="2.00" />
<line x1="1355.55" y1="47.77" x2="1355.55" y2="48.23" stroke="#9aa0a6" stroke-width="2.00" />
<line x1="1353.79" y1="40.39" x2="1353.56" y2="41.03" stroke="#9aa0a6" stroke-width="2.00" />
<line x1="1353.73" y1="46.09" x2="1354.00" y2="46.09" stroke="#9aa0a6" stroke-width="2.00" />
<line x1="1354.65" y1="43.66" x2="1354.37" y2="43.67" stroke="#9aa0a6" stroke-width="2.00" />
<line x1="1354.00" y1="46.09" x2="1354.23" y2="46.10" stroke="#9aa0a6" stroke-width="2.00" />
<line x1="1353.77" y1="44.82" x2="1353.85" y2="44.29" stroke="#9aa0a6" stroke-width="2.00" />
<line x1="1354.94" y1="42.80" x2="1355.07" y2="43.34" stroke="#9aa0a6" stroke-width="2.00" />
<line x1="1354.71" y1="45.14" x2="1354.61" y2="44.90" stroke="#9aa0a6" stroke-width="2.00" />
<line x1="1354.71" y1="45.14" x2="1354.71" y2="45.41" stroke="#9aa0a6" stroke-width="2.00" />
<line x1="1355.54" y1="47.47" x2="1355.53" y2="46.89" stroke="#9aa0a6" stroke-width="2.00" />
<line x1="1353.71" y1="44.03" x2="1353.85" y2="44.29" stroke="#9aa0a6" stroke-width="2.00" />
<line x1="1356.15" y1="44.20" x2="1355.99" y2="43.78" stroke="#9aa0a6" stroke-width="2.00" />
<line x1="1356.15" y1="44.20" x2="40.46" y2="1360.00" stroke="#9aa0a6" stroke-width="0.40" />
<line x1="1356.15" y1="44.20" x2="40.00" y2="1325.34" stroke="#9aa0a6" stroke-width="0.41" />
<line x1="1353.79" y1="41.70" x2="1354.10" y2="43.09" stroke="#9aa0a6" stroke-width="2.00" />
<line x1="1353.79" y1="41.70" x2="1353.56" y2="41.03" stroke="#9aa0a6" stroke-width="2.00" />
<line x1="1355.79" y1="43.61" x2="1355.99" y2="43.78" stroke="#9aa0a6" stroke-width="2.00" />
<line x1="1355.79" y1="43.61" x2="1355.90" y2="43.05" stroke="#9aa0a6" stroke-width="2.00" />
<line x1="1356.87" y1="45.88" x2="1357.05" y2="46.06" stroke="#9aa0a6" stroke-width="2.00" />
<line x1="40.46" y1="1360.00" x2="40.00" y2="1325.34" stroke="#9aa0a6" stroke-width="1.98" />
<line x1="1355.20" y1="46.04" x2="1354.99" y2="46.05" stroke="#9aa0a6" stroke-width="2.00" />
<line x1="1355.20" y1="46.04" x2="1355.26" y2="46.08" stroke="#9aa0a6" stroke-width="2.00" />
<line x1="1354.99" y1="46.05" x2="1354.62" y2="46.10" stroke="#9aa0a6" stroke-width="2.00" />
<line x1="1355.28" y1="40.28" x2="1355.29" y2="40.00" stroke="#9aa0a6" stroke-width="2.00" />
<line x1="1355.28" y1="40.28" x2="1355.28" y2="40.59" stroke="#9aa0a6" stroke-width="2.00" />
<line x1="1353.26" y1="46.09" x2="1352.91" y2="46.09" stroke="#9aa0a6" stroke-width="2.00" />
<line x1="1354.10" y1="43.09" x2="1354.08" y2="43.69" stroke="#9aa0a6" stroke-width="2.00" />
<line x1="1352.91" y1="46.09" x2="1352.53" y2="46.09" stroke="#9aa0a6" stroke-width="2.00" />
<line x1="1354.62" y1="46.10" x2="1354.62" y2="46.37" stroke="#9aa0a6" stroke-width="2.00" />
<line x1="1354.61" y1="44.90" x2="1354.40" y2="44.90" stroke="#9aa0a6" stroke-width="2.00" />
<line x1="1354.37" y1="43.67" x2="1354.08" y2="43.69" stroke="#9aa0a6" stroke-width="2.00" />
<line x1="1353.19" y1="42.94" x2="1353.51" y2="42.89" stroke="#9aa0a6" stroke-width="2.00" />
<line x1="1353.94" y1="43.66" x2="1354.08" y2="43.69" stroke="#9aa0a6" stroke-width="2.00" />
</g>
<g>
<circle cx="1356.23" cy="44.95" r="3.20" fill="#b91c1c" />
<circle cx="1355.20" cy="44.65" r="3.20" fill="#b91c1c" />
<circle cx="1352.83" cy="42.46" r="2.20" fill="#1f2937" />
<circle cx="1355.27" cy="43.64" r="3.20" fill="#b91c1c" />
<circle cx="1352.26" cy="46.13" r="3.20" fill="#b91c1c" />
<circle cx="1353.32" cy="43.74" r="2.20" fill="#1f2937" />
<circle cx="1351.84" cy="46.09" r="3.20" fill="#b91c1c" />
<circle cx="1358.93" cy="46.10" r="3.20" fill="#b91c1c" />
<circle cx="1352.95" cy="42.80" r="3.20" fill="#b91c1c" />
<circle cx="1355.53" cy="46.23" r="3.20" fill="#b91c1c" />
<circle cx="1354.71" cy="47.54" r="2.20" fill="#1f2937" />
<circle cx="1354.15" cy="44.98" r="2.20" fill="#1f2937" />
<circle cx="1355.07" cy="43.64" r="3.20" fill="#b91c1c" />
<circle cx="1355.46" cy="44.89" r="2.20" fill="#1f2937" />
<circle cx="1355.77" cy="41.35" r="2.20" fill="#1f2937" />
<circle cx="1355.38" cy="41.84" r="2.20" fill="#1f2937" />
<circle cx="1354.62" cy="46.73" r="2.20" fill="#1f2937" />
<circle cx="1354.43" cy="46.38" r="2.20" fill="#1f2937" />
<circle cx="1355.66" cy="45.51" r="2.20" fill="#1f2937" />
<circle cx="1354.30" cy="45.23" r="2.20" fill="#1f2937" />
<circle cx="1355.38" cy="46.32" r="3.20" fill="#b91c1c" />
<circle cx="1355.49" cy="46.54" r="2.20" fill="#1f2937" />
<circle cx="1357.84" cy="45.99" r="2.20" fill="#1f2937" />
<circle cx="1355.36" cy="42.76" r="2.20" fill="#1f2937" />
<circle cx="1356.51" cy="46.02" r="2.20" fill="#1f2937" />
<circle cx="1354.10" cy="44.05" r="2.20" fill="#1f2937" />
<circle cx="1355.48" cy="45.71" r="2.20" fill="#1f2937" />
<circle cx="1355.51" cy="46.02" r="3.20" fill="#b91c1c" />
<circle cx="1355.37" cy="45.52" r="2.20" fill="#1f2937" />
<circle cx="1355.65" cy="45.19" r="2.20" fill="#1f2937" />
<circle cx="1355.66" cy="44.85" r="3.20" fill="#b91c1c" />
<circle cx="1353.62" cy="43.15" r="2.20" fill="#1f2937" />
<circle cx="1355.04" cy="42.49" r="2.20" fill="#1f2937" />
<circle cx="1354.31" cy="45.53" r="2.20" fill="#1f2937" />
<circle cx="1354.31" cy="46.09" r="3.20" fill="#b91c1c" />
<circle cx="1357.34" cy="46.02" r="2.20" fill="#1f2937" />
<circle cx="1354.67" cy="48.53" r="2.20" fill="#1f2937" />
<circle cx="1353.52" cy="46.09" r="2.20" fill="#1f2937" />
<circle cx="1355.72" cy="43.94" r="2.20" fill="#1f2937" />
<circle cx="1358.50" cy="46.03" r="2.20" fill="#1f2937" />
<circle cx="1351.43" cy="46.09" r="2.20" fill="#1f2937" />
<circle cx="1354.97" cy="44.66" r="2.20" fill="#1f2937" />
<circle cx="1356.13" cy="45.97" r="3.20" fill="#b91c1c" />
<circle cx="1359.32" cy="46.58" r="2.20" fill="#1f2937" />
<circle cx="1353.75" cy="43.67" r="3.20" fill="#b91c1c" />
<circle cx="1355.49" cy="44.26" r="2.20" fill="#1f2937" />
<circle cx="1354.79" cy="46.35" r="2.20" fill="#1f2937" />
<circle cx="1355.48" cy="43.93" r="2.20" fill="#1f2937" />
<circle cx="1354.05" cy="40.35" r="2.20" fill="#1f2937" />
<circle cx="1355.47" cy="43.28" r="2.20" fill="#1f2937" />
<circle cx="1355.47" cy="43.60" r="3.20" fill="#b91c1c" />
<circle cx="1356.23" cy="45.49" r="2.20" fill="#1f2937" />
<circle cx="1354.49" cy="40.39" r="2.20" fill="#1f2937" />
<circle cx="1354.84" cy="43.65" r="2.20" fill="#1f2937" />
<circle cx="1355.79" cy="46.12" r="3.20" fill="#b91c1c" />
<circle cx="1354.67" cy="48.19" r="2.20" fill="#1f2937" />
<circle cx="1356.23" cy="46.84" r="2.20" fill="#1f2937" />
<circle cx="1356.23" cy="45.71" r="2.20" fill="#1f2937" />
<circle cx="1354.71" cy="44.62" r="2.20" fill="#1f2937" />
<circle cx="1359.50" cy="46.68" r="2.20" fill="#1f2937" />
<circle cx="1356.23" cy="44.59" r="2.20" fill="#1f2937" />
<circle cx="1354.76" cy="45.80" r="2.20" fill="#1f2937" />
<circle cx="1359.87" cy="47.20" r="2.20" fill="#1f2937" />
<circle cx="1355.27" cy="41.07" r="3.20" fill="#b91c1c" />
<circle cx="1355.31" cy="41.44" r="2.20" fill="#1f2937" />
<circle cx="1355.73" cy="44.29" r="2.20" fill="#1f2937" />
<circle cx="1355.55" cy="47.77" r="2.20" fill="#1f2937" />
<circle cx="1359.70" cy="46.92" r="2.20" fill="#1f2937" />
<circle cx="1353.79" cy="40.39" r="2.20" fill="#1f2937" />
<circle cx="1354.68" cy="47.92" r="2.20" fill="#1f2937" />
<circle cx="1353.73" cy="46.09" r="2.20" fill="#1f2937" />
<circle cx="1354.65" cy="43.66" r="2.20" fill="#1f2937" />
<circle cx="1354.00" cy="46.09" r="2.20" fill="#1f2937" />
<circle cx="1354.23" cy="46.10" r="2.20" fill="#1f2937" />
<circle cx="1353.77" cy="44.82" r="2.20" fill="#1f2937" />
<circle cx="1354.94" cy="42.80" r="2.20" fill="#1f2937" />
<circle cx="1355.07" cy="43.34" r="2.20" fill="#1f2937" />
<circle cx="1354.71" cy="45.14" r="2.20" fill="#1f2937" />
<circle cx="1351.24" cy="45.44" r="2.20" fill="#1f2937" />
<circle cx="1355.54" cy="47.47" r="2.20" fill="#1f2937" />
<circle cx="1355.05" cy="46.35" r="2.20" fill="#1f2937" />
<circle cx="1353.71" cy="44.03" r="2.20" fill="#1f2937" />
<circle cx="1356.15" cy="44.20" r="3.20" fill="#b91c1c" />
<circle cx="1353.79" cy="41.70" r="2.20" fill="#1f2937" />
<circle cx="1355.79" cy="43.61" r="3.20" fill="#b91c1c" />
<circle cx="1356.24" cy="46.53" r="2.20" fill="#1f2937" />
<circle cx="1358.12" cy="45.99" r="2.20" fill="#1f2937" />
<circle cx="1356.87" cy="45.88" r="2.20" fill="#1f2937" />
<circle cx="1357.05" cy="46.06" r="2.20" fill="#1f2937" />
<circle cx="1355.55" cy="48.23" r="2.20" fill="#1f2937" />
<circle cx="1353.56" cy="43.68" r="2.20" fill="#1f2937" />
<circle cx="1355.99" cy="43.78" r="2.20" fill="#1f2937" />
<circle cx="1354.73" cy="47.05" r="2.20" fill="#1f2937" />
<circle cx="40.46" cy="1360.00" r="2.20" fill="#1f2937" />
<circle cx="40.00" cy="1325.34" r="2.20" fill="#1f2937" />
<circle cx="1355.20" cy="46.04" r="2.20" fill="#1f2937" />
<circle cx="1354.99" cy="46.05" r="2.20" fill="#1f2937" />
<circle cx="1355.53" cy="46.89" r="2.20" fill="#1f2937" />
<circle cx="1355.28" cy="40.28" r="2.20" fill="#1f2937" />
<circle cx="1355.29" cy="40.00" r="2.20" fill="#1f2937" />
<circle cx="1355.28" cy="40.59" r="2.20" fill="#1f2937" />
<circle cx="1359.26" cy="46.18" r="2.20" fill="#1f2937" />
<circle cx="1356.23" cy="45.14" r="2.20" fill="#1f2937" />
<circle cx="1360.00" cy="47.32" r="2.20" fill="#1f2937" />
<circle cx="1355.26" cy="46.08" r="2.20" fill="#1f2937" />
<circle cx="1355.90" cy="43.05" r="2.20" fill="#1f2937" />
<circle cx="1353.26" cy="46.09" r="2.20" fill="#1f2937" />
<circle cx="1353.85" cy="44.29" r="2.20" fill="#1f2937" />
<circle cx="1354.10" cy="43.09" r="2.20" fill="#1f2937" />
<circle cx="1352.91" cy="46.09" r="2.20" fill="#1f2937" />
<circle cx="1354.62" cy="46.10" r="3.20" fill="#b91c1c" />
<circle cx="1353.56" cy="41.03" r="2.20" fill="#1f2937" />
<circle cx="1354.61" cy="44.90" r="2.20" fill="#1f2937" />
<circle cx="1354.71" cy="45.41" r="2.20" fill="#1f2937" />
<circle cx="1354.37" cy="43.67" r="2.20" fill="#1f2937" />
<circle cx="1353.19" cy="42.94" r="2.20" fill="#1f2937" />
<circle cx="1354.40" cy="44.90" r="3.20" fill="#b91c1c" />
<circle cx="1354.62" cy="46.37" r="3.20" fill="#b91c1c" />
<circle cx="1355.96" cy="46.02" r="2.20" fill="#1f2937" />
<circle cx="1355.46" cy="44.60" r="3.20" fill="#b91c1c" />
<circle cx="1353.51" cy="42.89" r="2.20" fill="#1f2937" />
<circle cx="1352.53" cy="46.09" r="2.20" fill="#1f2937" />
<circle cx="1355.47" cy="45.14" r="2.20" fill="#1f2937" />
<circle cx="1353.94" cy="43.66" r="2.20" fill="#1f2937" />
<circle cx="1354.08" cy="43.69" r="3.20" fill="#b91c1c" />
<circle cx="1353.63" cy="43.43" r="2.20" fill="#1f2937" />
<g font-family="Arial, sans-serif" font-size="10" fill="#111827">
<text x="1360.15" y="40.20">83:Sanyuanqiao</text>
<text x="1358.40" y="40.90">117:Xizhimen</text>
<text x="1359.38" y="42.32">21:Chongwenmen</text>
<text x="1359.51" y="42.02">28:Dongdan</text>
<text x="1359.66" y="40.85">31:Dongzhimen</text>
<text x="1358.31" y="42.09">35:Fuxingmen</text>
<text x="1360.13" y="41.97">43:Guomao</text>
<text x="1357.75" y="39.67">45:HaidianHuangzhuang</text>
<text x="1359.47" y="39.60">51:HuixinxijieNankou</text>
<text x="1359.79" y="42.12">55:Jianguomen</text>
<text x="1359.27" y="37.07">64:Lishuiqiao</text>
<text x="1359.79" y="39.61">85:Shaoyaoju</text>
<text x="1358.62" y="42.10">111:Xidan</text>
<text x="1358.62" y="42.37">118:Xuanwumen</text>
<text x="1359.46" y="40.60">120:YonghegongLamaTemple</text>
<text x="1358.08" y="39.69">125:Zhichunlu</text>
<text x="1359.07" y="39.64">13:Beitucheng</text>
<text x="1360.23" y="40.95">1:AgriculturalExhibitionCenter</text>
<text x="1359.20" y="40.65">2:Andingmen</text>
<text x="1359.27" y="39.64">4:Anzhenmen</text>
<text x="1356.26" y="42.13">5:Babaoshan</text>
<text x="1355.84" y="42.09">7:BajiaoAmusementPark</text>
<text x="1362.93" y="42.10">8:Baliqiao</text>
<text x="1356.95" y="38.80">9:Beigongmen</text>
<text x="1359.53" y="42.23">10:BeijingRailwayStation</text>
</g>
</g>
</svg>
