<?xml version="1.0" encoding="UTF-8"?>
<svg xmlns="http://www.w3.org/2000/svg" width="1400" height="1400" viewBox="0 0 1400 1400">
<rect x="0" y="0" width="100%" height="100%" fill="#ffffff" />
<g opacity="0.75">
<line x1="456.99" y1="95.39" x2="496.56" y2="130.05" stroke="#9aa0a6" stroke-width="1.44" />
<line x1="538.58" y1="921.39" x2="513.54" y2="923.45" stroke="#9aa0a6" stroke-width="1.78" />
<line x1="538.58" y1="921.39" x2="580.70" y2="909.92" stroke="#9aa0a6" stroke-width="1.50" />
<line x1="511.57" y1="809.65" x2="544.69" y2="799.56" stroke="#9aa0a6" stroke-width="1.64" />
<line x1="511.57" y1="809.65" x2="472.21" y2="846.92" stroke="#9aa0a6" stroke-width="1.43" />
<line x1="513.52" y1="779.67" x2="464.83" y2="806.05" stroke="#9aa0a6" stroke-width="1.36" />
<line x1="513.52" y1="779.67" x2="544.69" y2="799.56" stroke="#9aa0a6" stroke-width="1.64" />
<line x1="513.52" y1="779.67" x2="530.20" y2="801.55" stroke="#9aa0a6" stroke-width="1.81" />
<line x1="513.52" y1="779.67" x2="489.19" y2="721.78" stroke="#9aa0a6" stroke-width="1.42" />
<line x1="459.50" y1="680.67" x2="507.84" y2="688.98" stroke="#9aa0a6" stroke-width="1.42" />
<line x1="459.50" y1="680.67" x2="396.14" y2="692.18" stroke="#9aa0a6" stroke-width="1.18" />
<line x1="653.43" y1="643.09" x2="671.36" y2="691.38" stroke="#9aa0a6" stroke-width="1.56" />
<line x1="653.43" y1="643.09" x2="662.85" y2="589.57" stroke="#9aa0a6" stroke-width="1.55" />
<line x1="464.83" y1="806.05" x2="440.34" y2="821.47" stroke="#9aa0a6" stroke-width="1.75" />
<line x1="464.83" y1="806.05" x2="426.11" y2="760.11" stroke="#9aa0a6" stroke-width="1.38" />
<line x1="464.83" y1="806.05" x2="525.78" y2="768.56" stroke="#9aa0a6" stroke-width="1.13" />
<line x1="464.83" y1="806.05" x2="419.99" y2="856.09" stroke="#9aa0a6" stroke-width="1.27" />
<line x1="464.83" y1="806.05" x2="491.95" y2="871.34" stroke="#9aa0a6" stroke-width="1.32" />
<line x1="747.25" y1="554.88" x2="771.35" y2="576.42" stroke="#9aa0a6" stroke-width="1.73" />
<line x1="747.25" y1="554.88" x2="719.02" y2="610.93" stroke="#9aa0a6" stroke-width="1.40" />
<line x1="747.25" y1="554.88" x2="718.53" y2="568.33" stroke="#9aa0a6" stroke-width="1.70" />
<line x1="700.22" y1="651.07" x2="695.72" y2="682.44" stroke="#9aa0a6" stroke-width="1.81" />
<line x1="700.22" y1="651.07" x2="719.02" y2="610.93" stroke="#9aa0a6" stroke-width="1.63" />
<line x1="629.95" y1="661.15" x2="615.89" y2="633.55" stroke="#9aa0a6" stroke-width="1.79" />
<line x1="629.95" y1="661.15" x2="624.27" y2="729.59" stroke="#9aa0a6" stroke-width="1.39" />
<line x1="848.63" y1="231.32" x2="875.79" y2="135.81" stroke="#9aa0a6" stroke-width="1.01" />
<line x1="848.63" y1="231.32" x2="773.07" y2="313.75" stroke="#9aa0a6" stroke-width="0.67" />
<line x1="513.54" y1="923.45" x2="491.95" y2="871.34" stroke="#9aa0a6" stroke-width="1.49" />
<line x1="513.54" y1="923.45" x2="520.97" y2="853.21" stroke="#9aa0a6" stroke-width="1.37" />
<line x1="513.54" y1="923.45" x2="502.40" y2="997.46" stroke="#9aa0a6" stroke-width="1.32" />
<line x1="687.89" y1="682.48" x2="708.43" y2="705.68" stroke="#9aa0a6" stroke-width="1.76" />
<line x1="687.89" y1="682.48" x2="661.57" y2="660.51" stroke="#9aa0a6" stroke-width="1.69" />
<line x1="1294.69" y1="611.17" x2="1230.40" y2="685.75" stroke="#9aa0a6" stroke-width="0.86" />
<line x1="1294.69" y1="611.17" x2="1360.00" y2="586.71" stroke="#9aa0a6" stroke-width="1.12" />
<line x1="158.75" y1="181.60" x2="110.98" y2="139.00" stroke="#9aa0a6" stroke-width="1.29" />
<line x1="158.75" y1="181.60" x2="196.80" y2="252.01" stroke="#9aa0a6" stroke-width="1.18" />
<line x1="110.98" y1="139.00" x2="40.00" y2="62.73" stroke="#9aa0a6" stroke-width="0.77" />
<line x1="580.70" y1="909.92" x2="558.25" y2="965.30" stroke="#9aa0a6" stroke-width="1.45" />
<line x1="580.70" y1="909.92" x2="596.02" y2="848.67" stroke="#9aa0a6" stroke-width="1.44" />
<line x1="580.70" y1="909.92" x2="600.45" y2="871.24" stroke="#9aa0a6" stroke-width="1.64" />
<line x1="410.55" y1="975.20" x2="457.00" y2="938.92" stroke="#9aa0a6" stroke-width="1.34" />
<line x1="410.55" y1="975.20" x2="369.14" y2="990.24" stroke="#9aa0a6" stroke-width="1.51" />
<line x1="500.14" y1="570.74" x2="477.39" y2="509.53" stroke="#9aa0a6" stroke-width="1.39" />
<line x1="500.14" y1="570.74" x2="543.86" y2="619.25" stroke="#9aa0a6" stroke-width="1.30" />
<line x1="998.96" y1="736.47" x2="928.89" y2="693.89" stroke="#9aa0a6" stroke-width="0.98" />
<line x1="998.96" y1="736.47" x2="1069.90" y2="721.52" stroke="#9aa0a6" stroke-width="1.06" />
<line x1="440.34" y1="821.47" x2="419.99" y2="856.09" stroke="#9aa0a6" stroke-width="1.67" />
<line x1="620.13" y1="816.94" x2="600.17" y2="791.94" stroke="#9aa0a6" stroke-width="1.75" />
<line x1="620.13" y1="816.94" x2="628.72" y2="828.31" stroke="#9aa0a6" stroke-width="1.99" />
<line x1="620.13" y1="816.94" x2="566.35" y2="800.16" stroke="#9aa0a6" stroke-width="1.32" />
<line x1="620.13" y1="816.94" x2="639.20" y2="783.02" stroke="#9aa0a6" stroke-width="1.69" />
<line x1="620.13" y1="816.94" x2="596.02" y2="848.67" stroke="#9aa0a6" stroke-width="1.65" />
<line x1="620.13" y1="816.94" x2="627.54" y2="755.13" stroke="#9aa0a6" stroke-width="1.46" />
<line x1="627.94" y1="796.89" x2="658.27" y2="831.30" stroke="#9aa0a6" stroke-width="1.56" />
<line x1="627.94" y1="796.89" x2="614.97" y2="793.47" stroke="#9aa0a6" stroke-width="1.97" />
<line x1="477.39" y1="509.53" x2="449.25" y2="469.38" stroke="#9aa0a6" stroke-width="1.54" />
<line x1="462.77" y1="1109.00" x2="487.81" y2="1071.51" stroke="#9aa0a6" stroke-width="1.60" />
<line x1="462.77" y1="1109.00" x2="434.77" y2="1180.68" stroke="#9aa0a6" stroke-width="1.25" />
<line x1="1189.28" y1="744.03" x2="1143.80" y2="807.56" stroke="#9aa0a6" stroke-width="1.16" />
<line x1="1189.28" y1="744.03" x2="1230.40" y2="685.75" stroke="#9aa0a6" stroke-width="1.25" />
<line x1="570.85" y1="494.47" x2="575.36" y2="569.73" stroke="#9aa0a6" stroke-width="1.32" />
<line x1="570.85" y1="494.47" x2="543.06" y2="451.82" stroke="#9aa0a6" stroke-width="1.52" />
<line x1="708.43" y1="705.68" x2="742.33" y2="709.26" stroke="#9aa0a6" stroke-width="1.64" />
<line x1="531.11" y1="723.86" x2="568.30" y2="661.68" stroke="#9aa0a6" stroke-width="1.26" />
<line x1="531.11" y1="723.86" x2="525.78" y2="768.56" stroke="#9aa0a6" stroke-width="1.66" />
<line x1="292.30" y1="89.97" x2="272.97" y2="71.85" stroke="#9aa0a6" stroke-width="1.81" />
<line x1="292.30" y1="89.97" x2="318.47" y2="133.04" stroke="#9aa0a6" stroke-width="1.54" />
<line x1="680.02" y1="816.32" x2="677.36" y2="762.09" stroke="#9aa0a6" stroke-width="1.56" />
<line x1="680.02" y1="816.32" x2="649.13" y2="836.99" stroke="#9aa0a6" stroke-width="1.64" />
<line x1="196.80" y1="252.01" x2="238.84" y2="311.08" stroke="#9aa0a6" stroke-width="1.24" />
<line x1="600.17" y1="791.94" x2="566.35" y2="800.16" stroke="#9aa0a6" stroke-width="1.64" />
<line x1="600.17" y1="791.94" x2="607.22" y2="758.14" stroke="#9aa0a6" stroke-width="1.77" />
<line x1="600.17" y1="791.94" x2="624.27" y2="729.59" stroke="#9aa0a6" stroke-width="1.37" />
<line x1="600.17" y1="791.94" x2="584.32" y2="826.47" stroke="#9aa0a6" stroke-width="1.71" />
<line x1="628.72" y1="828.31" x2="596.02" y2="848.67" stroke="#9aa0a6" stroke-width="1.61" />
<line x1="628.72" y1="828.31" x2="645.94" y2="789.71" stroke="#9aa0a6" stroke-width="1.66" />
<line x1="628.72" y1="828.31" x2="649.13" y2="836.99" stroke="#9aa0a6" stroke-width="1.84" />
<line x1="449.25" y1="469.38" x2="415.67" y2="436.88" stroke="#9aa0a6" stroke-width="1.53" />
<line x1="211.38" y1="645.91" x2="174.18" y2="644.73" stroke="#9aa0a6" stroke-width="1.59" />
<line x1="211.38" y1="645.91" x2="254.12" y2="647.91" stroke="#9aa0a6" stroke-width="1.51" />
<line x1="318.84" y1="593.14" x2="323.66" y2="534.80" stroke="#9aa0a6" stroke-width="1.51" />
<line x1="318.84" y1="593.14" x2="307.06" y2="645.15" stroke="#9aa0a6" stroke-width="1.56" />
<line x1="928.89" y1="693.89" x2="889.57" y2="696.74" stroke="#9aa0a6" stroke-width="1.56" />
<line x1="401.34" y1="645.14" x2="407.20" y2="585.28" stroke="#9aa0a6" stroke-width="1.49" />
<line x1="401.34" y1="645.14" x2="369.01" y2="674.79" stroke="#9aa0a6" stroke-width="1.57" />
<line x1="401.34" y1="645.14" x2="396.14" y2="692.18" stroke="#9aa0a6" stroke-width="1.63" />
<line x1="401.34" y1="645.14" x2="441.59" y2="636.80" stroke="#9aa0a6" stroke-width="1.54" />
<line x1="695.72" y1="682.44" x2="686.02" y2="719.90" stroke="#9aa0a6" stroke-width="1.72" />
<line x1="99.94" y1="255.06" x2="147.45" y2="302.63" stroke="#9aa0a6" stroke-width="1.26" />
<line x1="238.84" y1="311.08" x2="290.49" y2="349.79" stroke="#9aa0a6" stroke-width="1.26" />
<line x1="457.00" y1="938.92" x2="491.95" y2="871.34" stroke="#9aa0a6" stroke-width="1.23" />
<line x1="577.52" y1="476.29" x2="551.46" y2="398.19" stroke="#9aa0a6" stroke-width="1.20" />
<line x1="577.52" y1="476.29" x2="593.53" y2="518.27" stroke="#9aa0a6" stroke-width="1.64" />
<line x1="206.33" y1="737.99" x2="246.13" y2="692.82" stroke="#9aa0a6" stroke-width="1.37" />
<line x1="600.73" y1="588.82" x2="575.36" y2="569.73" stroke="#9aa0a6" stroke-width="1.72" />
<line x1="600.73" y1="588.82" x2="567.50" y2="584.54" stroke="#9aa0a6" stroke-width="1.65" />
<line x1="600.73" y1="588.82" x2="615.89" y2="633.55" stroke="#9aa0a6" stroke-width="1.61" />
<line x1="600.73" y1="588.82" x2="655.72" y2="580.96" stroke="#9aa0a6" stroke-width="1.31" />
<line x1="771.35" y1="576.42" x2="804.33" y2="560.96" stroke="#9aa0a6" stroke-width="1.63" />
<line x1="507.84" y1="688.98" x2="543.86" y2="619.25" stroke="#9aa0a6" stroke-width="1.20" />
<line x1="507.84" y1="688.98" x2="515.95" y2="735.18" stroke="#9aa0a6" stroke-width="1.63" />
<line x1="507.84" y1="688.98" x2="568.30" y2="661.68" stroke="#9aa0a6" stroke-width="1.18" />
<line x1="507.84" y1="688.98" x2="489.19" y2="721.78" stroke="#9aa0a6" stroke-width="1.70" />
<line x1="1069.90" y1="721.52" x2="1125.87" y2="674.77" stroke="#9aa0a6" stroke-width="1.15" />
<line x1="543.86" y1="619.25" x2="502.81" y2="606.63" stroke="#9aa0a6" stroke-width="1.52" />
<line x1="543.86" y1="619.25" x2="575.36" y2="569.73" stroke="#9aa0a6" stroke-width="1.43" />
<line x1="543.86" y1="619.25" x2="567.50" y2="584.54" stroke="#9aa0a6" stroke-width="1.63" />
<line x1="543.86" y1="619.25" x2="568.30" y2="661.68" stroke="#9aa0a6" stroke-width="1.56" />
<line x1="543.86" y1="619.25" x2="508.78" y2="626.27" stroke="#9aa0a6" stroke-width="1.62" />
<line x1="415.67" y1="436.88" x2="368.40" y2="418.08" stroke="#9aa0a6" stroke-width="1.41" />
<line x1="415.67" y1="436.88" x2="486.32" y2="465.75" stroke="#9aa0a6" stroke-width="1.03" />
<line x1="415.67" y1="436.88" x2="429.97" y2="499.34" stroke="#9aa0a6" stroke-width="1.43" />
<line x1="687.76" y1="558.70" x2="718.53" y2="568.33" stroke="#9aa0a6" stroke-width="1.68" />
<line x1="687.76" y1="558.70" x2="664.85" y2="545.29" stroke="#9aa0a6" stroke-width="1.78" />
<line x1="694.66" y1="498.31" x2="720.55" y2="441.70" stroke="#9aa0a6" stroke-width="1.42" />
<line x1="694.66" y1="498.31" x2="664.85" y2="545.29" stroke="#9aa0a6" stroke-width="1.47" />
<line x1="393.34" y1="236.95" x2="411.01" y2="301.40" stroke="#9aa0a6" stroke-width="1.39" />
<line x1="393.34" y1="236.95" x2="381.10" y2="189.04" stroke="#9aa0a6" stroke-width="1.60" />
<line x1="411.01" y1="301.40" x2="447.00" y2="317.65" stroke="#9aa0a6" stroke-width="1.58" />
<line x1="661.57" y1="660.51" x2="626.54" y2="663.62" stroke="#9aa0a6" stroke-width="1.63" />
<line x1="593.89" y1="660.78" x2="568.30" y2="661.68" stroke="#9aa0a6" stroke-width="1.77" />
<line x1="593.89" y1="660.78" x2="626.54" y2="663.62" stroke="#9aa0a6" stroke-width="1.66" />
<line x1="593.89" y1="660.78" x2="624.27" y2="729.59" stroke="#9aa0a6" stroke-width="1.26" />
<line x1="593.89" y1="660.78" x2="578.18" y2="618.89" stroke="#9aa0a6" stroke-width="1.64" />
<line x1="663.77" y1="898.83" x2="627.43" y2="857.72" stroke="#9aa0a6" stroke-width="1.44" />
<line x1="663.77" y1="898.83" x2="695.88" y2="861.21" stroke="#9aa0a6" stroke-width="1.52" />
<line x1="502.81" y1="606.63" x2="456.67" y2="594.98" stroke="#9aa0a6" stroke-width="1.44" />
<line x1="544.12" y1="870.06" x2="566.35" y2="800.16" stroke="#9aa0a6" stroke-width="1.31" />
<line x1="544.12" y1="870.06" x2="491.95" y2="871.34" stroke="#9aa0a6" stroke-width="1.36" />
<line x1="368.40" y1="418.08" x2="330.88" y2="384.48" stroke="#9aa0a6" stroke-width="1.48" />
<line x1="644.02" y1="684.99" x2="656.78" y2="731.20" stroke="#9aa0a6" stroke-width="1.61" />
<line x1="644.02" y1="684.99" x2="645.73" y2="612.63" stroke="#9aa0a6" stroke-width="1.35" />
<line x1="1030.06" y1="865.94" x2="980.03" y2="860.08" stroke="#9aa0a6" stroke-width="1.39" />
<line x1="1030.06" y1="865.94" x2="1108.05" y2="852.26" stroke="#9aa0a6" stroke-width="0.95" />
<line x1="575.36" y1="569.73" x2="578.18" y2="618.89" stroke="#9aa0a6" stroke-width="1.61" />
<line x1="566.35" y1="800.16" x2="544.69" y2="799.56" stroke="#9aa0a6" stroke-width="1.84" />
<line x1="566.35" y1="800.16" x2="544.69" y2="799.56" stroke="#9aa0a6" stroke-width="1.84" />
<line x1="677.36" y1="762.09" x2="737.54" y2="812.09" stroke="#9aa0a6" stroke-width="1.08" />
<line x1="677.36" y1="762.09" x2="656.66" y2="746.34" stroke="#9aa0a6" stroke-width="1.80" />
<line x1="677.36" y1="762.09" x2="686.02" y2="719.90" stroke="#9aa0a6" stroke-width="1.68" />
<line x1="778.51" y1="828.35" x2="737.54" y2="812.09" stroke="#9aa0a6" stroke-width="1.51" />
<line x1="778.51" y1="828.35" x2="820.72" y2="827.25" stroke="#9aa0a6" stroke-width="1.52" />
<line x1="776.56" y1="706.56" x2="742.33" y2="709.26" stroke="#9aa0a6" stroke-width="1.64" />
<line x1="776.56" y1="706.56" x2="813.30" y2="702.11" stroke="#9aa0a6" stroke-width="1.60" />
<line x1="807.00" y1="657.51" x2="804.33" y2="560.96" stroke="#9aa0a6" stroke-width="1.08" />
<line x1="807.00" y1="657.51" x2="813.30" y2="702.11" stroke="#9aa0a6" stroke-width="1.66" />
<line x1="773.07" y1="313.75" x2="683.44" y2="358.85" stroke="#9aa0a6" stroke-width="0.69" />
<line x1="773.07" y1="313.75" x2="750.45" y2="417.19" stroke="#9aa0a6" stroke-width="0.95" />
<line x1="392.36" y1="769.43" x2="392.64" y2="834.84" stroke="#9aa0a6" stroke-width="1.43" />
<line x1="392.36" y1="769.43" x2="396.14" y2="692.18" stroke="#9aa0a6" stroke-width="1.30" />
<line x1="749.23" y1="746.94" x2="737.54" y2="812.09" stroke="#9aa0a6" stroke-width="1.41" />
<line x1="749.23" y1="746.94" x2="742.33" y2="709.26" stroke="#9aa0a6" stroke-width="1.73" />
<line x1="749.23" y1="746.94" x2="697.17" y2="743.76" stroke="#9aa0a6" stroke-width="1.36" />
<line x1="749.23" y1="746.94" x2="813.30" y2="702.11" stroke="#9aa0a6" stroke-width="1.06" />
<line x1="671.36" y1="691.38" x2="686.02" y2="719.90" stroke="#9aa0a6" stroke-width="1.78" />
<line x1="515.95" y1="735.18" x2="525.78" y2="768.56" stroke="#9aa0a6" stroke-width="1.76" />
<line x1="426.11" y1="760.11" x2="381.08" y2="735.85" stroke="#9aa0a6" stroke-width="1.42" />
<line x1="551.46" y1="398.19" x2="533.57" y2="336.31" stroke="#9aa0a6" stroke-width="1.42" />
<line x1="567.50" y1="584.54" x2="512.33" y2="520.38" stroke="#9aa0a6" stroke-width="1.05" />
<line x1="567.50" y1="584.54" x2="593.53" y2="518.27" stroke="#9aa0a6" stroke-width="1.32" />
<line x1="290.49" y1="349.79" x2="330.88" y2="384.48" stroke="#9aa0a6" stroke-width="1.43" />
<line x1="568.30" y1="661.68" x2="588.92" y2="691.87" stroke="#9aa0a6" stroke-width="1.70" />
<line x1="719.02" y1="610.93" x2="730.56" y2="659.19" stroke="#9aa0a6" stroke-width="1.60" />
<line x1="719.02" y1="610.93" x2="684.74" y2="586.35" stroke="#9aa0a6" stroke-width="1.57" />
<line x1="639.20" y1="783.02" x2="656.66" y2="746.34" stroke="#9aa0a6" stroke-width="1.68" />
<line x1="683.44" y1="358.85" x2="626.95" y2="424.92" stroke="#9aa0a6" stroke-width="1.02" />
<line x1="417.13" y1="1298.36" x2="424.40" y2="1240.15" stroke="#9aa0a6" stroke-width="1.50" />
<line x1="417.13" y1="1298.36" x2="394.90" y2="1360.00" stroke="#9aa0a6" stroke-width="1.39" />
<line x1="433.26" y1="1056.68" x2="472.62" y2="1030.81" stroke="#9aa0a6" stroke-width="1.49" />
<line x1="392.64" y1="834.84" x2="419.99" y2="856.09" stroke="#9aa0a6" stroke-width="1.68" />
<line x1="392.64" y1="834.84" x2="377.31" y2="898.79" stroke="#9aa0a6" stroke-width="1.41" />
<line x1="392.64" y1="834.84" x2="339.16" y2="831.66" stroke="#9aa0a6" stroke-width="1.34" />
<line x1="127.24" y1="634.18" x2="67.13" y2="601.37" stroke="#9aa0a6" stroke-width="1.17" />
<line x1="127.24" y1="634.18" x2="174.18" y2="644.73" stroke="#9aa0a6" stroke-width="1.43" />
<line x1="1143.80" y1="807.56" x2="1108.05" y2="852.26" stroke="#9aa0a6" stroke-width="1.42" />
<line x1="750.45" y1="417.19" x2="720.55" y2="441.70" stroke="#9aa0a6" stroke-width="1.63" />
<line x1="870.50" y1="832.61" x2="980.03" y2="860.08" stroke="#9aa0a6" stroke-width="0.44" />
<line x1="870.50" y1="832.61" x2="820.72" y2="827.25" stroke="#9aa0a6" stroke-width="1.40" />
<line x1="558.25" y1="965.30" x2="524.86" y2="1026.39" stroke="#9aa0a6" stroke-width="1.31" />
<line x1="558.25" y1="965.30" x2="562.31" y2="927.39" stroke="#9aa0a6" stroke-width="1.74" />
<line x1="558.25" y1="965.30" x2="502.40" y2="997.46" stroke="#9aa0a6" stroke-width="1.23" />
<line x1="656.78" y1="731.20" x2="656.66" y2="746.34" stroke="#9aa0a6" stroke-width="2.00" />
<line x1="656.78" y1="731.20" x2="624.27" y2="729.59" stroke="#9aa0a6" stroke-width="1.67" />
<line x1="656.78" y1="731.20" x2="697.17" y2="743.76" stroke="#9aa0a6" stroke-width="1.53" />
<line x1="1125.87" y1="674.77" x2="1149.09" y2="593.03" stroke="#9aa0a6" stroke-width="1.18" />
<line x1="737.54" y1="812.09" x2="695.88" y2="861.21" stroke="#9aa0a6" stroke-width="1.32" />
<line x1="742.33" y1="709.26" x2="730.56" y2="659.19" stroke="#9aa0a6" stroke-width="1.58" />
<line x1="381.10" y1="189.04" x2="354.62" y2="144.36" stroke="#9aa0a6" stroke-width="1.52" />
<line x1="1239.64" y1="497.64" x2="1149.09" y2="593.03" stroke="#9aa0a6" stroke-width="0.40" />
<line x1="512.33" y1="520.38" x2="486.32" y2="465.75" stroke="#9aa0a6" stroke-width="1.43" />
<line x1="525.78" y1="768.56" x2="569.69" y2="777.54" stroke="#9aa0a6" stroke-width="1.48" />
<line x1="525.78" y1="768.56" x2="530.20" y2="801.55" stroke="#9aa0a6" stroke-width="1.79" />
<line x1="525.78" y1="768.56" x2="489.19" y2="721.78" stroke="#9aa0a6" stroke-width="1.40" />
<line x1="323.66" y1="534.80" x2="308.56" y2="479.81" stroke="#9aa0a6" stroke-width="1.51" />
<line x1="240.87" y1="592.43" x2="320.14" y2="562.62" stroke="#9aa0a6" stroke-width="0.90" />
<line x1="307.06" y1="645.15" x2="312.38" y2="697.43" stroke="#9aa0a6" stroke-width="1.57" />
<line x1="246.13" y1="692.82" x2="273.07" y2="682.46" stroke="#9aa0a6" stroke-width="1.74" />
<line x1="307.06" y1="645.15" x2="273.07" y2="682.46" stroke="#9aa0a6" stroke-width="1.50" />
<line x1="307.06" y1="645.15" x2="344.69" y2="668.46" stroke="#9aa0a6" stroke-width="1.53" />
<line x1="307.06" y1="645.15" x2="254.12" y2="647.91" stroke="#9aa0a6" stroke-width="1.35" />
<line x1="424.40" y1="1240.15" x2="434.77" y2="1180.68" stroke="#9aa0a6" stroke-width="1.48" />
<line x1="662.85" y1="589.57" x2="664.85" y2="545.29" stroke="#9aa0a6" stroke-width="1.67" />
<line x1="195.16" y1="388.60" x2="260.31" y2="422.33" stroke="#9aa0a6" stroke-width="1.09" />
<line x1="195.16" y1="388.60" x2="178.47" y2="360.96" stroke="#9aa0a6" stroke-width="1.77" />
<line x1="147.45" y1="302.63" x2="178.47" y2="360.96" stroke="#9aa0a6" stroke-width="1.35" />
<line x1="622.96" y1="519.94" x2="613.43" y2="467.32" stroke="#9aa0a6" stroke-width="1.56" />
<line x1="622.96" y1="519.94" x2="638.88" y2="578.71" stroke="#9aa0a6" stroke-width="1.46" />
<line x1="656.66" y1="746.34" x2="686.02" y2="719.90" stroke="#9aa0a6" stroke-width="1.63" />
<line x1="656.66" y1="746.34" x2="624.27" y2="729.59" stroke="#9aa0a6" stroke-width="1.63" />
<line x1="656.66" y1="746.34" x2="645.94" y2="789.71" stroke="#9aa0a6" stroke-width="1.65" />
<line x1="607.22" y1="758.14" x2="624.27" y2="729.59" stroke="#9aa0a6" stroke-width="1.75" />
<line x1="626.95" y1="424.92" x2="613.43" y2="467.32" stroke="#9aa0a6" stroke-width="1.65" />
<line x1="853.56" y1="700.32" x2="889.57" y2="696.74" stroke="#9aa0a6" stroke-width="1.61" />
<line x1="853.56" y1="700.32" x2="813.30" y2="702.11" stroke="#9aa0a6" stroke-width="1.55" />
<line x1="344.69" y1="668.46" x2="374.36" y2="694.34" stroke="#9aa0a6" stroke-width="1.63" />
<line x1="312.38" y1="697.43" x2="343.90" y2="692.58" stroke="#9aa0a6" stroke-width="1.68" />
<line x1="481.74" y1="351.72" x2="447.00" y2="317.65" stroke="#9aa0a6" stroke-width="1.51" />
<line x1="481.74" y1="351.72" x2="522.86" y2="417.14" stroke="#9aa0a6" stroke-width="1.19" />
<line x1="165.87" y1="40.00" x2="197.82" y2="50.58" stroke="#9aa0a6" stroke-width="1.66" />
<line x1="407.20" y1="585.28" x2="429.97" y2="499.34" stroke="#9aa0a6" stroke-width="1.14" />
<line x1="272.97" y1="71.85" x2="224.16" y2="59.99" stroke="#9aa0a6" stroke-width="1.40" />
<line x1="533.57" y1="336.31" x2="517.37" y2="293.84" stroke="#9aa0a6" stroke-width="1.63" />
<line x1="472.21" y1="846.92" x2="419.99" y2="856.09" stroke="#9aa0a6" stroke-width="1.35" />
<line x1="320.14" y1="562.62" x2="387.07" y2="549.52" stroke="#9aa0a6" stroke-width="1.12" />
<line x1="308.56" y1="479.81" x2="260.31" y2="422.33" stroke="#9aa0a6" stroke-width="1.18" />
<line x1="517.37" y1="293.84" x2="509.28" y2="212.28" stroke="#9aa0a6" stroke-width="1.24" />
<line x1="509.28" y1="212.28" x2="496.56" y2="130.05" stroke="#9aa0a6" stroke-width="1.22" />
<line x1="419.99" y1="856.09" x2="377.31" y2="898.79" stroke="#9aa0a6" stroke-width="1.35" />
<line x1="568.78" y1="881.40" x2="562.31" y2="927.39" stroke="#9aa0a6" stroke-width="1.64" />
<line x1="568.78" y1="881.40" x2="584.32" y2="826.47" stroke="#9aa0a6" stroke-width="1.50" />
<line x1="624.27" y1="729.59" x2="624.00" y2="644.17" stroke="#9aa0a6" stroke-width="1.20" />
<line x1="624.27" y1="729.59" x2="588.92" y2="691.87" stroke="#9aa0a6" stroke-width="1.48" />
<line x1="624.27" y1="729.59" x2="627.54" y2="755.13" stroke="#9aa0a6" stroke-width="1.88" />
<line x1="520.97" y1="853.21" x2="530.20" y2="801.55" stroke="#9aa0a6" stroke-width="1.57" />
<line x1="569.69" y1="777.54" x2="614.97" y2="793.47" stroke="#9aa0a6" stroke-width="1.45" />
<line x1="524.86" y1="1026.39" x2="487.81" y2="1071.51" stroke="#9aa0a6" stroke-width="1.40" />
<line x1="543.06" y1="451.82" x2="522.86" y2="417.14" stroke="#9aa0a6" stroke-width="1.67" />
<line x1="596.02" y1="848.67" x2="562.28" y2="823.34" stroke="#9aa0a6" stroke-width="1.57" />
<line x1="354.62" y1="144.36" x2="318.47" y2="133.04" stroke="#9aa0a6" stroke-width="1.60" />
<line x1="624.00" y1="644.17" x2="638.88" y2="578.71" stroke="#9aa0a6" stroke-width="1.40" />
<line x1="684.74" y1="586.35" x2="655.72" y2="580.96" stroke="#9aa0a6" stroke-width="1.72" />
<line x1="197.82" y1="50.58" x2="224.16" y2="59.99" stroke="#9aa0a6" stroke-width="1.75" />
<line x1="855.95" y1="979.90" x2="793.76" y2="982.13" stroke="#9aa0a6" stroke-width="1.21" />
<line x1="374.36" y1="694.34" x2="396.14" y2="692.18" stroke="#9aa0a6" stroke-width="1.83" />
<line x1="374.36" y1="694.34" x2="343.90" y2="692.58" stroke="#9aa0a6" stroke-width="1.70" />
<line x1="374.36" y1="694.34" x2="381.08" y2="735.85" stroke="#9aa0a6" stroke-width="1.69" />
<line x1="369.01" y1="674.79" x2="343.90" y2="692.58" stroke="#9aa0a6" stroke-width="1.73" />
<line x1="413.00" y1="705.22" x2="396.14" y2="692.18" stroke="#9aa0a6" stroke-width="1.87" />
<line x1="413.00" y1="705.22" x2="448.90" y2="709.27" stroke="#9aa0a6" stroke-width="1.61" />
<line x1="658.27" y1="831.30" x2="695.88" y2="861.21" stroke="#9aa0a6" stroke-width="1.50" />
<line x1="600.45" y1="871.24" x2="627.43" y2="857.72" stroke="#9aa0a6" stroke-width="1.73" />
<line x1="502.40" y1="997.46" x2="472.62" y2="1030.81" stroke="#9aa0a6" stroke-width="1.57" />
<line x1="645.73" y1="612.63" x2="650.55" y2="582.46" stroke="#9aa0a6" stroke-width="1.82" />
<line x1="387.07" y1="549.52" x2="456.67" y2="594.98" stroke="#9aa0a6" stroke-width="0.98" />
<line x1="530.20" y1="801.55" x2="562.28" y2="823.34" stroke="#9aa0a6" stroke-width="1.62" />
<line x1="793.76" y1="982.13" x2="739.16" y2="922.00" stroke="#9aa0a6" stroke-width="1.08" />
<line x1="739.16" y1="922.00" x2="695.88" y2="861.21" stroke="#9aa0a6" stroke-width="1.21" />
<line x1="664.85" y1="545.29" x2="650.55" y2="582.46" stroke="#9aa0a6" stroke-width="1.70" />
<line x1="508.78" y1="626.27" x2="467.69" y2="634.87" stroke="#9aa0a6" stroke-width="1.53" />
<line x1="467.69" y1="634.87" x2="441.59" y2="636.80" stroke="#9aa0a6" stroke-width="1.77" />
<line x1="489.19" y1="721.78" x2="448.90" y2="709.27" stroke="#9aa0a6" stroke-width="1.53" />
<line x1="339.16" y1="831.66" x2="294.89" y2="830.97" stroke="#9aa0a6" stroke-width="1.48" />
</g>
<g>
<circle cx="456.99" cy="95.39" r="2.20" fill="#1f2937" />
<circle cx="538.58" cy="921.39" r="2.20" fill="#1f2937" />
<circle cx="511.57" cy="809.65" r="2.20" fill="#1f2937" />
<circle cx="513.52" cy="779.67" r="3.20" fill="#b91c1c" />
<circle cx="459.50" cy="680.67" r="2.20" fill="#1f2937" />
<circle cx="653.43" cy="643.09" r="2.20" fill="#1f2937" />
<circle cx="464.83" cy="806.05" r="3.20" fill="#b91c1c" />
<circle cx="747.25" cy="554.88" r="2.20" fill="#1f2937" />
<circle cx="700.22" cy="651.07" r="2.20" fill="#1f2937" />
<circle cx="629.95" cy="661.15" r="2.20" fill="#1f2937" />
<circle cx="848.63" cy="231.32" r="2.20" fill="#1f2937" />
<circle cx="513.54" cy="923.45" r="3.20" fill="#b91c1c" />
<circle cx="687.89" cy="682.48" r="2.20" fill="#1f2937" />
<circle cx="1294.69" cy="611.17" r="2.20" fill="#1f2937" />
<circle cx="158.75" cy="181.60" r="2.20" fill="#1f2937" />
<circle cx="110.98" cy="139.00" r="2.20" fill="#1f2937" />
<circle cx="580.70" cy="909.92" r="3.20" fill="#b91c1c" />
<circle cx="410.55" cy="975.20" r="2.20" fill="#1f2937" />
<circle cx="500.14" cy="570.74" r="2.20" fill="#1f2937" />
<circle cx="998.96" cy="736.47" r="2.20" fill="#1f2937" />
<circle cx="440.34" cy="821.47" r="2.20" fill="#1f2937" />
<circle cx="620.13" cy="816.94" r="3.20" fill="#b91c1c" />
<circle cx="627.94" cy="796.89" r="2.20" fill="#1f2937" />
<circle cx="477.39" cy="509.53" r="2.20" fill="#1f2937" />
<circle cx="462.77" cy="1109.00" r="2.20" fill="#1f2937" />
<circle cx="1189.28" cy="744.03" r="2.20" fill="#1f2937" />
<circle cx="570.85" cy="494.47" r="2.20" fill="#1f2937" />
<circle cx="708.43" cy="705.68" r="2.20" fill="#1f2937" />
<circle cx="531.11" cy="723.86" r="2.20" fill="#1f2937" />
<circle cx="292.30" cy="89.97" r="2.20" fill="#1f2937" />
<circle cx="680.02" cy="816.32" r="2.20" fill="#1f2937" />
<circle cx="196.80" cy="252.01" r="2.20" fill="#1f2937" />
<circle cx="600.17" cy="791.94" r="3.20" fill="#b91c1c" />
<circle cx="628.72" cy="828.31" r="3.20" fill="#b91c1c" />
<circle cx="449.25" cy="469.38" r="2.20" fill="#1f2937" />
<circle cx="211.38" cy="645.91" r="2.20" fill="#1f2937" />
<circle cx="318.84" cy="593.14" r="2.20" fill="#1f2937" />
<circle cx="928.89" cy="693.89" r="2.20" fill="#1f2937" />
<circle cx="401.34" cy="645.14" r="3.20" fill="#b91c1c" />
<circle cx="695.72" cy="682.44" r="2.20" fill="#1f2937" />
<circle cx="99.94" cy="255.06" r="2.20" fill="#1f2937" />
<circle cx="238.84" cy="311.08" r="2.20" fill="#1f2937" />
<circle cx="457.00" cy="938.92" r="2.20" fill="#1f2937" />
<circle cx="577.52" cy="476.29" r="2.20" fill="#1f2937" />
<circle cx="206.33" cy="737.99" r="2.20" fill="#1f2937" />
<circle cx="600.73" cy="588.82" r="3.20" fill="#b91c1c" />
<circle cx="771.35" cy="576.42" r="2.20" fill="#1f2937" />
<circle cx="507.84" cy="688.98" r="3.20" fill="#b91c1c" />
<circle cx="1069.90" cy="721.52" r="2.20" fill="#1f2937" />
<circle cx="543.86" cy="619.25" r="3.20" fill="#b91c1c" />
<circle cx="415.67" cy="436.88" r="3.20" fill="#b91c1c" />
<circle cx="687.76" cy="558.70" r="2.20" fill="#1f2937" />
<circle cx="694.66" cy="498.31" r="2.20" fill="#1f2937" />
<circle cx="393.34" cy="236.95" r="2.20" fill="#1f2937" />
<circle cx="411.01" cy="301.40" r="2.20" fill="#1f2937" />
<circle cx="661.57" cy="660.51" r="2.20" fill="#1f2937" />
<circle cx="593.89" cy="660.78" r="3.20" fill="#b91c1c" />
<circle cx="663.77" cy="898.83" r="2.20" fill="#1f2937" />
<circle cx="502.81" cy="606.63" r="2.20" fill="#1f2937" />
<circle cx="544.12" cy="870.06" r="2.20" fill="#1f2937" />
<circle cx="368.40" cy="418.08" r="2.20" fill="#1f2937" />
<circle cx="644.02" cy="684.99" r="2.20" fill="#1f2937" />
<circle cx="1030.06" cy="865.94" r="2.20" fill="#1f2937" />
<circle cx="575.36" cy="569.73" r="3.20" fill="#b91c1c" />
<circle cx="566.35" cy="800.16" r="3.20" fill="#b91c1c" />
<circle cx="677.36" cy="762.09" r="3.20" fill="#b91c1c" />
<circle cx="778.51" cy="828.35" r="2.20" fill="#1f2937" />
<circle cx="776.56" cy="706.56" r="2.20" fill="#1f2937" />
<circle cx="807.00" cy="657.51" r="2.20" fill="#1f2937" />
<circle cx="875.79" cy="135.81" r="2.20" fill="#1f2937" />
<circle cx="773.07" cy="313.75" r="2.20" fill="#1f2937" />
<circle cx="392.36" cy="769.43" r="2.20" fill="#1f2937" />
<circle cx="749.23" cy="746.94" r="3.20" fill="#b91c1c" />
<circle cx="671.36" cy="691.38" r="2.20" fill="#1f2937" />
<circle cx="515.95" cy="735.18" r="2.20" fill="#1f2937" />
<circle cx="544.69" cy="799.56" r="2.20" fill="#1f2937" />
<circle cx="544.69" cy="799.56" r="2.20" fill="#1f2937" />
<circle cx="426.11" cy="760.11" r="2.20" fill="#1f2937" />
<circle cx="551.46" cy="398.19" r="2.20" fill="#1f2937" />
<circle cx="567.50" cy="584.54" r="3.20" fill="#b91c1c" />
<circle cx="290.49" cy="349.79" r="2.20" fill="#1f2937" />
<circle cx="568.30" cy="661.68" r="3.20" fill="#b91c1c" />
<circle cx="719.02" cy="610.93" r="3.20" fill="#b91c1c" />
<circle cx="639.20" cy="783.02" r="2.20" fill="#1f2937" />
<circle cx="683.44" cy="358.85" r="2.20" fill="#1f2937" />
<circle cx="417.13" cy="1298.36" r="2.20" fill="#1f2937" />
<circle cx="433.26" cy="1056.68" r="2.20" fill="#1f2937" />
<circle cx="392.64" cy="834.84" r="2.20" fill="#1f2937" />
<circle cx="127.24" cy="634.18" r="2.20" fill="#1f2937" />
<circle cx="1143.80" cy="807.56" r="2.20" fill="#1f2937" />
<circle cx="750.45" cy="417.19" r="2.20" fill="#1f2937" />
<circle cx="870.50" cy="832.61" r="2.20" fill="#1f2937" />
<circle cx="720.55" cy="441.70" r="2.20" fill="#1f2937" />
<circle cx="558.25" cy="965.30" r="2.20" fill="#1f2937" />
<circle cx="656.78" cy="731.20" r="2.20" fill="#1f2937" />
<circle cx="1125.87" cy="674.77" r="2.20" fill="#1f2937" />
<circle cx="737.54" cy="812.09" r="2.20" fill="#1f2937" />
<circle cx="742.33" cy="709.26" r="2.20" fill="#1f2937" />
<circle cx="381.10" cy="189.04" r="2.20" fill="#1f2937" />
<circle cx="1239.64" cy="497.64" r="2.20" fill="#1f2937" />
<circle cx="1230.40" cy="685.75" r="2.20" fill="#1f2937" />
<circle cx="512.33" cy="520.38" r="2.20" fill="#1f2937" />
<circle cx="525.78" cy="768.56" r="3.20" fill="#b91c1c" />
<circle cx="369.14" cy="990.24" r="2.20" fill="#1f2937" />
<circle cx="323.66" cy="534.80" r="2.20" fill="#1f2937" />
<circle cx="240.87" cy="592.43" r="2.20" fill="#1f2937" />
<circle cx="307.06" cy="645.15" r="2.20" fill="#1f2937" />
<circle cx="246.13" cy="692.82" r="2.20" fill="#1f2937" />
<circle cx="307.06" cy="645.15" r="2.20" fill="#1f2937" />
<circle cx="273.07" cy="682.46" r="2.20" fill="#1f2937" />
<circle cx="424.40" cy="1240.15" r="2.20" fill="#1f2937" />
<circle cx="662.85" cy="589.57" r="2.20" fill="#1f2937" />
<circle cx="195.16" cy="388.60" r="2.20" fill="#1f2937" />
<circle cx="147.45" cy="302.63" r="2.20" fill="#1f2937" />
<circle cx="622.96" cy="519.94" r="2.20" fill="#1f2937" />
<circle cx="656.66" cy="746.34" r="3.20" fill="#b91c1c" />
<circle cx="607.22" cy="758.14" r="2.20" fill="#1f2937" />
<circle cx="686.02" cy="719.90" r="2.20" fill="#1f2937" />
<circle cx="1360.00" cy="586.71" r="2.20" fill="#1f2937" />
<circle cx="980.03" cy="860.08" r="2.20" fill="#1f2937" />
<circle cx="626.95" cy="424.92" r="2.20" fill="#1f2937" />
<circle cx="853.56" cy="700.32" r="2.20" fill="#1f2937" />
<circle cx="344.69" cy="668.46" r="2.20" fill="#1f2937" />
<circle cx="312.38" cy="697.43" r="2.20" fill="#1f2937" />
<circle cx="481.74" cy="351.72" r="2.20" fill="#1f2937" />
<circle cx="165.87" cy="40.00" r="2.20" fill="#1f2937" />
<circle cx="407.20" cy="585.28" r="2.20" fill="#1f2937" />
<circle cx="394.90" cy="1360.00" r="2.20" fill="#1f2937" />
<circle cx="272.97" cy="71.85" r="2.20" fill="#1f2937" />
<circle cx="533.57" cy="336.31" r="2.20" fill="#1f2937" />
<circle cx="472.21" cy="846.92" r="2.20" fill="#1f2937" />
<circle cx="615.89" cy="633.55" r="2.20" fill="#1f2937" />
<circle cx="320.14" cy="562.62" r="2.20" fill="#1f2937" />
<circle cx="308.56" cy="479.81" r="2.20" fill="#1f2937" />
<circle cx="626.54" cy="663.62" r="2.20" fill="#1f2937" />
<circle cx="67.13" cy="601.37" r="2.20" fill="#1f2937" />
<circle cx="517.37" cy="293.84" r="2.20" fill="#1f2937" />
<circle cx="509.28" cy="212.28" r="2.20" fill="#1f2937" />
<circle cx="889.57" cy="696.74" r="2.20" fill="#1f2937" />
<circle cx="419.99" cy="856.09" r="3.20" fill="#b91c1c" />
<circle cx="568.78" cy="881.40" r="2.20" fill="#1f2937" />
<circle cx="804.33" cy="560.96" r="2.20" fill="#1f2937" />
<circle cx="624.27" cy="729.59" r="3.20" fill="#b91c1c" />
<circle cx="491.95" cy="871.34" r="2.20" fill="#1f2937" />
<circle cx="520.97" cy="853.21" r="2.20" fill="#1f2937" />
<circle cx="730.56" cy="659.19" r="2.20" fill="#1f2937" />
<circle cx="569.69" cy="777.54" r="2.20" fill="#1f2937" />
<circle cx="613.43" cy="467.32" r="2.20" fill="#1f2937" />
<circle cx="524.86" cy="1026.39" r="2.20" fill="#1f2937" />
<circle cx="543.06" cy="451.82" r="2.20" fill="#1f2937" />
<circle cx="330.88" cy="384.48" r="2.20" fill="#1f2937" />
<circle cx="562.31" cy="927.39" r="2.20" fill="#1f2937" />
<circle cx="377.31" cy="898.79" r="2.20" fill="#1f2937" />
<circle cx="596.02" cy="848.67" r="2.20" fill="#1f2937" />
<circle cx="496.56" cy="130.05" r="2.20" fill="#1f2937" />
<circle cx="354.62" cy="144.36" r="2.20" fill="#1f2937" />
<circle cx="318.47" cy="133.04" r="2.20" fill="#1f2937" />
<circle cx="260.31" cy="422.33" r="2.20" fill="#1f2937" />
<circle cx="447.00" cy="317.65" r="2.20" fill="#1f2937" />
<circle cx="174.18" cy="644.73" r="2.20" fill="#1f2937" />
<circle cx="254.12" cy="647.91" r="2.20" fill="#1f2937" />
<circle cx="624.00" cy="644.17" r="2.20" fill="#1f2937" />
<circle cx="684.74" cy="586.35" r="2.20" fill="#1f2937" />
<circle cx="486.32" cy="465.75" r="2.20" fill="#1f2937" />
<circle cx="197.82" cy="50.58" r="2.20" fill="#1f2937" />
<circle cx="855.95" cy="979.90" r="2.20" fill="#1f2937" />
<circle cx="374.36" cy="694.34" r="2.20" fill="#1f2937" />
<circle cx="369.01" cy="674.79" r="2.20" fill="#1f2937" />
<circle cx="413.00" cy="705.22" r="2.20" fill="#1f2937" />
<circle cx="396.14" cy="692.18" r="3.20" fill="#b91c1c" />
<circle cx="1149.09" cy="593.03" r="2.20" fill="#1f2937" />
<circle cx="658.27" cy="831.30" r="2.20" fill="#1f2937" />
<circle cx="600.45" cy="871.24" r="2.20" fill="#1f2937" />
<circle cx="502.40" cy="997.46" r="2.20" fill="#1f2937" />
<circle cx="472.62" cy="1030.81" r="2.20" fill="#1f2937" />
<circle cx="645.73" cy="612.63" r="2.20" fill="#1f2937" />
<circle cx="522.86" cy="417.14" r="2.20" fill="#1f2937" />
<circle cx="578.18" cy="618.89" r="2.20" fill="#1f2937" />
<circle cx="697.17" cy="743.76" r="2.20" fill="#1f2937" />
<circle cx="813.30" cy="702.11" r="2.20" fill="#1f2937" />
<circle cx="387.07" cy="549.52" r="2.20" fill="#1f2937" />
<circle cx="487.81" cy="1071.51" r="2.20" fill="#1f2937" />
<circle cx="645.94" cy="789.71" r="2.20" fill="#1f2937" />
<circle cx="224.16" cy="59.99" r="2.20" fill="#1f2937" />
<circle cx="588.92" cy="691.87" r="2.20" fill="#1f2937" />
<circle cx="530.20" cy="801.55" r="2.20" fill="#1f2937" />
<circle cx="793.76" cy="982.13" r="2.20" fill="#1f2937" />
<circle cx="718.53" cy="568.33" r="2.20" fill="#1f2937" />
<circle cx="343.90" cy="692.58" r="2.20" fill="#1f2937" />
<circle cx="593.53" cy="518.27" r="2.20" fill="#1f2937" />
<circle cx="434.77" cy="1180.68" r="2.20" fill="#1f2937" />
<circle cx="627.54" cy="755.13" r="2.20" fill="#1f2937" />
<circle cx="562.28" cy="823.34" r="2.20" fill="#1f2937" />
<circle cx="178.47" cy="360.96" r="2.20" fill="#1f2937" />
<circle cx="820.72" cy="827.25" r="2.20" fill="#1f2937" />
<circle cx="739.16" cy="922.00" r="2.20" fill="#1f2937" />
<circle cx="649.13" cy="836.99" r="2.20" fill="#1f2937" />
<circle cx="627.43" cy="857.72" r="2.20" fill="#1f2937" />
<circle cx="695.88" cy="861.21" r="2.20" fill="#1f2937" />
<circle cx="584.32" cy="826.47" r="2.20" fill="#1f2937" />
<circle cx="664.85" cy="545.29" r="2.20" fill="#1f2937" />
<circle cx="655.72" cy="580.96" r="2.20" fill="#1f2937" />
<circle cx="650.55" cy="582.46" r="2.20" fill="#1f2937" />
<circle cx="1108.05" cy="852.26" r="2.20" fill="#1f2937" />
<circle cx="508.78" cy="626.27" r="2.20" fill="#1f2937" />
<circle cx="467.69" cy="634.87" r="2.20" fill="#1f2937" />
<circle cx="441.59" cy="636.80" r="2.20" fill="#1f2937" />
<circle cx="40.00" cy="62.73" r="2.20" fill="#1f2937" />
<circle cx="456.67" cy="594.98" r="2.20" fill="#1f2937" />
<circle cx="489.19" cy="721.78" r="2.20" fill="#1f2937" />
<circle cx="448.90" cy="709.27" r="2.20" fill="#1f2937" />
<circle cx="381.08" cy="735.85" r="2.20" fill="#1f2937" />
<circle cx="339.16" cy="831.66" r="2.20" fill="#1f2937" />
<circle cx="294.89" cy="830.97" r="2.20" fill="#1f2937" />
<circle cx="614.97" cy="793.47" r="2.20" fill="#1f2937" />
<circle cx="638.88" cy="578.71" r="2.20" fill="#1f2937" />
<circle cx="429.97" cy="499.34" r="2.20" fill="#1f2937" />
<g font-family="Arial, sans-serif" font-size="10" fill="#111827">
<text x="628.27" y="725.59">143:Otemachi</text>
<text x="547.86" y="615.25">50:Iidabashi</text>
<text x="468.83" y="802.05">7:Aoyama-itchome</text>
<text x="624.13" y="812.94">22:Ginza</text>
<text x="529.78" y="764.56">103:Nagatacho</text>
<text x="660.66" y="742.34">116:Nihombashi</text>
<text x="423.99" y="852.09">140:Omotesando</text>
<text x="604.17" y="787.94">33:Hibiya</text>
<text x="400.14" y="688.18">170:Shinjuku-sanchome</text>
<text x="511.84" y="684.98">48:Ichigaya</text>
<text x="570.35" y="796.16">65:Kasumigaseki</text>
<text x="572.30" y="657.68">82:Kudanshita</text>
<text x="517.52" y="775.67">4:Akasaka-mitsuke</text>
<text x="517.54" y="919.45">12:Azabu-Juban</text>
<text x="584.70" y="905.92">17:Daimon</text>
<text x="632.72" y="824.31">34:Higashi-Ginza</text>
<text x="405.34" y="641.14">39:Higashi-Shinjuku</text>
<text x="604.73" y="584.82">46:Hongo-Sanchome</text>
<text x="419.67" y="432.88">51:Ikebukuro</text>
<text x="597.89" y="656.78">57:Jimbocho</text>
<text x="579.36" y="565.73">64:Kasuga</text>
<text x="681.36" y="758.09">66:Kayabacho</text>
<text x="753.23" y="742.94">73:Kiyosumi-shirakawa</text>
<text x="571.50" y="580.54">80:Korakuen</text>
<text x="723.02" y="606.93">83:Kuramae</text>
</g>
</g>
</svg>
