<?xml version="1.0" encoding="UTF-8"?>
<svg xmlns="http://www.w3.org/2000/svg" width="1400" height="1400" viewBox="0 0 1400 1400">
<rect x="0" y="0" width="100%" height="100%" fill="#ffffff" />
<g opacity="0.75">
<line x1="833.95" y1="607.49" x2="889.46" y2="559.31" stroke="#9aa0a6" stroke-width="1.39" />
<line x1="833.95" y1="607.49" x2="820.38" y2="674.79" stroke="#9aa0a6" stroke-width="1.53" />
<line x1="345.69" y1="1252.36" x2="453.50" y2="1198.48" stroke="#9aa0a6" stroke-width="0.92" />
<line x1="345.69" y1="1252.36" x2="255.30" y2="1271.29" stroke="#9aa0a6" stroke-width="1.14" />
<line x1="922.19" y1="830.80" x2="964.62" y2="797.16" stroke="#9aa0a6" stroke-width="1.55" />
<line x1="922.19" y1="830.80" x2="883.16" y2="855.27" stroke="#9aa0a6" stroke-width="1.61" />
<line x1="1149.92" y1="372.57" x2="1217.41" y2="348.42" stroke="#9aa0a6" stroke-width="1.35" />
<line x1="1149.92" y1="372.57" x2="1107.09" y2="405.46" stroke="#9aa0a6" stroke-width="1.55" />
<line x1="453.50" y1="1198.48" x2="508.14" y2="1271.29" stroke="#9aa0a6" stroke-width="1.29" />
<line x1="453.50" y1="1198.48" x2="435.17" y2="1140.12" stroke="#9aa0a6" stroke-width="1.57" />
<line x1="453.50" y1="1198.48" x2="500.60" y2="1166.43" stroke="#9aa0a6" stroke-width="1.52" />
<line x1="671.04" y1="671.74" x2="674.44" y2="671.74" stroke="#9aa0a6" stroke-width="1.99" />
<line x1="1008.73" y1="586.08" x2="964.62" y2="641.15" stroke="#9aa0a6" stroke-width="1.45" />
<line x1="1008.73" y1="586.08" x2="1035.88" y2="543.26" stroke="#9aa0a6" stroke-width="1.62" />
<line x1="612.33" y1="1000.26" x2="560.75" y2="1005.15" stroke="#9aa0a6" stroke-width="1.53" />
<line x1="612.33" y1="1000.26" x2="657.47" y2="1008.22" stroke="#9aa0a6" stroke-width="1.59" />
<line x1="1360.00" y1="167.00" x2="1279.31" y2="248.89" stroke="#9aa0a6" stroke-width="1.05" />
<line x1="958.34" y1="928.98" x2="1006.19" y2="867.99" stroke="#9aa0a6" stroke-width="1.39" />
<line x1="958.34" y1="928.98" x2="915.40" y2="916.45" stroke="#9aa0a6" stroke-width="1.60" />
<line x1="1047.76" y1="203.72" x2="1095.96" y2="174.30" stroke="#9aa0a6" stroke-width="1.52" />
<line x1="1047.76" y1="203.72" x2="1005.55" y2="194.04" stroke="#9aa0a6" stroke-width="1.61" />
<line x1="508.14" y1="1271.29" x2="467.41" y2="1360.00" stroke="#9aa0a6" stroke-width="1.28" />
<line x1="1147.88" y1="573.85" x2="1153.32" y2="604.71" stroke="#9aa0a6" stroke-width="1.80" />
<line x1="1147.88" y1="573.85" x2="1082.44" y2="479.97" stroke="#9aa0a6" stroke-width="1.11" />
<line x1="992.99" y1="791.52" x2="1006.19" y2="867.99" stroke="#9aa0a6" stroke-width="1.47" />
<line x1="992.99" y1="791.52" x2="1028.26" y2="745.99" stroke="#9aa0a6" stroke-width="1.56" />
<line x1="1077.99" y1="337.91" x2="1105.46" y2="246.54" stroke="#9aa0a6" stroke-width="1.32" />
<line x1="1077.99" y1="337.91" x2="1003.62" y2="409.50" stroke="#9aa0a6" stroke-width="1.15" />
<line x1="930.67" y1="570.79" x2="968.58" y2="490.13" stroke="#9aa0a6" stroke-width="1.35" />
<line x1="930.67" y1="570.79" x2="899.20" y2="613.46" stroke="#9aa0a6" stroke-width="1.60" />
<line x1="378.27" y1="1106.62" x2="431.77" y2="1054.10" stroke="#9aa0a6" stroke-width="1.39" />
<line x1="378.27" y1="1106.62" x2="334.90" y2="1140.58" stroke="#9aa0a6" stroke-width="1.54" />
<line x1="873.85" y1="40.00" x2="889.68" y2="65.33" stroke="#9aa0a6" stroke-width="1.79" />
<line x1="1105.46" y1="246.54" x2="1158.06" y2="167.00" stroke="#9aa0a6" stroke-width="1.27" />
<line x1="453.84" y1="1096.93" x2="508.14" y2="1090.81" stroke="#9aa0a6" stroke-width="1.50" />
<line x1="453.84" y1="1096.93" x2="435.17" y2="1140.12" stroke="#9aa0a6" stroke-width="1.67" />
<line x1="431.77" y1="1054.10" x2="472.70" y2="1032.67" stroke="#9aa0a6" stroke-width="1.60" />
<line x1="849.22" y1="264.89" x2="897.98" y2="214.89" stroke="#9aa0a6" stroke-width="1.44" />
<line x1="849.22" y1="264.89" x2="781.47" y2="316.69" stroke="#9aa0a6" stroke-width="1.28" />
<line x1="1034.19" y1="102.77" x2="1080.30" y2="75.81" stroke="#9aa0a6" stroke-width="1.54" />
<line x1="961.22" y1="154.77" x2="923.24" y2="86.02" stroke="#9aa0a6" stroke-width="1.41" />
<line x1="961.22" y1="154.77" x2="939.64" y2="197.50" stroke="#9aa0a6" stroke-width="1.66" />
<line x1="862.80" y1="879.75" x2="800.01" y2="794.09" stroke="#9aa0a6" stroke-width="1.17" />
<line x1="862.80" y1="879.75" x2="882.48" y2="942.81" stroke="#9aa0a6" stroke-width="1.54" />
<line x1="862.80" y1="879.75" x2="849.22" y2="846.09" stroke="#9aa0a6" stroke-width="1.75" />
<line x1="862.80" y1="879.75" x2="823.77" y2="898.09" stroke="#9aa0a6" stroke-width="1.63" />
<line x1="862.80" y1="879.75" x2="883.16" y2="855.27" stroke="#9aa0a6" stroke-width="1.76" />
<line x1="889.68" y1="65.33" x2="923.24" y2="86.02" stroke="#9aa0a6" stroke-width="1.67" />
<line x1="964.62" y1="641.15" x2="938.66" y2="660.44" stroke="#9aa0a6" stroke-width="1.74" />
<line x1="964.62" y1="641.15" x2="966.31" y2="699.27" stroke="#9aa0a6" stroke-width="1.61" />
<line x1="964.62" y1="641.15" x2="966.31" y2="564.67" stroke="#9aa0a6" stroke-width="1.48" />
<line x1="560.75" y1="1005.15" x2="507.95" y2="994.39" stroke="#9aa0a6" stroke-width="1.51" />
<line x1="560.75" y1="1005.15" x2="533.59" y2="1081.63" stroke="#9aa0a6" stroke-width="1.42" />
<line x1="560.75" y1="1005.15" x2="507.97" y2="908.29" stroke="#9aa0a6" stroke-width="1.17" />
<line x1="927.28" y1="479.02" x2="910.87" y2="470.58" stroke="#9aa0a6" stroke-width="1.86" />
<line x1="927.28" y1="479.02" x2="968.58" y2="490.13" stroke="#9aa0a6" stroke-width="1.62" />
<line x1="258.01" y1="1198.48" x2="309.59" y2="1210.11" stroke="#9aa0a6" stroke-width="1.52" />
<line x1="255.30" y1="1271.29" x2="88.39" y2="1304.65" stroke="#9aa0a6" stroke-width="0.40" />
<line x1="800.01" y1="794.09" x2="755.89" y2="708.44" stroke="#9aa0a6" stroke-width="1.28" />
<line x1="800.01" y1="794.09" x2="753.86" y2="740.86" stroke="#9aa0a6" stroke-width="1.44" />
<line x1="800.01" y1="794.09" x2="742.32" y2="870.56" stroke="#9aa0a6" stroke-width="1.25" />
<line x1="800.01" y1="794.09" x2="849.22" y2="846.09" stroke="#9aa0a6" stroke-width="1.42" />
<line x1="800.01" y1="794.09" x2="852.40" y2="738.18" stroke="#9aa0a6" stroke-width="1.38" />
<line x1="899.45" y1="989.25" x2="882.48" y2="942.81" stroke="#9aa0a6" stroke-width="1.66" />
<line x1="899.45" y1="989.25" x2="851.92" y2="1011.49" stroke="#9aa0a6" stroke-width="1.54" />
<line x1="772.86" y1="463.73" x2="738.92" y2="512.67" stroke="#9aa0a6" stroke-width="1.55" />
<line x1="772.86" y1="463.73" x2="813.58" y2="411.73" stroke="#9aa0a6" stroke-width="1.49" />
<line x1="738.92" y1="512.67" x2="697.73" y2="463.57" stroke="#9aa0a6" stroke-width="1.50" />
<line x1="1153.32" y1="604.71" x2="1104.66" y2="644.35" stroke="#9aa0a6" stroke-width="1.48" />
<line x1="674.44" y1="671.74" x2="739.94" y2="663.01" stroke="#9aa0a6" stroke-width="1.39" />
<line x1="674.44" y1="671.74" x2="698.21" y2="699.35" stroke="#9aa0a6" stroke-width="1.72" />
<line x1="674.44" y1="671.74" x2="589.66" y2="753.00" stroke="#9aa0a6" stroke-width="1.03" />
<line x1="938.66" y1="660.44" x2="891.67" y2="687.82" stroke="#9aa0a6" stroke-width="1.53" />
<line x1="710.07" y1="912.17" x2="742.32" y2="870.56" stroke="#9aa0a6" stroke-width="1.60" />
<line x1="710.07" y1="912.17" x2="677.80" y2="968.61" stroke="#9aa0a6" stroke-width="1.52" />
<line x1="507.95" y1="994.39" x2="472.70" y2="1032.67" stroke="#9aa0a6" stroke-width="1.59" />
<line x1="1120.73" y1="139.47" x2="1158.06" y2="167.00" stroke="#9aa0a6" stroke-width="1.62" />
<line x1="1120.73" y1="139.47" x2="1080.30" y2="75.81" stroke="#9aa0a6" stroke-width="1.43" />
<line x1="735.53" y1="1014.34" x2="701.59" y2="1008.22" stroke="#9aa0a6" stroke-width="1.70" />
<line x1="735.53" y1="1014.34" x2="676.13" y2="1093.87" stroke="#9aa0a6" stroke-width="1.22" />
<line x1="735.53" y1="1014.34" x2="804.83" y2="1011.35" stroke="#9aa0a6" stroke-width="1.36" />
<line x1="735.53" y1="1014.34" x2="767.77" y2="968.45" stroke="#9aa0a6" stroke-width="1.58" />
<line x1="735.53" y1="1014.34" x2="712.53" y2="973.22" stroke="#9aa0a6" stroke-width="1.66" />
<line x1="587.33" y1="1209.74" x2="552.19" y2="1167.81" stroke="#9aa0a6" stroke-width="1.57" />
<line x1="587.33" y1="1209.74" x2="620.15" y2="1167.65" stroke="#9aa0a6" stroke-width="1.59" />
<line x1="587.33" y1="1209.74" x2="533.59" y2="1081.63" stroke="#9aa0a6" stroke-width="0.98" />
<line x1="942.21" y1="394.59" x2="968.58" y2="490.13" stroke="#9aa0a6" stroke-width="1.30" />
<line x1="942.21" y1="394.59" x2="993.11" y2="342.49" stroke="#9aa0a6" stroke-width="1.41" />
<line x1="508.14" y1="1090.81" x2="533.59" y2="1081.63" stroke="#9aa0a6" stroke-width="1.77" />
<line x1="1158.06" y1="167.00" x2="1095.96" y2="174.30" stroke="#9aa0a6" stroke-width="1.43" />
<line x1="755.89" y1="708.44" x2="739.94" y2="663.01" stroke="#9aa0a6" stroke-width="1.67" />
<line x1="309.59" y1="1210.11" x2="334.90" y2="1140.58" stroke="#9aa0a6" stroke-width="1.47" />
<line x1="966.31" y1="699.27" x2="964.62" y2="797.16" stroke="#9aa0a6" stroke-width="1.33" />
<line x1="552.19" y1="1167.81" x2="500.60" y2="1166.43" stroke="#9aa0a6" stroke-width="1.53" />
<line x1="1252.75" y1="290.41" x2="1279.31" y2="248.89" stroke="#9aa0a6" stroke-width="1.64" />
<line x1="1252.75" y1="290.41" x2="1217.41" y2="348.42" stroke="#9aa0a6" stroke-width="1.49" />
<line x1="753.86" y1="740.86" x2="724.90" y2="721.40" stroke="#9aa0a6" stroke-width="1.71" />
<line x1="753.86" y1="740.86" x2="723.50" y2="725.32" stroke="#9aa0a6" stroke-width="1.71" />
<line x1="865.17" y1="797.68" x2="849.22" y2="846.09" stroke="#9aa0a6" stroke-width="1.65" />
<line x1="865.17" y1="797.68" x2="852.40" y2="738.18" stroke="#9aa0a6" stroke-width="1.58" />
<line x1="889.46" y1="559.31" x2="739.94" y2="663.01" stroke="#9aa0a6" stroke-width="0.41" />
<line x1="889.46" y1="559.31" x2="910.87" y2="470.58" stroke="#9aa0a6" stroke-width="1.36" />
<line x1="889.46" y1="559.31" x2="910.87" y2="470.58" stroke="#9aa0a6" stroke-width="1.36" />
<line x1="813.58" y1="411.73" x2="851.70" y2="402.77" stroke="#9aa0a6" stroke-width="1.65" />
<line x1="701.59" y1="1008.22" x2="657.47" y2="1008.22" stroke="#9aa0a6" stroke-width="1.60" />
<line x1="620.15" y1="1167.65" x2="676.13" y2="1093.87" stroke="#9aa0a6" stroke-width="1.27" />
<line x1="915.40" y1="916.45" x2="883.16" y2="855.27" stroke="#9aa0a6" stroke-width="1.49" />
<line x1="820.38" y1="674.79" x2="852.40" y2="738.18" stroke="#9aa0a6" stroke-width="1.48" />
<line x1="966.31" y1="488.20" x2="910.87" y2="470.58" stroke="#9aa0a6" stroke-width="1.48" />
<line x1="966.31" y1="488.20" x2="968.58" y2="490.13" stroke="#9aa0a6" stroke-width="2.00" />
<line x1="656.00" y1="761.67" x2="623.94" y2="759.74" stroke="#9aa0a6" stroke-width="1.72" />
<line x1="656.00" y1="761.67" x2="697.02" y2="751.05" stroke="#9aa0a6" stroke-width="1.62" />
<line x1="1082.44" y1="479.97" x2="1035.88" y2="543.26" stroke="#9aa0a6" stroke-width="1.39" />
<line x1="1082.44" y1="479.97" x2="1107.09" y2="405.46" stroke="#9aa0a6" stroke-width="1.44" />
<line x1="626.64" y1="909.23" x2="596.74" y2="868.66" stroke="#9aa0a6" stroke-width="1.62" />
<line x1="626.64" y1="909.23" x2="656.28" y2="934.07" stroke="#9aa0a6" stroke-width="1.69" />
<line x1="739.94" y1="663.01" x2="711.32" y2="607.81" stroke="#9aa0a6" stroke-width="1.55" />
<line x1="623.94" y1="759.74" x2="589.66" y2="753.00" stroke="#9aa0a6" stroke-width="1.69" />
<line x1="1028.26" y1="745.99" x2="1062.01" y2="700.42" stroke="#9aa0a6" stroke-width="1.57" />
<line x1="882.65" y1="325.77" x2="910.87" y2="470.58" stroke="#9aa0a6" stroke-width="0.96" />
<line x1="882.65" y1="325.77" x2="915.49" y2="254.81" stroke="#9aa0a6" stroke-width="1.43" />
<line x1="910.87" y1="470.58" x2="891.60" y2="403.89" stroke="#9aa0a6" stroke-width="1.52" />
<line x1="596.74" y1="868.66" x2="549.22" y2="889.18" stroke="#9aa0a6" stroke-width="1.55" />
<line x1="642.20" y1="1029.63" x2="657.47" y2="1008.22" stroke="#9aa0a6" stroke-width="1.81" />
<line x1="642.20" y1="1029.63" x2="603.17" y2="1081.75" stroke="#9aa0a6" stroke-width="1.50" />
<line x1="40.00" y1="1203.92" x2="88.39" y2="1304.65" stroke="#9aa0a6" stroke-width="1.17" />
<line x1="708.92" y1="405.10" x2="735.87" y2="347.82" stroke="#9aa0a6" stroke-width="1.54" />
<line x1="708.92" y1="405.10" x2="697.73" y2="463.57" stroke="#9aa0a6" stroke-width="1.60" />
<line x1="923.96" y1="733.37" x2="891.67" y2="687.82" stroke="#9aa0a6" stroke-width="1.58" />
<line x1="923.96" y1="733.37" x2="897.48" y2="792.24" stroke="#9aa0a6" stroke-width="1.54" />
<line x1="735.87" y1="347.82" x2="781.47" y2="316.69" stroke="#9aa0a6" stroke-width="1.53" />
<line x1="697.02" y1="751.05" x2="723.50" y2="725.32" stroke="#9aa0a6" stroke-width="1.71" />
<line x1="966.31" y1="564.67" x2="968.58" y2="490.13" stroke="#9aa0a6" stroke-width="1.49" />
<line x1="1003.62" y1="409.50" x2="968.58" y2="490.13" stroke="#9aa0a6" stroke-width="1.36" />
<line x1="698.21" y1="699.35" x2="724.90" y2="721.40" stroke="#9aa0a6" stroke-width="1.72" />
<line x1="549.22" y1="889.18" x2="507.97" y2="908.29" stroke="#9aa0a6" stroke-width="1.61" />
<line x1="851.92" y1="1011.49" x2="804.83" y2="1011.35" stroke="#9aa0a6" stroke-width="1.57" />
<line x1="851.92" y1="1011.49" x2="821.60" y2="966.14" stroke="#9aa0a6" stroke-width="1.59" />
<line x1="849.22" y1="846.09" x2="897.48" y2="792.24" stroke="#9aa0a6" stroke-width="1.42" />
<line x1="849.22" y1="846.09" x2="823.77" y2="898.09" stroke="#9aa0a6" stroke-width="1.58" />
<line x1="849.22" y1="846.09" x2="883.16" y2="855.27" stroke="#9aa0a6" stroke-width="1.69" />
<line x1="685.53" y1="543.17" x2="711.32" y2="607.81" stroke="#9aa0a6" stroke-width="1.50" />
<line x1="685.53" y1="543.17" x2="697.73" y2="463.57" stroke="#9aa0a6" stroke-width="1.45" />
<line x1="656.28" y1="934.07" x2="677.80" y2="968.61" stroke="#9aa0a6" stroke-width="1.70" />
<line x1="657.47" y1="1008.22" x2="677.80" y2="968.61" stroke="#9aa0a6" stroke-width="1.68" />
<line x1="1062.01" y1="700.42" x2="1104.66" y2="644.35" stroke="#9aa0a6" stroke-width="1.45" />
<line x1="545.58" y1="749.57" x2="589.66" y2="753.00" stroke="#9aa0a6" stroke-width="1.60" />
<line x1="767.77" y1="968.45" x2="794.92" y2="931.75" stroke="#9aa0a6" stroke-width="1.66" />
<line x1="897.98" y1="214.89" x2="939.64" y2="197.50" stroke="#9aa0a6" stroke-width="1.61" />
<line x1="891.67" y1="687.82" x2="899.20" y2="613.46" stroke="#9aa0a6" stroke-width="1.49" />
<line x1="891.67" y1="687.82" x2="852.40" y2="738.18" stroke="#9aa0a6" stroke-width="1.50" />
<line x1="603.17" y1="1081.75" x2="533.59" y2="1081.63" stroke="#9aa0a6" stroke-width="1.36" />
<line x1="993.11" y1="342.49" x2="990.47" y2="269.24" stroke="#9aa0a6" stroke-width="1.50" />
<line x1="821.60" y1="966.14" x2="823.77" y2="898.09" stroke="#9aa0a6" stroke-width="1.54" />
<line x1="677.80" y1="968.61" x2="712.53" y2="973.22" stroke="#9aa0a6" stroke-width="1.69" />
<line x1="589.66" y1="753.00" x2="507.97" y2="908.29" stroke="#9aa0a6" stroke-width="0.67" />
<line x1="990.47" y1="269.24" x2="1005.55" y2="194.04" stroke="#9aa0a6" stroke-width="1.47" />
<line x1="939.64" y1="197.50" x2="915.49" y2="254.81" stroke="#9aa0a6" stroke-width="1.56" />
<line x1="823.77" y1="898.09" x2="794.92" y2="931.75" stroke="#9aa0a6" stroke-width="1.66" />
<line x1="851.70" y1="402.77" x2="891.60" y2="403.89" stroke="#9aa0a6" stroke-width="1.64" />
</g>
<g>
<circle cx="833.95" cy="607.49" r="2.20" fill="#1f2937" />
<circle cx="345.69" cy="1252.36" r="2.20" fill="#1f2937" />
<circle cx="922.19" cy="830.80" r="2.20" fill="#1f2937" />
<circle cx="1149.92" cy="372.57" r="2.20" fill="#1f2937" />
<circle cx="453.50" cy="1198.48" r="3.20" fill="#b91c1c" />
<circle cx="671.04" cy="671.74" r="2.20" fill="#1f2937" />
<circle cx="1008.73" cy="586.08" r="2.20" fill="#1f2937" />
<circle cx="612.33" cy="1000.26" r="2.20" fill="#1f2937" />
<circle cx="1360.00" cy="167.00" r="2.20" fill="#1f2937" />
<circle cx="958.34" cy="928.98" r="2.20" fill="#1f2937" />
<circle cx="1047.76" cy="203.72" r="2.20" fill="#1f2937" />
<circle cx="508.14" cy="1271.29" r="2.20" fill="#1f2937" />
<circle cx="1147.88" cy="573.85" r="2.20" fill="#1f2937" />
<circle cx="992.99" cy="791.52" r="2.20" fill="#1f2937" />
<circle cx="1077.99" cy="337.91" r="2.20" fill="#1f2937" />
<circle cx="930.67" cy="570.79" r="2.20" fill="#1f2937" />
<circle cx="378.27" cy="1106.62" r="2.20" fill="#1f2937" />
<circle cx="873.85" cy="40.00" r="2.20" fill="#1f2937" />
<circle cx="1105.46" cy="246.54" r="2.20" fill="#1f2937" />
<circle cx="453.84" cy="1096.93" r="2.20" fill="#1f2937" />
<circle cx="431.77" cy="1054.10" r="2.20" fill="#1f2937" />
<circle cx="849.22" cy="264.89" r="2.20" fill="#1f2937" />
<circle cx="1034.19" cy="102.77" r="2.20" fill="#1f2937" />
<circle cx="961.22" cy="154.77" r="2.20" fill="#1f2937" />
<circle cx="862.80" cy="879.75" r="3.20" fill="#b91c1c" />
<circle cx="889.68" cy="65.33" r="2.20" fill="#1f2937" />
<circle cx="1006.19" cy="867.99" r="2.20" fill="#1f2937" />
<circle cx="964.62" cy="641.15" r="3.20" fill="#b91c1c" />
<circle cx="560.75" cy="1005.15" r="3.20" fill="#b91c1c" />
<circle cx="927.28" cy="479.02" r="2.20" fill="#1f2937" />
<circle cx="258.01" cy="1198.48" r="2.20" fill="#1f2937" />
<circle cx="255.30" cy="1271.29" r="2.20" fill="#1f2937" />
<circle cx="800.01" cy="794.09" r="3.20" fill="#b91c1c" />
<circle cx="899.45" cy="989.25" r="2.20" fill="#1f2937" />
<circle cx="772.86" cy="463.73" r="2.20" fill="#1f2937" />
<circle cx="738.92" cy="512.67" r="2.20" fill="#1f2937" />
<circle cx="1153.32" cy="604.71" r="2.20" fill="#1f2937" />
<circle cx="674.44" cy="671.74" r="3.20" fill="#b91c1c" />
<circle cx="938.66" cy="660.44" r="2.20" fill="#1f2937" />
<circle cx="710.07" cy="912.17" r="2.20" fill="#1f2937" />
<circle cx="507.95" cy="994.39" r="2.20" fill="#1f2937" />
<circle cx="1120.73" cy="139.47" r="2.20" fill="#1f2937" />
<circle cx="735.53" cy="1014.34" r="3.20" fill="#b91c1c" />
<circle cx="587.33" cy="1209.74" r="3.20" fill="#b91c1c" />
<circle cx="942.21" cy="394.59" r="2.20" fill="#1f2937" />
<circle cx="508.14" cy="1090.81" r="2.20" fill="#1f2937" />
<circle cx="1158.06" cy="167.00" r="3.20" fill="#b91c1c" />
<circle cx="755.89" cy="708.44" r="2.20" fill="#1f2937" />
<circle cx="309.59" cy="1210.11" r="2.20" fill="#1f2937" />
<circle cx="966.31" cy="699.27" r="2.20" fill="#1f2937" />
<circle cx="552.19" cy="1167.81" r="2.20" fill="#1f2937" />
<circle cx="1252.75" cy="290.41" r="2.20" fill="#1f2937" />
<circle cx="753.86" cy="740.86" r="3.20" fill="#b91c1c" />
<circle cx="865.17" cy="797.68" r="2.20" fill="#1f2937" />
<circle cx="889.46" cy="559.31" r="2.20" fill="#1f2937" />
<circle cx="889.46" cy="559.31" r="2.20" fill="#1f2937" />
<circle cx="813.58" cy="411.73" r="2.20" fill="#1f2937" />
<circle cx="742.32" cy="870.56" r="2.20" fill="#1f2937" />
<circle cx="467.41" cy="1360.00" r="2.20" fill="#1f2937" />
<circle cx="701.59" cy="1008.22" r="2.20" fill="#1f2937" />
<circle cx="620.15" cy="1167.65" r="2.20" fill="#1f2937" />
<circle cx="915.40" cy="916.45" r="2.20" fill="#1f2937" />
<circle cx="820.38" cy="674.79" r="2.20" fill="#1f2937" />
<circle cx="966.31" cy="488.20" r="2.20" fill="#1f2937" />
<circle cx="656.00" cy="761.67" r="2.20" fill="#1f2937" />
<circle cx="1082.44" cy="479.97" r="3.20" fill="#b91c1c" />
<circle cx="626.64" cy="909.23" r="2.20" fill="#1f2937" />
<circle cx="739.94" cy="663.01" r="3.20" fill="#b91c1c" />
<circle cx="623.94" cy="759.74" r="2.20" fill="#1f2937" />
<circle cx="882.48" cy="942.81" r="2.20" fill="#1f2937" />
<circle cx="1028.26" cy="745.99" r="2.20" fill="#1f2937" />
<circle cx="882.65" cy="325.77" r="2.20" fill="#1f2937" />
<circle cx="676.13" cy="1093.87" r="2.20" fill="#1f2937" />
<circle cx="910.87" cy="470.58" r="3.20" fill="#b91c1c" />
<circle cx="596.74" cy="868.66" r="2.20" fill="#1f2937" />
<circle cx="964.62" cy="797.16" r="2.20" fill="#1f2937" />
<circle cx="642.20" cy="1029.63" r="2.20" fill="#1f2937" />
<circle cx="40.00" cy="1203.92" r="2.20" fill="#1f2937" />
<circle cx="708.92" cy="405.10" r="2.20" fill="#1f2937" />
<circle cx="923.96" cy="733.37" r="2.20" fill="#1f2937" />
<circle cx="735.87" cy="347.82" r="2.20" fill="#1f2937" />
<circle cx="697.02" cy="751.05" r="2.20" fill="#1f2937" />
<circle cx="966.31" cy="564.67" r="2.20" fill="#1f2937" />
<circle cx="1003.62" cy="409.50" r="2.20" fill="#1f2937" />
<circle cx="698.21" cy="699.35" r="2.20" fill="#1f2937" />
<circle cx="549.22" cy="889.18" r="2.20" fill="#1f2937" />
<circle cx="851.92" cy="1011.49" r="3.20" fill="#b91c1c" />
<circle cx="849.22" cy="846.09" r="3.20" fill="#b91c1c" />
<circle cx="685.53" cy="543.17" r="2.20" fill="#1f2937" />
<circle cx="1279.31" cy="248.89" r="2.20" fill="#1f2937" />
<circle cx="656.28" cy="934.07" r="2.20" fill="#1f2937" />
<circle cx="657.47" cy="1008.22" r="3.20" fill="#b91c1c" />
<circle cx="724.90" cy="721.40" r="2.20" fill="#1f2937" />
<circle cx="1062.01" cy="700.42" r="2.20" fill="#1f2937" />
<circle cx="804.83" cy="1011.35" r="2.20" fill="#1f2937" />
<circle cx="472.70" cy="1032.67" r="2.20" fill="#1f2937" />
<circle cx="435.17" cy="1140.12" r="2.20" fill="#1f2937" />
<circle cx="545.58" cy="749.57" r="2.20" fill="#1f2937" />
<circle cx="767.77" cy="968.45" r="2.20" fill="#1f2937" />
<circle cx="897.98" cy="214.89" r="2.20" fill="#1f2937" />
<circle cx="891.67" cy="687.82" r="3.20" fill="#b91c1c" />
<circle cx="968.58" cy="490.13" r="3.20" fill="#b91c1c" />
<circle cx="1095.96" cy="174.30" r="2.20" fill="#1f2937" />
<circle cx="603.17" cy="1081.75" r="2.20" fill="#1f2937" />
<circle cx="993.11" cy="342.49" r="2.20" fill="#1f2937" />
<circle cx="821.60" cy="966.14" r="2.20" fill="#1f2937" />
<circle cx="88.39" cy="1304.65" r="2.20" fill="#1f2937" />
<circle cx="723.50" cy="725.32" r="2.20" fill="#1f2937" />
<circle cx="334.90" cy="1140.58" r="2.20" fill="#1f2937" />
<circle cx="500.60" cy="1166.43" r="2.20" fill="#1f2937" />
<circle cx="1035.88" cy="543.26" r="2.20" fill="#1f2937" />
<circle cx="899.20" cy="613.46" r="2.20" fill="#1f2937" />
<circle cx="1217.41" cy="348.42" r="2.20" fill="#1f2937" />
<circle cx="677.80" cy="968.61" r="3.20" fill="#b91c1c" />
<circle cx="589.66" cy="753.00" r="3.20" fill="#b91c1c" />
<circle cx="1104.66" cy="644.35" r="2.20" fill="#1f2937" />
<circle cx="1080.30" cy="75.81" r="2.20" fill="#1f2937" />
<circle cx="712.53" cy="973.22" r="2.20" fill="#1f2937" />
<circle cx="897.48" cy="792.24" r="2.20" fill="#1f2937" />
<circle cx="990.47" cy="269.24" r="2.20" fill="#1f2937" />
<circle cx="533.59" cy="1081.63" r="3.20" fill="#b91c1c" />
<circle cx="923.24" cy="86.02" r="2.20" fill="#1f2937" />
<circle cx="939.64" cy="197.50" r="3.20" fill="#b91c1c" />
<circle cx="1005.55" cy="194.04" r="2.20" fill="#1f2937" />
<circle cx="823.77" cy="898.09" r="3.20" fill="#b91c1c" />
<circle cx="794.92" cy="931.75" r="2.20" fill="#1f2937" />
<circle cx="883.16" cy="855.27" r="3.20" fill="#b91c1c" />
<circle cx="711.32" cy="607.81" r="2.20" fill="#1f2937" />
<circle cx="781.47" cy="316.69" r="2.20" fill="#1f2937" />
<circle cx="697.73" cy="463.57" r="2.20" fill="#1f2937" />
<circle cx="852.40" cy="738.18" r="3.20" fill="#b91c1c" />
<circle cx="1107.09" cy="405.46" r="2.20" fill="#1f2937" />
<circle cx="915.49" cy="254.81" r="2.20" fill="#1f2937" />
<circle cx="851.70" cy="402.77" r="2.20" fill="#1f2937" />
<circle cx="891.60" cy="403.89" r="2.20" fill="#1f2937" />
<circle cx="507.97" cy="908.29" r="2.20" fill="#1f2937" />
<g font-family="Arial, sans-serif" font-size="10" fill="#111827">
<text x="804.01" y="790.09">33:DiagonalProvenca</text>
<text x="914.87" y="466.58">74:Maragall</text>
<text x="853.22" y="842.09">88:PasseigdeGracia</text>
<text x="972.58" y="486.13">102:Sagrera</text>
<text x="866.80" y="875.75">25:Catalunya</text>
<text x="739.53" y="1010.34">43:Espanya</text>
<text x="856.40" y="734.18">131:Verdaguer</text>
<text x="457.50" y="1194.48">5:AvingudaCarrilet</text>
<text x="968.62" y="637.15">28:Clot</text>
<text x="564.75" y="1001.15">29:Collblanc</text>
<text x="678.44" y="667.74">38:ElPutxet</text>
<text x="743.94" y="659.01">68:Lesseps</text>
<text x="661.47" y="1004.22">92:PlacadeSants</text>
<text x="895.67" y="683.82">101:SagradaFamilia</text>
<text x="681.80" y="964.61">114:SantsEstacio</text>
<text x="593.66" y="749.00">115:Sarria</text>
<text x="537.59" y="1077.63">121:Torrassa</text>
<text x="827.77" y="894.09">125:Universitat</text>
<text x="887.16" y="851.27">127:Urquinaona</text>
<text x="591.33" y="1205.74">44:Europa-Fira</text>
<text x="1162.06" y="163.00">47:Fondo</text>
<text x="757.86" y="736.86">53:Gracia</text>
<text x="1086.44" y="475.97">66:LaPau</text>
<text x="855.92" y="1007.49">87:Parallel</text>
<text x="943.64" y="193.50">123:TrinitatNova</text>
</g>
</g>
</svg>
