<?xml version="1.0" encoding="UTF-8"?>
<svg xmlns="http://www.w3.org/2000/svg" width="1400" height="1400" viewBox="0 0 1400 1400">
<rect x="0" y="0" width="100%" height="100%" fill="#ffffff" />
<g opacity="0.75">
<line x1="1358.67" y1="55.55" x2="1358.66" y2="55.01" stroke="#9aa0a6" stroke-width="2.00" />
<line x1="1358.63" y1="46.05" x2="1358.74" y2="45.96" stroke="#9aa0a6" stroke-width="2.00" />
<line x1="1358.63" y1="46.05" x2="1358.52" y2="45.97" stroke="#9aa0a6" stroke-width="2.00" />
<line x1="1354.78" y1="42.83" x2="1354.91" y2="43.48" stroke="#9aa0a6" stroke-width="2.00" />
<line x1="1354.78" y1="42.83" x2="1354.52" y2="41.40" stroke="#9aa0a6" stroke-width="2.00" />
<line x1="1357.49" y1="41.75" x2="1357.61" y2="42.47" stroke="#9aa0a6" stroke-width="2.00" />
<line x1="1357.49" y1="41.75" x2="1357.44" y2="41.21" stroke="#9aa0a6" stroke-width="2.00" />
<line x1="1358.15" y1="47.03" x2="1358.22" y2="46.67" stroke="#9aa0a6" stroke-width="2.00" />
<line x1="1358.15" y1="47.03" x2="1358.33" y2="46.71" stroke="#9aa0a6" stroke-width="2.00" />
<line x1="1358.15" y1="47.03" x2="1357.88" y2="47.11" stroke="#9aa0a6" stroke-width="2.00" />
<line x1="1358.19" y1="40.59" x2="1358.32" y2="41.17" stroke="#9aa0a6" stroke-width="2.00" />
<line x1="1358.19" y1="40.59" x2="1358.15" y2="40.16" stroke="#9aa0a6" stroke-width="2.00" />
<line x1="1357.18" y1="56.30" x2="1357.28" y2="57.14" stroke="#9aa0a6" stroke-width="2.00" />
<line x1="1357.18" y1="56.30" x2="1357.06" y2="55.32" stroke="#9aa0a6" stroke-width="2.00" />
<line x1="1356.70" y1="48.63" x2="1356.83" y2="48.68" stroke="#9aa0a6" stroke-width="2.00" />
<line x1="1359.26" y1="47.58" x2="1359.43" y2="47.29" stroke="#9aa0a6" stroke-width="2.00" />
<line x1="1359.26" y1="47.58" x2="1359.13" y2="47.72" stroke="#9aa0a6" stroke-width="2.00" />
<line x1="1359.77" y1="46.48" x2="1359.69" y2="46.77" stroke="#9aa0a6" stroke-width="2.00" />
<line x1="1359.77" y1="46.48" x2="1359.78" y2="46.11" stroke="#9aa0a6" stroke-width="2.00" />
<line x1="1357.56" y1="50.76" x2="1357.58" y2="50.16" stroke="#9aa0a6" stroke-width="2.00" />
<line x1="1357.56" y1="50.76" x2="1357.49" y2="51.43" stroke="#9aa0a6" stroke-width="2.00" />
<line x1="1357.01" y1="50.65" x2="1357.28" y2="50.47" stroke="#9aa0a6" stroke-width="2.00" />
<line x1="1357.01" y1="50.65" x2="1356.80" y2="50.83" stroke="#9aa0a6" stroke-width="2.00" />
<line x1="1357.59" y1="50.39" x2="1357.68" y2="50.71" stroke="#9aa0a6" stroke-width="2.00" />
<line x1="1357.59" y1="50.39" x2="1357.43" y2="49.94" stroke="#9aa0a6" stroke-width="2.00" />
<line x1="1357.30" y1="47.58" x2="1357.19" y2="47.46" stroke="#9aa0a6" stroke-width="2.00" />
<line x1="1357.30" y1="47.58" x2="1357.22" y2="47.89" stroke="#9aa0a6" stroke-width="2.00" />
<line x1="1357.30" y1="47.58" x2="1357.37" y2="48.03" stroke="#9aa0a6" stroke-width="2.00" />
<line x1="1357.30" y1="47.58" x2="1357.47" y2="47.26" stroke="#9aa0a6" stroke-width="2.00" />
<line x1="1358.89" y1="48.03" x2="1358.71" y2="47.82" stroke="#9aa0a6" stroke-width="2.00" />
<line x1="1358.89" y1="48.03" x2="1358.98" y2="48.33" stroke="#9aa0a6" stroke-width="2.00" />
<line x1="1358.89" y1="48.03" x2="40.00" y2="1360.00" stroke="#9aa0a6" stroke-width="0.40" />
<line x1="1358.89" y1="48.03" x2="1358.79" y2="47.54" stroke="#9aa0a6" stroke-width="2.00" />
<line x1="1358.89" y1="48.03" x2="1358.71" y2="47.94" stroke="#9aa0a6" stroke-width="2.00" />
<line x1="1358.89" y1="48.03" x2="1359.14" y2="48.45" stroke="#9aa0a6" stroke-width="2.00" />
<line x1="1358.89" y1="48.03" x2="1359.00" y2="47.85" stroke="#9aa0a6" stroke-width="2.00" />
<line x1="1359.26" y1="48.89" x2="1359.36" y2="49.19" stroke="#9aa0a6" stroke-width="2.00" />
<line x1="1359.26" y1="48.89" x2="1359.14" y2="48.45" stroke="#9aa0a6" stroke-width="2.00" />
<line x1="1357.65" y1="47.79" x2="1357.59" y2="47.54" stroke="#9aa0a6" stroke-width="2.00" />
<line x1="1357.65" y1="47.79" x2="1357.72" y2="48.30" stroke="#9aa0a6" stroke-width="2.00" />
<line x1="1358.32" y1="50.45" x2="1357.88" y2="50.10" stroke="#9aa0a6" stroke-width="2.00" />
<line x1="1358.32" y1="50.45" x2="1358.41" y2="50.31" stroke="#9aa0a6" stroke-width="2.00" />
<line x1="1357.59" y1="47.54" x2="1357.47" y2="47.26" stroke="#9aa0a6" stroke-width="2.00" />
<line x1="1357.78" y1="48.75" x2="1357.74" y2="49.06" stroke="#9aa0a6" stroke-width="2.00" />
<line x1="1357.78" y1="48.75" x2="1357.72" y2="48.30" stroke="#9aa0a6" stroke-width="2.00" />
<line x1="1357.78" y1="48.75" x2="1357.90" y2="48.58" stroke="#9aa0a6" stroke-width="2.00" />
<line x1="1357.78" y1="48.75" x2="1357.77" y2="49.36" stroke="#9aa0a6" stroke-width="2.00" />
<line x1="1357.23" y1="44.71" x2="1357.27" y2="45.16" stroke="#9aa0a6" stroke-width="2.00" />
<line x1="1357.23" y1="44.71" x2="1357.17" y2="44.25" stroke="#9aa0a6" stroke-width="2.00" />
<line x1="1358.44" y1="50.67" x2="1358.41" y2="51.10" stroke="#9aa0a6" stroke-width="2.00" />
<line x1="1358.44" y1="50.67" x2="1358.41" y2="50.31" stroke="#9aa0a6" stroke-width="2.00" />
<line x1="1358.25" y1="45.71" x2="1358.26" y2="45.34" stroke="#9aa0a6" stroke-width="2.00" />
<line x1="1358.25" y1="45.71" x2="1358.19" y2="46.16" stroke="#9aa0a6" stroke-width="2.00" />
<line x1="1357.88" y1="50.10" x2="1357.84" y2="49.76" stroke="#9aa0a6" stroke-width="2.00" />
<line x1="1356.83" y1="53.91" x2="1356.83" y2="53.33" stroke="#9aa0a6" stroke-width="2.00" />
<line x1="1356.83" y1="53.91" x2="1356.89" y2="54.31" stroke="#9aa0a6" stroke-width="2.00" />
<line x1="1358.26" y1="45.34" x2="1358.29" y2="44.61" stroke="#9aa0a6" stroke-width="2.00" />
<line x1="1357.27" y1="45.16" x2="1357.35" y2="45.56" stroke="#9aa0a6" stroke-width="2.00" />
<line x1="1357.37" y1="46.00" x2="1357.36" y2="46.47" stroke="#9aa0a6" stroke-width="2.00" />
<line x1="1357.37" y1="46.00" x2="1357.35" y2="45.56" stroke="#9aa0a6" stroke-width="2.00" />
<line x1="1358.69" y1="46.71" x2="1358.50" y2="46.42" stroke="#9aa0a6" stroke-width="2.00" />
<line x1="1358.69" y1="46.71" x2="1358.76" y2="47.03" stroke="#9aa0a6" stroke-width="2.00" />
<line x1="1357.97" y1="49.61" x2="1357.84" y2="49.76" stroke="#9aa0a6" stroke-width="2.00" />
<line x1="1357.97" y1="49.61" x2="1358.15" y2="49.36" stroke="#9aa0a6" stroke-width="2.00" />
<line x1="1358.04" y1="49.09" x2="1357.92" y2="49.21" stroke="#9aa0a6" stroke-width="2.00" />
<line x1="1358.04" y1="49.09" x2="1358.16" y2="48.91" stroke="#9aa0a6" stroke-width="2.00" />
<line x1="1358.17" y1="48.11" x2="1358.26" y2="48.52" stroke="#9aa0a6" stroke-width="2.00" />
<line x1="1358.17" y1="48.11" x2="1358.11" y2="47.82" stroke="#9aa0a6" stroke-width="2.00" />
<line x1="1359.43" y1="47.29" x2="1359.56" y2="47.07" stroke="#9aa0a6" stroke-width="2.00" />
<line x1="1357.84" y1="49.76" x2="1357.66" y2="50.01" stroke="#9aa0a6" stroke-width="2.00" />
<line x1="1357.84" y1="49.76" x2="1357.77" y2="49.36" stroke="#9aa0a6" stroke-width="2.00" />
<line x1="1358.22" y1="46.67" x2="1358.19" y2="46.16" stroke="#9aa0a6" stroke-width="2.00" />
<line x1="1358.71" y1="47.82" x2="1358.52" y2="47.64" stroke="#9aa0a6" stroke-width="2.00" />
<line x1="1357.33" y1="57.50" x2="1357.28" y2="57.14" stroke="#9aa0a6" stroke-width="2.00" />
<line x1="1357.33" y1="57.50" x2="1357.18" y2="57.81" stroke="#9aa0a6" stroke-width="2.00" />
<line x1="1354.57" y1="54.50" x2="1354.54" y2="53.33" stroke="#9aa0a6" stroke-width="2.00" />
<line x1="1354.57" y1="54.50" x2="1354.60" y2="55.87" stroke="#9aa0a6" stroke-width="2.00" />
<line x1="1359.80" y1="45.26" x2="1359.80" y2="45.71" stroke="#9aa0a6" stroke-width="2.00" />
<line x1="1359.80" y1="45.26" x2="1359.81" y2="44.73" stroke="#9aa0a6" stroke-width="2.00" />
<line x1="1358.66" y1="50.55" x2="1358.75" y2="51.28" stroke="#9aa0a6" stroke-width="2.00" />
<line x1="1358.66" y1="50.55" x2="1358.65" y2="50.00" stroke="#9aa0a6" stroke-width="2.00" />
<line x1="1358.27" y1="47.64" x2="1358.52" y2="47.64" stroke="#9aa0a6" stroke-width="2.00" />
<line x1="1358.27" y1="47.64" x2="1358.11" y2="47.82" stroke="#9aa0a6" stroke-width="2.00" />
<line x1="1359.24" y1="49.62" x2="1359.08" y2="49.89" stroke="#9aa0a6" stroke-width="2.00" />
<line x1="1359.24" y1="49.62" x2="1359.36" y2="49.19" stroke="#9aa0a6" stroke-width="2.00" />
<line x1="1357.19" y1="47.46" x2="1357.15" y2="47.11" stroke="#9aa0a6" stroke-width="2.00" />
<line x1="1357.40" y1="40.72" x2="1357.44" y2="41.21" stroke="#9aa0a6" stroke-width="2.00" />
<line x1="1359.59" y1="42.47" x2="1359.78" y2="42.71" stroke="#9aa0a6" stroke-width="2.00" />
<line x1="1358.75" y1="51.28" x2="1358.60" y2="51.63" stroke="#9aa0a6" stroke-width="2.00" />
<line x1="1357.61" y1="42.47" x2="1357.59" y2="43.07" stroke="#9aa0a6" stroke-width="2.00" />
<line x1="1357.74" y1="44.09" x2="1357.83" y2="44.64" stroke="#9aa0a6" stroke-width="2.00" />
<line x1="1357.74" y1="44.09" x2="1357.65" y2="43.51" stroke="#9aa0a6" stroke-width="2.00" />
<line x1="1357.28" y1="50.47" x2="1357.43" y2="49.94" stroke="#9aa0a6" stroke-width="2.00" />
<line x1="1358.33" y1="46.71" x2="1358.50" y2="46.42" stroke="#9aa0a6" stroke-width="2.00" />
<line x1="1359.88" y1="43.27" x2="1359.78" y2="42.71" stroke="#9aa0a6" stroke-width="2.00" />
<line x1="1359.88" y1="43.27" x2="1360.00" y2="43.88" stroke="#9aa0a6" stroke-width="2.00" />
<line x1="1357.87" y1="47.47" x2="1357.88" y2="47.11" stroke="#9aa0a6" stroke-width="2.00" />
<line x1="1357.87" y1="47.47" x2="1358.03" y2="47.60" stroke="#9aa0a6" stroke-width="2.00" />
<line x1="1356.80" y1="50.83" x2="1356.58" y2="51.21" stroke="#9aa0a6" stroke-width="2.00" />
<line x1="1357.74" y1="49.06" x2="1357.66" y2="49.67" stroke="#9aa0a6" stroke-width="2.00" />
<line x1="1358.19" y1="46.16" x2="1358.09" y2="46.40" stroke="#9aa0a6" stroke-width="2.00" />
<line x1="1358.19" y1="46.16" x2="1358.35" y2="45.92" stroke="#9aa0a6" stroke-width="2.00" />
<line x1="1357.34" y1="49.45" x2="1357.28" y2="48.91" stroke="#9aa0a6" stroke-width="2.00" />
<line x1="1357.34" y1="49.45" x2="1357.43" y2="49.94" stroke="#9aa0a6" stroke-width="2.00" />
<line x1="1359.42" y1="48.88" x2="1359.36" y2="49.19" stroke="#9aa0a6" stroke-width="2.00" />
<line x1="1358.99" y1="45.05" x2="1359.02" y2="45.40" stroke="#9aa0a6" stroke-width="2.00" />
<line x1="1358.99" y1="45.05" x2="1358.96" y2="44.60" stroke="#9aa0a6" stroke-width="2.00" />
<line x1="1358.92" y1="45.79" x2="1358.74" y2="45.96" stroke="#9aa0a6" stroke-width="2.00" />
<line x1="1358.92" y1="45.79" x2="1359.02" y2="45.40" stroke="#9aa0a6" stroke-width="2.00" />
<line x1="1356.96" y1="57.99" x2="1357.18" y2="57.81" stroke="#9aa0a6" stroke-width="2.00" />
<line x1="1356.96" y1="57.99" x2="1356.76" y2="58.16" stroke="#9aa0a6" stroke-width="2.00" />
<line x1="1357.59" y1="43.07" x2="1357.65" y2="43.51" stroke="#9aa0a6" stroke-width="2.00" />
<line x1="1354.91" y1="43.48" x2="1355.25" y2="43.96" stroke="#9aa0a6" stroke-width="2.00" />
<line x1="1354.91" y1="43.48" x2="1354.50" y2="43.43" stroke="#9aa0a6" stroke-width="2.00" />
<line x1="1357.50" y1="48.45" x2="1357.72" y2="48.30" stroke="#9aa0a6" stroke-width="2.00" />
<line x1="1357.50" y1="48.45" x2="1357.37" y2="48.03" stroke="#9aa0a6" stroke-width="2.00" />
<line x1="1357.50" y1="48.45" x2="1357.27" y2="48.54" stroke="#9aa0a6" stroke-width="2.00" />
<line x1="1358.29" y1="44.61" x2="1358.26" y2="43.88" stroke="#9aa0a6" stroke-width="2.00" />
<line x1="1358.63" y1="54.54" x2="1358.66" y2="55.01" stroke="#9aa0a6" stroke-width="2.00" />
<line x1="1358.63" y1="54.54" x2="1358.60" y2="53.99" stroke="#9aa0a6" stroke-width="2.00" />
<line x1="1357.92" y1="49.21" x2="1357.77" y2="49.36" stroke="#9aa0a6" stroke-width="2.00" />
<line x1="1357.72" y1="48.30" x2="1357.93" y2="48.03" stroke="#9aa0a6" stroke-width="2.00" />
<line x1="1357.24" y1="51.94" x2="1357.08" y2="52.45" stroke="#9aa0a6" stroke-width="2.00" />
<line x1="1357.24" y1="51.94" x2="1357.49" y2="51.43" stroke="#9aa0a6" stroke-width="2.00" />
<line x1="1359.69" y1="46.77" x2="1359.56" y2="47.07" stroke="#9aa0a6" stroke-width="2.00" />
<line x1="1357.22" y1="47.89" x2="1357.27" y2="48.54" stroke="#9aa0a6" stroke-width="2.00" />
<line x1="1359.08" y1="49.89" x2="1358.84" y2="49.87" stroke="#9aa0a6" stroke-width="2.00" />
<line x1="1355.85" y1="52.15" x2="1355.08" y2="52.44" stroke="#9aa0a6" stroke-width="2.00" />
<line x1="1355.85" y1="52.15" x2="1356.10" y2="51.66" stroke="#9aa0a6" stroke-width="2.00" />
<line x1="1359.80" y1="45.71" x2="1359.78" y2="46.11" stroke="#9aa0a6" stroke-width="2.00" />
<line x1="1358.90" y1="48.80" x2="1358.98" y2="48.33" stroke="#9aa0a6" stroke-width="2.00" />
<line x1="1358.90" y1="48.80" x2="40.00" y2="1360.00" stroke="#9aa0a6" stroke-width="0.40" />
<line x1="1358.90" y1="48.80" x2="1358.85" y2="49.21" stroke="#9aa0a6" stroke-width="2.00" />
<line x1="1358.90" y1="48.80" x2="1358.77" y2="48.89" stroke="#9aa0a6" stroke-width="2.00" />
<line x1="1357.36" y1="46.81" x2="1357.36" y2="46.47" stroke="#9aa0a6" stroke-width="2.00" />
<line x1="1357.36" y1="46.81" x2="1357.47" y2="47.26" stroke="#9aa0a6" stroke-width="2.00" />
<line x1="1358.26" y1="48.52" x2="1358.29" y2="48.80" stroke="#9aa0a6" stroke-width="2.00" />
<line x1="1357.08" y1="52.45" x2="1356.93" y2="52.89" stroke="#9aa0a6" stroke-width="2.00" />
<line x1="1358.35" y1="52.01" x2="1358.48" y2="53.02" stroke="#9aa0a6" stroke-width="2.00" />
<line x1="1358.35" y1="52.01" x2="1358.41" y2="51.10" stroke="#9aa0a6" stroke-width="2.00" />
<line x1="1358.74" y1="49.66" x2="1358.85" y2="49.21" stroke="#9aa0a6" stroke-width="2.00" />
<line x1="1358.74" y1="49.66" x2="1358.65" y2="50.00" stroke="#9aa0a6" stroke-width="2.00" />
<line x1="1356.90" y1="46.26" x2="1356.67" y2="46.13" stroke="#9aa0a6" stroke-width="2.00" />
<line x1="1356.90" y1="46.26" x2="1357.05" y2="46.50" stroke="#9aa0a6" stroke-width="2.00" />
<line x1="1357.68" y1="50.71" x2="1357.66" y2="51.22" stroke="#9aa0a6" stroke-width="2.00" />
<line x1="1359.36" y1="49.19" x2="1359.75" y2="49.29" stroke="#9aa0a6" stroke-width="2.00" />
<line x1="1357.03" y1="48.83" x2="1356.83" y2="48.68" stroke="#9aa0a6" stroke-width="2.00" />
<line x1="1357.03" y1="48.83" x2="1357.27" y2="48.54" stroke="#9aa0a6" stroke-width="2.00" />
<line x1="1358.15" y1="49.36" x2="1358.32" y2="49.20" stroke="#9aa0a6" stroke-width="2.00" />
<line x1="1358.48" y1="53.02" x2="1358.60" y2="53.99" stroke="#9aa0a6" stroke-width="2.00" />
<line x1="1358.29" y1="48.80" x2="1358.16" y2="48.91" stroke="#9aa0a6" stroke-width="2.00" />
<line x1="1358.29" y1="48.80" x2="1358.32" y2="49.20" stroke="#9aa0a6" stroke-width="2.00" />
<line x1="1358.29" y1="48.80" x2="1358.48" y2="48.56" stroke="#9aa0a6" stroke-width="2.00" />
<line x1="1355.25" y1="43.96" x2="1355.92" y2="45.00" stroke="#9aa0a6" stroke-width="2.00" />
<line x1="1356.60" y1="58.29" x2="1356.76" y2="58.16" stroke="#9aa0a6" stroke-width="2.00" />
<line x1="1359.13" y1="47.72" x2="1359.00" y2="47.85" stroke="#9aa0a6" stroke-width="2.00" />
<line x1="1357.01" y1="43.89" x2="1357.17" y2="44.25" stroke="#9aa0a6" stroke-width="2.00" />
<line x1="1357.01" y1="43.89" x2="1356.85" y2="43.95" stroke="#9aa0a6" stroke-width="2.00" />
<line x1="1358.52" y1="48.88" x2="1358.32" y2="49.20" stroke="#9aa0a6" stroke-width="2.00" />
<line x1="1358.52" y1="48.88" x2="1358.77" y2="48.89" stroke="#9aa0a6" stroke-width="2.00" />
<line x1="1355.92" y1="45.00" x2="1356.41" y2="45.72" stroke="#9aa0a6" stroke-width="2.00" />
<line x1="1358.96" y1="44.21" x2="1358.97" y2="43.88" stroke="#9aa0a6" stroke-width="2.00" />
<line x1="1358.96" y1="44.21" x2="1358.96" y2="44.60" stroke="#9aa0a6" stroke-width="2.00" />
<line x1="1354.65" y1="40.75" x2="1354.52" y2="41.40" stroke="#9aa0a6" stroke-width="2.00" />
<line x1="1357.62" y1="40.04" x2="1357.93" y2="40.00" stroke="#9aa0a6" stroke-width="2.00" />
<line x1="1358.09" y1="46.40" x2="1358.04" y2="46.94" stroke="#9aa0a6" stroke-width="2.00" />
<line x1="1357.90" y1="46.68" x2="1357.88" y2="47.11" stroke="#9aa0a6" stroke-width="2.00" />
<line x1="1357.90" y1="46.68" x2="1357.85" y2="46.14" stroke="#9aa0a6" stroke-width="2.00" />
<line x1="1356.93" y1="52.89" x2="1356.83" y2="53.33" stroke="#9aa0a6" stroke-width="2.00" />
<line x1="1357.83" y1="44.64" x2="1357.78" y2="45.19" stroke="#9aa0a6" stroke-width="2.00" />
<line x1="1358.11" y1="47.82" x2="1358.09" y2="47.42" stroke="#9aa0a6" stroke-width="2.00" />
<line x1="1358.11" y1="47.82" x2="1358.12" y2="48.30" stroke="#9aa0a6" stroke-width="2.00" />
<line x1="1358.11" y1="47.82" x2="1357.93" y2="48.03" stroke="#9aa0a6" stroke-width="2.00" />
<line x1="1358.11" y1="47.82" x2="1358.03" y2="47.60" stroke="#9aa0a6" stroke-width="2.00" />
<line x1="1358.79" y1="47.54" x2="1358.76" y2="47.03" stroke="#9aa0a6" stroke-width="2.00" />
<line x1="1356.28" y1="51.36" x2="1356.58" y2="51.21" stroke="#9aa0a6" stroke-width="2.00" />
<line x1="1356.28" y1="51.36" x2="1356.10" y2="51.66" stroke="#9aa0a6" stroke-width="2.00" />
<line x1="1356.67" y1="46.13" x2="1356.52" y2="45.93" stroke="#9aa0a6" stroke-width="2.00" />
<line x1="1358.09" y1="47.42" x2="1358.04" y2="46.94" stroke="#9aa0a6" stroke-width="2.00" />
<line x1="1358.35" y1="45.92" x2="1358.52" y2="45.97" stroke="#9aa0a6" stroke-width="2.00" />
<line x1="1358.71" y1="47.94" x2="1358.48" y2="48.56" stroke="#9aa0a6" stroke-width="2.00" />
<line x1="1353.84" y1="45.51" x2="1354.50" y2="43.43" stroke="#9aa0a6" stroke-width="2.00" />
<line x1="1357.81" y1="45.80" x2="1357.78" y2="45.19" stroke="#9aa0a6" stroke-width="2.00" />
<line x1="1357.81" y1="45.80" x2="1357.85" y2="46.14" stroke="#9aa0a6" stroke-width="2.00" />
<line x1="1357.58" y1="50.16" x2="1357.66" y2="50.01" stroke="#9aa0a6" stroke-width="2.00" />
<line x1="1357.58" y1="50.16" x2="1357.66" y2="49.67" stroke="#9aa0a6" stroke-width="2.00" />
<line x1="1357.58" y1="50.16" x2="1357.43" y2="49.94" stroke="#9aa0a6" stroke-width="2.00" />
<line x1="1357.88" y1="47.11" x2="1357.63" y2="46.89" stroke="#9aa0a6" stroke-width="2.00" />
<line x1="1357.49" y1="51.43" x2="1357.66" y2="51.22" stroke="#9aa0a6" stroke-width="2.00" />
<line x1="1357.05" y1="46.50" x2="1357.15" y2="47.11" stroke="#9aa0a6" stroke-width="2.00" />
<line x1="1358.60" y1="51.63" x2="1358.43" y2="51.63" stroke="#9aa0a6" stroke-width="2.00" />
<line x1="1354.54" y1="53.33" x2="1355.08" y2="52.44" stroke="#9aa0a6" stroke-width="2.00" />
<line x1="1358.32" y1="41.17" x2="1358.39" y2="41.67" stroke="#9aa0a6" stroke-width="2.00" />
<line x1="1358.39" y1="41.67" x2="1358.48" y2="42.26" stroke="#9aa0a6" stroke-width="2.00" />
<line x1="1358.57" y1="42.94" x2="1358.36" y2="43.44" stroke="#9aa0a6" stroke-width="2.00" />
<line x1="1358.57" y1="42.94" x2="1358.48" y2="42.26" stroke="#9aa0a6" stroke-width="2.00" />
<line x1="1354.60" y1="55.87" x2="1354.57" y2="56.93" stroke="#9aa0a6" stroke-width="2.00" />
<line x1="1358.36" y1="43.44" x2="1358.26" y2="43.88" stroke="#9aa0a6" stroke-width="2.00" />
<line x1="1358.12" y1="48.30" x2="1357.90" y2="48.58" stroke="#9aa0a6" stroke-width="2.00" />
<line x1="1360.00" y1="43.88" x2="1359.81" y2="44.29" stroke="#9aa0a6" stroke-width="2.00" />
<line x1="1358.32" y1="49.20" x2="1358.41" y2="50.31" stroke="#9aa0a6" stroke-width="2.00" />
<line x1="1358.84" y1="49.87" x2="1358.65" y2="50.00" stroke="#9aa0a6" stroke-width="2.00" />
<line x1="1356.41" y1="45.72" x2="1356.52" y2="45.93" stroke="#9aa0a6" stroke-width="2.00" />
<line x1="1357.93" y1="40.00" x2="1358.15" y2="40.16" stroke="#9aa0a6" stroke-width="2.00" />
<line x1="1358.65" y1="50.00" x2="1358.50" y2="50.15" stroke="#9aa0a6" stroke-width="2.00" />
<line x1="1357.28" y1="48.91" x2="1357.27" y2="48.54" stroke="#9aa0a6" stroke-width="2.00" />
<line x1="1359.81" y1="44.73" x2="1359.81" y2="44.29" stroke="#9aa0a6" stroke-width="2.00" />
<line x1="1357.66" y1="49.67" x2="1357.43" y2="49.94" stroke="#9aa0a6" stroke-width="2.00" />
<line x1="1357.66" y1="49.67" x2="1357.77" y2="49.36" stroke="#9aa0a6" stroke-width="2.00" />
<line x1="1358.41" y1="50.31" x2="1358.50" y2="50.15" stroke="#9aa0a6" stroke-width="2.00" />
<line x1="1356.89" y1="54.31" x2="1357.06" y2="55.32" stroke="#9aa0a6" stroke-width="2.00" />
<line x1="1357.47" y1="47.26" x2="1357.63" y2="46.89" stroke="#9aa0a6" stroke-width="2.00" />
</g>
<g>
<circle cx="1358.67" cy="55.55" r="2.20" fill="#1f2937" />
<circle cx="1358.63" cy="46.05" r="3.20" fill="#b91c1c" />
<circle cx="1354.78" cy="42.83" r="2.20" fill="#1f2937" />
<circle cx="1357.49" cy="41.75" r="2.20" fill="#1f2937" />
<circle cx="1358.15" cy="47.03" r="3.20" fill="#b91c1c" />
<circle cx="1358.19" cy="40.59" r="2.20" fill="#1f2937" />
<circle cx="1357.18" cy="56.30" r="2.20" fill="#1f2937" />
<circle cx="1356.70" cy="48.63" r="2.20" fill="#1f2937" />
<circle cx="1359.26" cy="47.58" r="2.20" fill="#1f2937" />
<circle cx="1359.77" cy="46.48" r="2.20" fill="#1f2937" />
<circle cx="1357.56" cy="50.76" r="2.20" fill="#1f2937" />
<circle cx="1357.01" cy="50.65" r="2.20" fill="#1f2937" />
<circle cx="1357.59" cy="50.39" r="2.20" fill="#1f2937" />
<circle cx="1357.30" cy="47.58" r="3.20" fill="#b91c1c" />
<circle cx="1358.89" cy="48.03" r="3.20" fill="#b91c1c" />
<circle cx="1359.26" cy="48.89" r="2.20" fill="#1f2937" />
<circle cx="1357.65" cy="47.79" r="2.20" fill="#1f2937" />
<circle cx="1358.32" cy="50.45" r="2.20" fill="#1f2937" />
<circle cx="1357.59" cy="47.54" r="2.20" fill="#1f2937" />
<circle cx="1357.78" cy="48.75" r="3.20" fill="#b91c1c" />
<circle cx="1357.23" cy="44.71" r="2.20" fill="#1f2937" />
<circle cx="1358.44" cy="50.67" r="2.20" fill="#1f2937" />
<circle cx="1358.25" cy="45.71" r="2.20" fill="#1f2937" />
<circle cx="1357.88" cy="50.10" r="2.20" fill="#1f2937" />
<circle cx="1356.83" cy="53.91" r="2.20" fill="#1f2937" />
<circle cx="1358.26" cy="45.34" r="2.20" fill="#1f2937" />
<circle cx="1357.27" cy="45.16" r="2.20" fill="#1f2937" />
<circle cx="1357.37" cy="46.00" r="2.20" fill="#1f2937" />
<circle cx="1358.69" cy="46.71" r="2.20" fill="#1f2937" />
<circle cx="1357.97" cy="49.61" r="2.20" fill="#1f2937" />
<circle cx="1358.04" cy="49.09" r="2.20" fill="#1f2937" />
<circle cx="1358.17" cy="48.11" r="2.20" fill="#1f2937" />
<circle cx="1359.43" cy="47.29" r="2.20" fill="#1f2937" />
<circle cx="1357.84" cy="49.76" r="3.20" fill="#b91c1c" />
<circle cx="1358.22" cy="46.67" r="2.20" fill="#1f2937" />
<circle cx="1358.71" cy="47.82" r="2.20" fill="#1f2937" />
<circle cx="1357.33" cy="57.50" r="2.20" fill="#1f2937" />
<circle cx="1354.57" cy="54.50" r="2.20" fill="#1f2937" />
<circle cx="1359.80" cy="45.26" r="2.20" fill="#1f2937" />
<circle cx="1358.66" cy="50.55" r="2.20" fill="#1f2937" />
<circle cx="1358.27" cy="47.64" r="2.20" fill="#1f2937" />
<circle cx="1359.24" cy="49.62" r="2.20" fill="#1f2937" />
<circle cx="1357.19" cy="47.46" r="2.20" fill="#1f2937" />
<circle cx="1357.40" cy="40.72" r="2.20" fill="#1f2937" />
<circle cx="1359.59" cy="42.47" r="2.20" fill="#1f2937" />
<circle cx="1358.75" cy="51.28" r="2.20" fill="#1f2937" />
<circle cx="1357.61" cy="42.47" r="2.20" fill="#1f2937" />
<circle cx="1357.74" cy="44.09" r="2.20" fill="#1f2937" />
<circle cx="1357.28" cy="50.47" r="2.20" fill="#1f2937" />
<circle cx="1358.33" cy="46.71" r="2.20" fill="#1f2937" />
<circle cx="1359.88" cy="43.27" r="2.20" fill="#1f2937" />
<circle cx="1357.87" cy="47.47" r="2.20" fill="#1f2937" />
<circle cx="1356.80" cy="50.83" r="2.20" fill="#1f2937" />
<circle cx="1357.74" cy="49.06" r="2.20" fill="#1f2937" />
<circle cx="1358.19" cy="46.16" r="3.20" fill="#b91c1c" />
<circle cx="1357.34" cy="49.45" r="2.20" fill="#1f2937" />
<circle cx="1359.42" cy="48.88" r="2.20" fill="#1f2937" />
<circle cx="1358.99" cy="45.05" r="2.20" fill="#1f2937" />
<circle cx="1358.92" cy="45.79" r="2.20" fill="#1f2937" />
<circle cx="1356.96" cy="57.99" r="2.20" fill="#1f2937" />
<circle cx="1357.59" cy="43.07" r="2.20" fill="#1f2937" />
<circle cx="1354.91" cy="43.48" r="3.20" fill="#b91c1c" />
<circle cx="1357.28" cy="57.14" r="2.20" fill="#1f2937" />
<circle cx="1358.74" cy="45.96" r="2.20" fill="#1f2937" />
<circle cx="1357.50" cy="48.45" r="3.20" fill="#b91c1c" />
<circle cx="1358.29" cy="44.61" r="2.20" fill="#1f2937" />
<circle cx="1358.63" cy="54.54" r="2.20" fill="#1f2937" />
<circle cx="1357.92" cy="49.21" r="2.20" fill="#1f2937" />
<circle cx="1357.72" cy="48.30" r="3.20" fill="#b91c1c" />
<circle cx="1357.24" cy="51.94" r="2.20" fill="#1f2937" />
<circle cx="1357.18" cy="57.81" r="2.20" fill="#1f2937" />
<circle cx="1359.69" cy="46.77" r="2.20" fill="#1f2937" />
<circle cx="1357.22" cy="47.89" r="2.20" fill="#1f2937" />
<circle cx="1359.08" cy="49.89" r="2.20" fill="#1f2937" />
<circle cx="1355.85" cy="52.15" r="2.20" fill="#1f2937" />
<circle cx="1359.80" cy="45.71" r="2.20" fill="#1f2937" />
<circle cx="1358.90" cy="48.80" r="3.20" fill="#b91c1c" />
<circle cx="1357.36" cy="46.81" r="2.20" fill="#1f2937" />
<circle cx="1358.26" cy="48.52" r="2.20" fill="#1f2937" />
<circle cx="1358.66" cy="55.01" r="2.20" fill="#1f2937" />
<circle cx="1357.08" cy="52.45" r="2.20" fill="#1f2937" />
<circle cx="1358.35" cy="52.01" r="2.20" fill="#1f2937" />
<circle cx="1358.50" cy="46.42" r="2.20" fill="#1f2937" />
<circle cx="1358.74" cy="49.66" r="2.20" fill="#1f2937" />
<circle cx="1356.90" cy="46.26" r="2.20" fill="#1f2937" />
<circle cx="1357.68" cy="50.71" r="2.20" fill="#1f2937" />
<circle cx="1357.37" cy="48.03" r="2.20" fill="#1f2937" />
<circle cx="1359.36" cy="49.19" r="3.20" fill="#b91c1c" />
<circle cx="1357.03" cy="48.83" r="2.20" fill="#1f2937" />
<circle cx="1358.15" cy="49.36" r="2.20" fill="#1f2937" />
<circle cx="1358.48" cy="53.02" r="2.20" fill="#1f2937" />
<circle cx="1358.29" cy="48.80" r="3.20" fill="#b91c1c" />
<circle cx="1358.52" cy="47.64" r="2.20" fill="#1f2937" />
<circle cx="1358.16" cy="48.91" r="2.20" fill="#1f2937" />
<circle cx="1355.25" cy="43.96" r="2.20" fill="#1f2937" />
<circle cx="1359.02" cy="45.40" r="2.20" fill="#1f2937" />
<circle cx="1356.60" cy="58.29" r="2.20" fill="#1f2937" />
<circle cx="1359.13" cy="47.72" r="2.20" fill="#1f2937" />
<circle cx="1357.01" cy="43.89" r="2.20" fill="#1f2937" />
<circle cx="1358.52" cy="48.88" r="2.20" fill="#1f2937" />
<circle cx="1355.92" cy="45.00" r="2.20" fill="#1f2937" />
<circle cx="1358.96" cy="44.21" r="2.20" fill="#1f2937" />
<circle cx="1354.65" cy="40.75" r="2.20" fill="#1f2937" />
<circle cx="1357.62" cy="40.04" r="2.20" fill="#1f2937" />
<circle cx="1359.78" cy="42.71" r="2.20" fill="#1f2937" />
<circle cx="1358.09" cy="46.40" r="2.20" fill="#1f2937" />
<circle cx="1357.90" cy="46.68" r="2.20" fill="#1f2937" />
<circle cx="1356.93" cy="52.89" r="2.20" fill="#1f2937" />
<circle cx="1357.83" cy="44.64" r="2.20" fill="#1f2937" />
<circle cx="1358.11" cy="47.82" r="3.20" fill="#b91c1c" />
<circle cx="1358.98" cy="48.33" r="2.20" fill="#1f2937" />
<circle cx="40.00" cy="1360.00" r="2.20" fill="#1f2937" />
<circle cx="1358.79" cy="47.54" r="2.20" fill="#1f2937" />
<circle cx="1358.60" cy="53.99" r="2.20" fill="#1f2937" />
<circle cx="1356.28" cy="51.36" r="2.20" fill="#1f2937" />
<circle cx="1356.67" cy="46.13" r="2.20" fill="#1f2937" />
<circle cx="1358.09" cy="47.42" r="2.20" fill="#1f2937" />
<circle cx="1358.35" cy="45.92" r="2.20" fill="#1f2937" />
<circle cx="1358.71" cy="47.94" r="2.20" fill="#1f2937" />
<circle cx="1357.17" cy="44.25" r="2.20" fill="#1f2937" />
<circle cx="1353.84" cy="45.51" r="2.20" fill="#1f2937" />
<circle cx="1358.85" cy="49.21" r="2.20" fill="#1f2937" />
<circle cx="1354.50" cy="43.43" r="2.20" fill="#1f2937" />
<circle cx="1357.81" cy="45.80" r="2.20" fill="#1f2937" />
<circle cx="1357.58" cy="50.16" r="3.20" fill="#b91c1c" />
<circle cx="1357.88" cy="47.11" r="3.20" fill="#b91c1c" />
<circle cx="1359.14" cy="48.45" r="2.20" fill="#1f2937" />
<circle cx="1357.49" cy="51.43" r="3.20" fill="#b91c1c" />
<circle cx="1357.66" cy="50.01" r="2.20" fill="#1f2937" />
<circle cx="1356.85" cy="43.95" r="2.20" fill="#1f2937" />
<circle cx="1357.05" cy="46.50" r="2.20" fill="#1f2937" />
<circle cx="1358.60" cy="51.63" r="2.20" fill="#1f2937" />
<circle cx="1354.54" cy="53.33" r="2.20" fill="#1f2937" />
<circle cx="1358.97" cy="43.88" r="2.20" fill="#1f2937" />
<circle cx="1357.66" cy="51.22" r="2.20" fill="#1f2937" />
<circle cx="1358.32" cy="41.17" r="2.20" fill="#1f2937" />
<circle cx="1355.08" cy="52.44" r="2.20" fill="#1f2937" />
<circle cx="1358.52" cy="45.97" r="2.20" fill="#1f2937" />
<circle cx="1358.39" cy="41.67" r="2.20" fill="#1f2937" />
<circle cx="1358.57" cy="42.94" r="2.20" fill="#1f2937" />
<circle cx="1354.60" cy="55.87" r="2.20" fill="#1f2937" />
<circle cx="1354.57" cy="56.93" r="2.20" fill="#1f2937" />
<circle cx="1358.36" cy="43.44" r="2.20" fill="#1f2937" />
<circle cx="1358.12" cy="48.30" r="2.20" fill="#1f2937" />
<circle cx="1358.43" cy="51.63" r="2.20" fill="#1f2937" />
<circle cx="1357.90" cy="48.58" r="2.20" fill="#1f2937" />
<circle cx="1360.00" cy="43.88" r="2.20" fill="#1f2937" />
<circle cx="1358.32" cy="49.20" r="3.20" fill="#b91c1c" />
<circle cx="1358.84" cy="49.87" r="2.20" fill="#1f2937" />
<circle cx="1358.77" cy="48.89" r="2.20" fill="#1f2937" />
<circle cx="1356.41" cy="45.72" r="2.20" fill="#1f2937" />
<circle cx="1357.93" cy="40.00" r="2.20" fill="#1f2937" />
<circle cx="1357.65" cy="43.51" r="2.20" fill="#1f2937" />
<circle cx="1356.83" cy="48.68" r="2.20" fill="#1f2937" />
<circle cx="1356.76" cy="58.16" r="2.20" fill="#1f2937" />
<circle cx="1357.78" cy="45.19" r="2.20" fill="#1f2937" />
<circle cx="1358.65" cy="50.00" r="3.20" fill="#b91c1c" />
<circle cx="1354.52" cy="41.40" r="2.20" fill="#1f2937" />
<circle cx="1357.93" cy="48.03" r="2.20" fill="#1f2937" />
<circle cx="1357.28" cy="48.91" r="2.20" fill="#1f2937" />
<circle cx="1358.26" cy="43.88" r="2.20" fill="#1f2937" />
<circle cx="1357.44" cy="41.21" r="2.20" fill="#1f2937" />
<circle cx="1359.78" cy="46.11" r="2.20" fill="#1f2937" />
<circle cx="1356.52" cy="45.93" r="2.20" fill="#1f2937" />
<circle cx="1359.81" cy="44.73" r="2.20" fill="#1f2937" />
<circle cx="1358.96" cy="44.60" r="2.20" fill="#1f2937" />
<circle cx="1358.48" cy="48.56" r="2.20" fill="#1f2937" />
<circle cx="1357.36" cy="46.47" r="2.20" fill="#1f2937" />
<circle cx="1357.35" cy="45.56" r="2.20" fill="#1f2937" />
<circle cx="1356.58" cy="51.21" r="2.20" fill="#1f2937" />
<circle cx="1358.03" cy="47.60" r="2.20" fill="#1f2937" />
<circle cx="1356.83" cy="53.33" r="2.20" fill="#1f2937" />
<circle cx="1357.66" cy="49.67" r="3.20" fill="#b91c1c" />
<circle cx="1357.85" cy="46.14" r="2.20" fill="#1f2937" />
<circle cx="1358.76" cy="47.03" r="2.20" fill="#1f2937" />
<circle cx="1358.41" cy="51.10" r="2.20" fill="#1f2937" />
<circle cx="1358.41" cy="50.31" r="3.20" fill="#b91c1c" />
<circle cx="1356.89" cy="54.31" r="2.20" fill="#1f2937" />
<circle cx="1357.43" cy="49.94" r="3.20" fill="#b91c1c" />
<circle cx="1358.15" cy="40.16" r="2.20" fill="#1f2937" />
<circle cx="1359.00" cy="47.85" r="2.20" fill="#1f2937" />
<circle cx="1359.56" cy="47.07" r="2.20" fill="#1f2937" />
<circle cx="1358.50" cy="50.15" r="2.20" fill="#1f2937" />
<circle cx="1358.48" cy="42.26" r="2.20" fill="#1f2937" />
<circle cx="1359.75" cy="49.29" r="2.20" fill="#1f2937" />
<circle cx="1357.77" cy="49.36" r="3.20" fill="#b91c1c" />
<circle cx="1357.47" cy="47.26" r="3.20" fill="#b91c1c" />
<circle cx="1357.15" cy="47.11" r="2.20" fill="#1f2937" />
<circle cx="1356.10" cy="51.66" r="2.20" fill="#1f2937" />
<circle cx="1357.27" cy="48.54" r="3.20" fill="#b91c1c" />
<circle cx="1357.63" cy="46.89" r="2.20" fill="#1f2937" />
<circle cx="1358.04" cy="46.94" r="2.20" fill="#1f2937" />
<circle cx="1359.81" cy="44.29" r="2.20" fill="#1f2937" />
<circle cx="1357.06" cy="55.32" r="2.20" fill="#1f2937" />
<g font-family="Arial, sans-serif" font-size="10" fill="#111827">
<text x="1362.89" y="44.03">15:CenturyAvenue</text>
<text x="1362.11" y="43.82">110:PeoplesSquare</text>
<text x="1361.43" y="45.94">179:YishanRoad</text>
<text x="1361.30" y="43.58">14:CaoyangRoad</text>
<text x="1361.78" y="44.75">20:ChangshuRoad</text>
<text x="1362.32" y="45.20">148:SouthXizangRoad</text>
<text x="1362.65" y="46.00">157:WestGaokeRoad</text>
<text x="1361.84" y="45.76">34:DonganRoad</text>
<text x="1361.66" y="45.67">173:Xujiahui</text>
<text x="1362.41" y="46.31">177:YaohuaRoad</text>
<text x="1362.19" y="42.16">55:HongkouFootballStadium</text>
<text x="1361.77" y="45.36">186:ZhaojiabangRoad</text>
<text x="1361.47" y="43.26">187:ZhenpingRoad</text>
<text x="1361.27" y="44.54">190:ZhongshanPark</text>
<text x="1361.72" y="44.30">69:JinganTemple</text>
<text x="1362.90" y="44.80">77:LancunRoad</text>
<text x="1363.36" y="45.19">88:LongyangRoad</text>
<text x="1362.29" y="44.80">92:LujiabangRoad</text>
<text x="1361.58" y="46.16">125:ShanghaiIndoorStadium</text>
<text x="1361.88" y="43.11">126:ShanghaiRailwayStation</text>
<text x="1361.49" y="47.43">128:ShanghaiSouthRailwayStation</text>
<text x="1362.15" y="43.03">5:BaoshanRoad</text>
<text x="1358.91" y="39.48">62:JiadingXincheng</text>
<text x="1361.50" y="44.45">65:JiangsuRoad</text>
<text x="1362.63" y="42.05">2:AnshanXincun</text>
</g>
</g>
</svg>
