<?xml version="1.0" encoding="UTF-8"?>
<svg xmlns="http://www.w3.org/2000/svg" width="1400" height="1400" viewBox="0 0 1400 1400">
<rect x="0" y="0" width="100%" height="100%" fill="#ffffff" />
<g opacity="0.75">
<line x1="1354.88" y1="1356.46" x2="1354.67" y2="1356.33" stroke="#9aa0a6" stroke-width="2.00" />
<line x1="1354.88" y1="1356.46" x2="1355.07" y2="1356.55" stroke="#9aa0a6" stroke-width="2.00" />
<line x1="1354.88" y1="1356.46" x2="1354.84" y2="1356.75" stroke="#9aa0a6" stroke-width="2.00" />
<line x1="1354.88" y1="1356.46" x2="1354.69" y2="1356.19" stroke="#9aa0a6" stroke-width="2.00" />
<line x1="1355.21" y1="1354.35" x2="1355.28" y2="1354.35" stroke="#9aa0a6" stroke-width="2.00" />
<line x1="1355.21" y1="1354.35" x2="1355.06" y2="1354.29" stroke="#9aa0a6" stroke-width="2.00" />
<line x1="1355.19" y1="1354.24" x2="1355.28" y2="1354.35" stroke="#9aa0a6" stroke-width="2.00" />
<line x1="1355.19" y1="1354.24" x2="1355.06" y2="1354.29" stroke="#9aa0a6" stroke-width="2.00" />
<line x1="1355.19" y1="1354.24" x2="1355.30" y2="1354.12" stroke="#9aa0a6" stroke-width="2.00" />
<line x1="1355.84" y1="1356.67" x2="1355.49" y2="1356.51" stroke="#9aa0a6" stroke-width="2.00" />
<line x1="1355.84" y1="1356.67" x2="1356.09" y2="1356.84" stroke="#9aa0a6" stroke-width="2.00" />
<line x1="1359.23" y1="1359.97" x2="1359.05" y2="1359.46" stroke="#9aa0a6" stroke-width="2.00" />
<line x1="1355.64" y1="1354.60" x2="1355.63" y2="1354.79" stroke="#9aa0a6" stroke-width="2.00" />
<line x1="1355.64" y1="1354.60" x2="1355.46" y2="1354.38" stroke="#9aa0a6" stroke-width="2.00" />
<line x1="1356.47" y1="1354.91" x2="1356.77" y2="1355.03" stroke="#9aa0a6" stroke-width="2.00" />
<line x1="1356.47" y1="1354.91" x2="1356.25" y2="1354.95" stroke="#9aa0a6" stroke-width="2.00" />
<line x1="1357.75" y1="1354.90" x2="1357.51" y2="1354.80" stroke="#9aa0a6" stroke-width="2.00" />
<line x1="1357.75" y1="1354.90" x2="1358.16" y2="1354.84" stroke="#9aa0a6" stroke-width="2.00" />
<line x1="1356.29" y1="1354.60" x2="1356.44" y2="1354.61" stroke="#9aa0a6" stroke-width="2.00" />
<line x1="1356.29" y1="1354.60" x2="1356.15" y2="1354.67" stroke="#9aa0a6" stroke-width="2.00" />
<line x1="1355.38" y1="1355.15" x2="1355.16" y2="1355.07" stroke="#9aa0a6" stroke-width="2.00" />
<line x1="1355.38" y1="1355.15" x2="1355.32" y2="1355.29" stroke="#9aa0a6" stroke-width="2.00" />
<line x1="1355.38" y1="1355.15" x2="1356.00" y2="1355.40" stroke="#9aa0a6" stroke-width="2.00" />
<line x1="1355.38" y1="1355.15" x2="1355.41" y2="1355.01" stroke="#9aa0a6" stroke-width="2.00" />
<line x1="1355.38" y1="1355.15" x2="1355.39" y2="1355.21" stroke="#9aa0a6" stroke-width="2.00" />
<line x1="1355.38" y1="1355.15" x2="1355.40" y2="1355.03" stroke="#9aa0a6" stroke-width="2.00" />
<line x1="1355.38" y1="1355.15" x2="1355.69" y2="1355.33" stroke="#9aa0a6" stroke-width="2.00" />
<line x1="1353.36" y1="1355.09" x2="1353.61" y2="1355.05" stroke="#9aa0a6" stroke-width="2.00" />
<line x1="1353.36" y1="1355.09" x2="1353.18" y2="1355.18" stroke="#9aa0a6" stroke-width="2.00" />
<line x1="1355.14" y1="1354.42" x2="1355.28" y2="1354.35" stroke="#9aa0a6" stroke-width="2.00" />
<line x1="1355.14" y1="1354.42" x2="1354.94" y2="1354.38" stroke="#9aa0a6" stroke-width="2.00" />
<line x1="1355.14" y1="1354.42" x2="1355.28" y2="1354.43" stroke="#9aa0a6" stroke-width="2.00" />
<line x1="1355.14" y1="1354.42" x2="1355.18" y2="1354.51" stroke="#9aa0a6" stroke-width="2.00" />
<line x1="1355.14" y1="1354.42" x2="1354.89" y2="1354.68" stroke="#9aa0a6" stroke-width="2.00" />
<line x1="1355.32" y1="1354.51" x2="1355.33" y2="1354.60" stroke="#9aa0a6" stroke-width="2.00" />
<line x1="1355.32" y1="1354.51" x2="1355.28" y2="1354.43" stroke="#9aa0a6" stroke-width="2.00" />
<line x1="1355.80" y1="1352.60" x2="1355.80" y2="1352.92" stroke="#9aa0a6" stroke-width="2.00" />
<line x1="1355.80" y1="1352.60" x2="1355.78" y2="1352.39" stroke="#9aa0a6" stroke-width="2.00" />
<line x1="1356.95" y1="1352.53" x2="1357.23" y2="1352.50" stroke="#9aa0a6" stroke-width="2.00" />
<line x1="1356.95" y1="1352.53" x2="1356.70" y2="1352.51" stroke="#9aa0a6" stroke-width="2.00" />
<line x1="1354.57" y1="1355.75" x2="1354.59" y2="1355.55" stroke="#9aa0a6" stroke-width="2.00" />
<line x1="1354.57" y1="1355.75" x2="1354.62" y2="1355.87" stroke="#9aa0a6" stroke-width="2.00" />
<line x1="1354.57" y1="1355.75" x2="1354.66" y2="1355.99" stroke="#9aa0a6" stroke-width="2.00" />
<line x1="1354.57" y1="1355.75" x2="1354.58" y2="1355.68" stroke="#9aa0a6" stroke-width="2.00" />
<line x1="1355.11" y1="1355.48" x2="1355.03" y2="1355.57" stroke="#9aa0a6" stroke-width="2.00" />
<line x1="1355.11" y1="1355.48" x2="1355.24" y2="1355.36" stroke="#9aa0a6" stroke-width="2.00" />
<line x1="1355.83" y1="1352.12" x2="1355.86" y2="1351.90" stroke="#9aa0a6" stroke-width="2.00" />
<line x1="1355.83" y1="1352.12" x2="1355.78" y2="1352.39" stroke="#9aa0a6" stroke-width="2.00" />
<line x1="1356.08" y1="1355.23" x2="1355.92" y2="1355.11" stroke="#9aa0a6" stroke-width="2.00" />
<line x1="1356.08" y1="1355.23" x2="1356.25" y2="1355.38" stroke="#9aa0a6" stroke-width="2.00" />
<line x1="1354.76" y1="1354.15" x2="1354.76" y2="1354.01" stroke="#9aa0a6" stroke-width="2.00" />
<line x1="1354.76" y1="1354.15" x2="1354.94" y2="1354.38" stroke="#9aa0a6" stroke-width="2.00" />
<line x1="1355.39" y1="1354.11" x2="1355.28" y2="1354.35" stroke="#9aa0a6" stroke-width="2.00" />
<line x1="1355.39" y1="1354.11" x2="1355.45" y2="1353.83" stroke="#9aa0a6" stroke-width="2.00" />
<line x1="1355.10" y1="1354.57" x2="1355.12" y2="1354.48" stroke="#9aa0a6" stroke-width="2.00" />
<line x1="1355.10" y1="1354.57" x2="1355.09" y2="1354.69" stroke="#9aa0a6" stroke-width="2.00" />
<line x1="1357.00" y1="1353.92" x2="1357.09" y2="1354.12" stroke="#9aa0a6" stroke-width="2.00" />
<line x1="1357.00" y1="1353.92" x2="1356.91" y2="1353.68" stroke="#9aa0a6" stroke-width="2.00" />
<line x1="1355.16" y1="1355.07" x2="1354.98" y2="1355.00" stroke="#9aa0a6" stroke-width="2.00" />
<line x1="1355.16" y1="1355.07" x2="1355.15" y2="1355.16" stroke="#9aa0a6" stroke-width="2.00" />
<line x1="1355.16" y1="1355.07" x2="1355.19" y2="1354.98" stroke="#9aa0a6" stroke-width="2.00" />
<line x1="1354.84" y1="1354.47" x2="1354.65" y2="1354.52" stroke="#9aa0a6" stroke-width="2.00" />
<line x1="1354.84" y1="1354.47" x2="1354.94" y2="1354.38" stroke="#9aa0a6" stroke-width="2.00" />
<line x1="1354.70" y1="1356.94" x2="1354.79" y2="1356.83" stroke="#9aa0a6" stroke-width="2.00" />
<line x1="1354.70" y1="1356.94" x2="1354.34" y2="1357.23" stroke="#9aa0a6" stroke-width="2.00" />
<line x1="1357.51" y1="1354.80" x2="1357.27" y2="1354.65" stroke="#9aa0a6" stroke-width="2.00" />
<line x1="1355.50" y1="1353.74" x2="1355.43" y2="1353.59" stroke="#9aa0a6" stroke-width="2.00" />
<line x1="1355.50" y1="1353.74" x2="1355.45" y2="1353.83" stroke="#9aa0a6" stroke-width="2.00" />
<line x1="1356.75" y1="1355.75" x2="1356.63" y2="1355.54" stroke="#9aa0a6" stroke-width="2.00" />
<line x1="1356.75" y1="1355.75" x2="1356.91" y2="1355.89" stroke="#9aa0a6" stroke-width="2.00" />
<line x1="1353.87" y1="1354.68" x2="1354.11" y2="1354.78" stroke="#9aa0a6" stroke-width="2.00" />
<line x1="1355.43" y1="1353.59" x2="1355.53" y2="1353.40" stroke="#9aa0a6" stroke-width="2.00" />
<line x1="1358.01" y1="1352.97" x2="1358.38" y2="1352.88" stroke="#9aa0a6" stroke-width="2.00" />
<line x1="1358.01" y1="1352.97" x2="1357.51" y2="1353.11" stroke="#9aa0a6" stroke-width="2.00" />
<line x1="1357.41" y1="1356.29" x2="1357.22" y2="1356.14" stroke="#9aa0a6" stroke-width="2.00" />
<line x1="1357.41" y1="1356.29" x2="1357.69" y2="1356.41" stroke="#9aa0a6" stroke-width="2.00" />
<line x1="1356.03" y1="1354.74" x2="1356.15" y2="1354.67" stroke="#9aa0a6" stroke-width="2.00" />
<line x1="1356.03" y1="1354.74" x2="1355.63" y2="1354.79" stroke="#9aa0a6" stroke-width="2.00" />
<line x1="1355.80" y1="1354.99" x2="1355.92" y2="1355.11" stroke="#9aa0a6" stroke-width="2.00" />
<line x1="1355.80" y1="1354.99" x2="1355.53" y2="1354.91" stroke="#9aa0a6" stroke-width="2.00" />
<line x1="1355.80" y1="1354.99" x2="1356.08" y2="1354.96" stroke="#9aa0a6" stroke-width="2.00" />
<line x1="1355.80" y1="1354.99" x2="1355.68" y2="1354.95" stroke="#9aa0a6" stroke-width="2.00" />
<line x1="1354.76" y1="1354.01" x2="1354.94" y2="1353.70" stroke="#9aa0a6" stroke-width="2.00" />
<line x1="1354.94" y1="1353.70" x2="1354.82" y2="1353.43" stroke="#9aa0a6" stroke-width="2.00" />
<line x1="1355.16" y1="1353.38" x2="1354.82" y2="1353.43" stroke="#9aa0a6" stroke-width="2.00" />
<line x1="1355.16" y1="1353.38" x2="1355.53" y2="1353.40" stroke="#9aa0a6" stroke-width="2.00" />
<line x1="1355.06" y1="1354.45" x2="1355.12" y2="1354.48" stroke="#9aa0a6" stroke-width="2.00" />
<line x1="1355.06" y1="1354.45" x2="1355.14" y2="1354.42" stroke="#9aa0a6" stroke-width="2.00" />
<line x1="1357.53" y1="1356.62" x2="1357.19" y2="1356.53" stroke="#9aa0a6" stroke-width="2.00" />
<line x1="1357.53" y1="1356.62" x2="1357.83" y2="1356.70" stroke="#9aa0a6" stroke-width="2.00" />
<line x1="1359.05" y1="1359.46" x2="1360.00" y2="1360.00" stroke="#9aa0a6" stroke-width="2.00" />
<line x1="1359.05" y1="1359.46" x2="1358.71" y2="1359.01" stroke="#9aa0a6" stroke-width="2.00" />
<line x1="1355.26" y1="1354.66" x2="1355.25" y2="1354.75" stroke="#9aa0a6" stroke-width="2.00" />
<line x1="1355.26" y1="1354.66" x2="1355.18" y2="1354.51" stroke="#9aa0a6" stroke-width="2.00" />
<line x1="1355.00" y1="1354.79" x2="1354.99" y2="1354.78" stroke="#9aa0a6" stroke-width="2.00" />
<line x1="1355.00" y1="1354.79" x2="1355.10" y2="1354.84" stroke="#9aa0a6" stroke-width="2.00" />
<line x1="1355.00" y1="1354.79" x2="1355.06" y2="1354.90" stroke="#9aa0a6" stroke-width="2.00" />
<line x1="1357.78" y1="1352.68" x2="1357.67" y2="1352.49" stroke="#9aa0a6" stroke-width="2.00" />
<line x1="1357.78" y1="1352.68" x2="1357.77" y2="1353.00" stroke="#9aa0a6" stroke-width="2.00" />
<line x1="1354.67" y1="1356.33" x2="1354.69" y2="1356.19" stroke="#9aa0a6" stroke-width="2.00" />
<line x1="1358.71" y1="1359.01" x2="1358.36" y2="1358.53" stroke="#9aa0a6" stroke-width="2.00" />
<line x1="1353.84" y1="1354.95" x2="1353.92" y2="1354.86" stroke="#9aa0a6" stroke-width="2.00" />
<line x1="1353.84" y1="1354.95" x2="1353.61" y2="1355.05" stroke="#9aa0a6" stroke-width="2.00" />
<line x1="1353.92" y1="1354.86" x2="1354.11" y2="1354.78" stroke="#9aa0a6" stroke-width="2.00" />
<line x1="1358.64" y1="1355.06" x2="1358.54" y2="1354.88" stroke="#9aa0a6" stroke-width="2.00" />
<line x1="1357.22" y1="1356.14" x2="1356.91" y2="1355.89" stroke="#9aa0a6" stroke-width="2.00" />
<line x1="1352.74" y1="1355.38" x2="1352.67" y2="1355.52" stroke="#9aa0a6" stroke-width="2.00" />
<line x1="1352.74" y1="1355.38" x2="1352.98" y2="1355.27" stroke="#9aa0a6" stroke-width="2.00" />
<line x1="1355.14" y1="1354.80" x2="1355.25" y2="1354.75" stroke="#9aa0a6" stroke-width="2.00" />
<line x1="1355.14" y1="1354.80" x2="1355.10" y2="1354.84" stroke="#9aa0a6" stroke-width="2.00" />
<line x1="1358.54" y1="1358.18" x2="1358.10" y2="1358.08" stroke="#9aa0a6" stroke-width="2.00" />
<line x1="1358.54" y1="1358.18" x2="1358.79" y2="1357.93" stroke="#9aa0a6" stroke-width="2.00" />
<line x1="1355.93" y1="1351.70" x2="1355.86" y2="1351.90" stroke="#9aa0a6" stroke-width="2.00" />
<line x1="1355.93" y1="1351.70" x2="1356.06" y2="1351.36" stroke="#9aa0a6" stroke-width="2.00" />
<line x1="1358.48" y1="1352.58" x2="1358.38" y2="1352.88" stroke="#9aa0a6" stroke-width="2.00" />
<line x1="1358.48" y1="1352.58" x2="1359.15" y2="1352.37" stroke="#9aa0a6" stroke-width="2.00" />
<line x1="1356.12" y1="1356.02" x2="1356.18" y2="1356.14" stroke="#9aa0a6" stroke-width="2.00" />
<line x1="1356.12" y1="1356.02" x2="1356.05" y2="1355.84" stroke="#9aa0a6" stroke-width="2.00" />
<line x1="1355.18" y1="1356.69" x2="1355.07" y2="1356.55" stroke="#9aa0a6" stroke-width="2.00" />
<line x1="1355.18" y1="1356.69" x2="1355.26" y2="1356.47" stroke="#9aa0a6" stroke-width="2.00" />
<line x1="1355.07" y1="1356.55" x2="1355.25" y2="1356.55" stroke="#9aa0a6" stroke-width="2.00" />
<line x1="1354.59" y1="1355.55" x2="1354.67" y2="1355.43" stroke="#9aa0a6" stroke-width="2.00" />
<line x1="1354.59" y1="1355.55" x2="1354.83" y2="1355.53" stroke="#9aa0a6" stroke-width="2.00" />
<line x1="1354.59" y1="1355.55" x2="1354.77" y2="1355.72" stroke="#9aa0a6" stroke-width="2.00" />
<line x1="1354.59" y1="1355.55" x2="1354.47" y2="1355.56" stroke="#9aa0a6" stroke-width="2.00" />
<line x1="1354.59" y1="1355.55" x2="1354.58" y2="1355.68" stroke="#9aa0a6" stroke-width="2.00" />
<line x1="1355.24" y1="1356.11" x2="1355.40" y2="1356.24" stroke="#9aa0a6" stroke-width="2.00" />
<line x1="1355.24" y1="1356.11" x2="1355.11" y2="1355.87" stroke="#9aa0a6" stroke-width="2.00" />
<line x1="1357.01" y1="1355.23" x2="1357.36" y2="1355.54" stroke="#9aa0a6" stroke-width="2.00" />
<line x1="1357.01" y1="1355.23" x2="1356.77" y2="1355.03" stroke="#9aa0a6" stroke-width="2.00" />
<line x1="1355.80" y1="1352.92" x2="1355.70" y2="1353.10" stroke="#9aa0a6" stroke-width="2.00" />
<line x1="1353.76" y1="1355.73" x2="1353.82" y2="1355.78" stroke="#9aa0a6" stroke-width="2.00" />
<line x1="1353.76" y1="1355.73" x2="1353.42" y2="1355.68" stroke="#9aa0a6" stroke-width="2.00" />
<line x1="1356.75" y1="1357.71" x2="1356.71" y2="1357.44" stroke="#9aa0a6" stroke-width="2.00" />
<line x1="1356.75" y1="1357.71" x2="1356.66" y2="1357.88" stroke="#9aa0a6" stroke-width="2.00" />
<line x1="1355.32" y1="1355.29" x2="1355.39" y2="1355.21" stroke="#9aa0a6" stroke-width="2.00" />
<line x1="1355.32" y1="1355.29" x2="1355.24" y2="1355.36" stroke="#9aa0a6" stroke-width="2.00" />
<line x1="1354.65" y1="1354.52" x2="1354.52" y2="1354.60" stroke="#9aa0a6" stroke-width="2.00" />
<line x1="1354.65" y1="1354.52" x2="1354.78" y2="1354.67" stroke="#9aa0a6" stroke-width="2.00" />
<line x1="1356.06" y1="1351.36" x2="1356.17" y2="1351.13" stroke="#9aa0a6" stroke-width="2.00" />
<line x1="1354.99" y1="1354.78" x2="1355.09" y2="1354.69" stroke="#9aa0a6" stroke-width="2.00" />
<line x1="1354.99" y1="1354.78" x2="1354.89" y2="1354.68" stroke="#9aa0a6" stroke-width="2.00" />
<line x1="1354.99" y1="1354.78" x2="1354.84" y2="1354.81" stroke="#9aa0a6" stroke-width="2.00" />
<line x1="1359.70" y1="1352.26" x2="1359.15" y2="1352.37" stroke="#9aa0a6" stroke-width="2.00" />
<line x1="1355.53" y1="1354.91" x2="1355.63" y2="1354.79" stroke="#9aa0a6" stroke-width="2.00" />
<line x1="1355.53" y1="1354.91" x2="1355.68" y2="1354.95" stroke="#9aa0a6" stroke-width="2.00" />
<line x1="1355.53" y1="1354.91" x2="1355.43" y2="1354.95" stroke="#9aa0a6" stroke-width="2.00" />
<line x1="1355.53" y1="1354.91" x2="1355.41" y2="1355.01" stroke="#9aa0a6" stroke-width="2.00" />
<line x1="1355.53" y1="1354.91" x2="1355.63" y2="1354.79" stroke="#9aa0a6" stroke-width="2.00" />
<line x1="1357.23" y1="1352.50" x2="1357.42" y2="1352.47" stroke="#9aa0a6" stroke-width="2.00" />
<line x1="1355.33" y1="1354.60" x2="1355.63" y2="1354.79" stroke="#9aa0a6" stroke-width="2.00" />
<line x1="1357.36" y1="1355.54" x2="1357.55" y2="1355.72" stroke="#9aa0a6" stroke-width="2.00" />
<line x1="1357.36" y1="1355.54" x2="1357.58" y2="1355.48" stroke="#9aa0a6" stroke-width="2.00" />
<line x1="1356.00" y1="1355.40" x2="1355.90" y2="1355.34" stroke="#9aa0a6" stroke-width="2.00" />
<line x1="1356.00" y1="1355.40" x2="1356.42" y2="1356.46" stroke="#9aa0a6" stroke-width="2.00" />
<line x1="1356.00" y1="1355.40" x2="1356.00" y2="1355.51" stroke="#9aa0a6" stroke-width="2.00" />
<line x1="1356.44" y1="1354.61" x2="1355.97" y2="1354.59" stroke="#9aa0a6" stroke-width="2.00" />
<line x1="1356.44" y1="1354.61" x2="1356.60" y2="1354.50" stroke="#9aa0a6" stroke-width="2.00" />
<line x1="1356.44" y1="1354.61" x2="1356.93" y2="1354.28" stroke="#9aa0a6" stroke-width="2.00" />
<line x1="1354.32" y1="1355.55" x2="1354.18" y2="1355.62" stroke="#9aa0a6" stroke-width="2.00" />
<line x1="1354.32" y1="1355.55" x2="1354.47" y2="1355.56" stroke="#9aa0a6" stroke-width="2.00" />
<line x1="1356.75" y1="1352.77" x2="1356.70" y2="1352.51" stroke="#9aa0a6" stroke-width="2.00" />
<line x1="1356.75" y1="1352.77" x2="1356.72" y2="1352.99" stroke="#9aa0a6" stroke-width="2.00" />
<line x1="1354.67" y1="1355.43" x2="1354.83" y2="1355.53" stroke="#9aa0a6" stroke-width="2.00" />
<line x1="1354.67" y1="1355.43" x2="1354.66" y2="1355.33" stroke="#9aa0a6" stroke-width="2.00" />
<line x1="1356.63" y1="1355.54" x2="1356.25" y2="1355.38" stroke="#9aa0a6" stroke-width="2.00" />
<line x1="1354.86" y1="1355.90" x2="1354.62" y2="1355.87" stroke="#9aa0a6" stroke-width="2.00" />
<line x1="1354.86" y1="1355.90" x2="1354.91" y2="1355.83" stroke="#9aa0a6" stroke-width="2.00" />
<line x1="1355.33" y1="1354.91" x2="1355.22" y2="1354.87" stroke="#9aa0a6" stroke-width="2.00" />
<line x1="1355.33" y1="1354.91" x2="1355.43" y2="1354.95" stroke="#9aa0a6" stroke-width="2.00" />
<line x1="1357.67" y1="1352.49" x2="1357.42" y2="1352.47" stroke="#9aa0a6" stroke-width="2.00" />
<line x1="1354.98" y1="1355.00" x2="1354.88" y2="1355.10" stroke="#9aa0a6" stroke-width="2.00" />
<line x1="1354.98" y1="1355.00" x2="1355.19" y2="1354.98" stroke="#9aa0a6" stroke-width="2.00" />
<line x1="1354.98" y1="1355.00" x2="1355.06" y2="1354.90" stroke="#9aa0a6" stroke-width="2.00" />
<line x1="1354.98" y1="1355.00" x2="1354.72" y2="1355.02" stroke="#9aa0a6" stroke-width="2.00" />
<line x1="1354.98" y1="1355.00" x2="1354.84" y2="1354.81" stroke="#9aa0a6" stroke-width="2.00" />
<line x1="1355.88" y1="1357.17" x2="1356.02" y2="1357.41" stroke="#9aa0a6" stroke-width="2.00" />
<line x1="1355.88" y1="1357.17" x2="1355.73" y2="1356.92" stroke="#9aa0a6" stroke-width="2.00" />
<line x1="1354.60" y1="1356.41" x2="1354.23" y2="1356.51" stroke="#9aa0a6" stroke-width="2.00" />
<line x1="1354.60" y1="1356.41" x2="1354.69" y2="1356.19" stroke="#9aa0a6" stroke-width="2.00" />
<line x1="1354.62" y1="1355.87" x2="1354.69" y2="1356.19" stroke="#9aa0a6" stroke-width="2.00" />
<line x1="1355.57" y1="1356.60" x2="1355.40" y2="1356.24" stroke="#9aa0a6" stroke-width="2.00" />
<line x1="1355.57" y1="1356.60" x2="1355.73" y2="1356.92" stroke="#9aa0a6" stroke-width="2.00" />
<line x1="1355.73" y1="1356.23" x2="1355.92" y2="1356.41" stroke="#9aa0a6" stroke-width="2.00" />
<line x1="1355.73" y1="1356.23" x2="1355.63" y2="1356.08" stroke="#9aa0a6" stroke-width="2.00" />
<line x1="1356.82" y1="1357.07" x2="1356.96" y2="1357.34" stroke="#9aa0a6" stroke-width="2.00" />
<line x1="1356.82" y1="1357.07" x2="1356.80" y2="1356.87" stroke="#9aa0a6" stroke-width="2.00" />
<line x1="1356.82" y1="1357.07" x2="1356.82" y2="1357.24" stroke="#9aa0a6" stroke-width="2.00" />
<line x1="1357.14" y1="1357.05" x2="1356.88" y2="1356.85" stroke="#9aa0a6" stroke-width="2.00" />
<line x1="1353.97" y1="1357.99" x2="40.57" y2="40.00" stroke="#9aa0a6" stroke-width="0.52" />
<line x1="1353.97" y1="1357.99" x2="40.71" y2="1310.76" stroke="#9aa0a6" stroke-width="1.30" />
<line x1="1353.97" y1="1357.99" x2="1354.14" y2="1357.59" stroke="#9aa0a6" stroke-width="2.00" />
<line x1="40.57" y1="40.00" x2="40.71" y2="1310.76" stroke="#9aa0a6" stroke-width="0.40" />
<line x1="40.57" y1="40.00" x2="40.00" y2="1300.08" stroke="#9aa0a6" stroke-width="0.41" />
<line x1="1358.62" y1="1355.54" x2="1358.11" y2="1355.38" stroke="#9aa0a6" stroke-width="2.00" />
<line x1="1354.83" y1="1355.53" x2="1355.03" y2="1355.57" stroke="#9aa0a6" stroke-width="2.00" />
<line x1="1355.97" y1="1354.59" x2="1355.63" y2="1354.79" stroke="#9aa0a6" stroke-width="2.00" />
<line x1="1356.17" y1="1358.28" x2="1356.37" y2="1358.19" stroke="#9aa0a6" stroke-width="2.00" />
<line x1="1356.17" y1="1358.28" x2="1355.97" y2="1358.58" stroke="#9aa0a6" stroke-width="2.00" />
<line x1="1355.25" y1="1354.75" x2="1355.39" y2="1354.80" stroke="#9aa0a6" stroke-width="2.00" />
<line x1="1355.25" y1="1354.75" x2="1355.22" y2="1354.87" stroke="#9aa0a6" stroke-width="2.00" />
<line x1="1354.99" y1="1355.67" x2="1355.03" y2="1355.57" stroke="#9aa0a6" stroke-width="2.00" />
<line x1="1354.99" y1="1355.67" x2="1354.91" y2="1355.83" stroke="#9aa0a6" stroke-width="2.00" />
<line x1="1356.17" y1="1351.13" x2="1356.28" y2="1350.97" stroke="#9aa0a6" stroke-width="2.00" />
<line x1="1354.08" y1="1357.38" x2="1354.13" y2="1357.28" stroke="#9aa0a6" stroke-width="2.00" />
<line x1="1354.08" y1="1357.38" x2="1354.14" y2="1357.59" stroke="#9aa0a6" stroke-width="2.00" />
<line x1="1354.13" y1="1357.28" x2="1354.34" y2="1357.23" stroke="#9aa0a6" stroke-width="2.00" />
<line x1="1354.88" y1="1355.10" x2="1354.85" y2="1355.19" stroke="#9aa0a6" stroke-width="2.00" />
<line x1="1356.37" y1="1358.19" x2="1356.61" y2="1357.97" stroke="#9aa0a6" stroke-width="2.00" />
<line x1="1354.52" y1="1354.60" x2="1354.35" y2="1354.67" stroke="#9aa0a6" stroke-width="2.00" />
<line x1="1354.52" y1="1354.60" x2="1354.89" y2="1354.68" stroke="#9aa0a6" stroke-width="2.00" />
<line x1="1355.58" y1="1355.87" x2="1355.67" y2="1355.66" stroke="#9aa0a6" stroke-width="2.00" />
<line x1="1355.58" y1="1355.87" x2="1355.63" y2="1356.08" stroke="#9aa0a6" stroke-width="2.00" />
<line x1="1356.08" y1="1354.96" x2="1356.25" y2="1354.95" stroke="#9aa0a6" stroke-width="2.00" />
<line x1="1356.88" y1="1356.85" x2="1356.59" y2="1356.77" stroke="#9aa0a6" stroke-width="2.00" />
<line x1="1354.23" y1="1356.51" x2="1353.87" y2="1356.69" stroke="#9aa0a6" stroke-width="2.00" />
<line x1="1356.00" y1="1355.66" x2="1356.00" y2="1355.51" stroke="#9aa0a6" stroke-width="2.00" />
<line x1="1356.00" y1="1355.66" x2="1356.05" y2="1355.84" stroke="#9aa0a6" stroke-width="2.00" />
<line x1="1355.70" y1="1355.54" x2="1355.56" y2="1355.45" stroke="#9aa0a6" stroke-width="2.00" />
<line x1="1355.70" y1="1355.54" x2="1355.67" y2="1355.66" stroke="#9aa0a6" stroke-width="2.00" />
<line x1="1355.63" y1="1354.79" x2="1355.39" y2="1354.80" stroke="#9aa0a6" stroke-width="2.00" />
<line x1="1356.95" y1="1356.45" x2="1357.19" y2="1356.53" stroke="#9aa0a6" stroke-width="2.00" />
<line x1="1356.95" y1="1356.45" x2="1356.42" y2="1356.46" stroke="#9aa0a6" stroke-width="2.00" />
<line x1="1354.85" y1="1355.19" x2="1354.66" y2="1355.33" stroke="#9aa0a6" stroke-width="2.00" />
<line x1="1355.24" y1="1355.72" x2="1355.16" y2="1355.79" stroke="#9aa0a6" stroke-width="2.00" />
<line x1="1355.24" y1="1355.72" x2="1355.34" y2="1355.62" stroke="#9aa0a6" stroke-width="2.00" />
<line x1="1354.78" y1="1354.67" x2="1354.89" y2="1354.68" stroke="#9aa0a6" stroke-width="2.00" />
<line x1="1355.10" y1="1355.35" x2="1355.15" y2="1355.16" stroke="#9aa0a6" stroke-width="2.00" />
<line x1="1355.10" y1="1355.35" x2="1355.07" y2="1355.47" stroke="#9aa0a6" stroke-width="2.00" />
<line x1="1355.16" y1="1355.79" x2="1355.04" y2="1355.87" stroke="#9aa0a6" stroke-width="2.00" />
<line x1="1355.10" y1="1354.84" x2="1355.06" y2="1354.90" stroke="#9aa0a6" stroke-width="2.00" />
<line x1="1355.10" y1="1354.84" x2="1355.22" y2="1354.87" stroke="#9aa0a6" stroke-width="2.00" />
<line x1="1356.56" y1="1353.55" x2="1356.54" y2="1353.38" stroke="#9aa0a6" stroke-width="2.00" />
<line x1="1356.56" y1="1353.55" x2="1355.86" y2="1353.51" stroke="#9aa0a6" stroke-width="2.00" />
<line x1="1356.54" y1="1353.38" x2="1356.85" y2="1353.24" stroke="#9aa0a6" stroke-width="2.00" />
<line x1="1356.54" y1="1353.38" x2="1356.72" y2="1353.16" stroke="#9aa0a6" stroke-width="2.00" />
<line x1="1355.28" y1="1354.35" x2="1355.28" y2="1354.43" stroke="#9aa0a6" stroke-width="2.00" />
<line x1="1354.94" y1="1354.38" x2="1354.91" y2="1354.59" stroke="#9aa0a6" stroke-width="2.00" />
<line x1="1355.56" y1="1355.45" x2="1355.40" y2="1355.43" stroke="#9aa0a6" stroke-width="2.00" />
<line x1="1356.60" y1="1354.50" x2="1357.10" y2="1354.57" stroke="#9aa0a6" stroke-width="2.00" />
<line x1="1355.45" y1="1353.83" x2="1355.36" y2="1353.97" stroke="#9aa0a6" stroke-width="2.00" />
<line x1="1355.45" y1="1353.83" x2="1355.86" y2="1353.51" stroke="#9aa0a6" stroke-width="2.00" />
<line x1="1355.14" y1="1354.42" x2="1355.06" y2="1354.29" stroke="#9aa0a6" stroke-width="2.00" />
<line x1="1358.10" y1="1358.08" x2="1357.61" y2="1358.00" stroke="#9aa0a6" stroke-width="2.00" />
<line x1="1358.10" y1="1358.08" x2="1358.36" y2="1358.53" stroke="#9aa0a6" stroke-width="2.00" />
<line x1="1355.28" y1="1354.43" x2="1355.46" y2="1354.38" stroke="#9aa0a6" stroke-width="2.00" />
<line x1="1352.33" y1="1355.55" x2="1352.67" y2="1355.52" stroke="#9aa0a6" stroke-width="2.00" />
<line x1="1356.18" y1="1356.14" x2="1356.42" y2="1356.46" stroke="#9aa0a6" stroke-width="2.00" />
<line x1="1355.40" y1="1356.24" x2="1355.26" y2="1356.47" stroke="#9aa0a6" stroke-width="2.00" />
<line x1="1355.25" y1="1356.55" x2="1355.49" y2="1356.51" stroke="#9aa0a6" stroke-width="2.00" />
<line x1="1356.96" y1="1357.34" x2="1357.15" y2="1357.54" stroke="#9aa0a6" stroke-width="2.00" />
<line x1="1356.39" y1="1356.72" x2="1356.59" y2="1356.77" stroke="#9aa0a6" stroke-width="2.00" />
<line x1="1356.39" y1="1356.72" x2="1356.12" y2="1356.64" stroke="#9aa0a6" stroke-width="2.00" />
<line x1="1354.79" y1="1356.83" x2="1354.84" y2="1356.75" stroke="#9aa0a6" stroke-width="2.00" />
<line x1="1356.02" y1="1357.41" x2="1356.25" y2="1357.73" stroke="#9aa0a6" stroke-width="2.00" />
<line x1="1356.80" y1="1356.87" x2="1356.63" y2="1356.62" stroke="#9aa0a6" stroke-width="2.00" />
<line x1="1357.61" y1="1358.00" x2="1357.35" y2="1357.84" stroke="#9aa0a6" stroke-width="2.00" />
<line x1="1357.35" y1="1357.84" x2="1357.15" y2="1357.54" stroke="#9aa0a6" stroke-width="2.00" />
<line x1="1355.03" y1="1355.57" x2="1355.07" y2="1355.47" stroke="#9aa0a6" stroke-width="2.00" />
<line x1="1358.54" y1="1354.88" x2="1358.16" y2="1354.84" stroke="#9aa0a6" stroke-width="2.00" />
<line x1="1354.35" y1="1354.67" x2="1354.11" y2="1354.78" stroke="#9aa0a6" stroke-width="2.00" />
<line x1="1355.19" y1="1354.98" x2="1355.06" y2="1354.90" stroke="#9aa0a6" stroke-width="2.00" />
<line x1="1355.19" y1="1354.98" x2="1355.40" y2="1355.03" stroke="#9aa0a6" stroke-width="2.00" />
<line x1="1355.19" y1="1354.98" x2="1355.22" y2="1354.87" stroke="#9aa0a6" stroke-width="2.00" />
<line x1="1355.19" y1="1354.98" x2="1355.43" y2="1354.95" stroke="#9aa0a6" stroke-width="2.00" />
<line x1="1355.24" y1="1355.36" x2="1355.29" y2="1355.48" stroke="#9aa0a6" stroke-width="2.00" />
<line x1="1355.24" y1="1355.36" x2="1355.40" y2="1355.43" stroke="#9aa0a6" stroke-width="2.00" />
<line x1="1354.18" y1="1355.62" x2="1353.82" y2="1355.78" stroke="#9aa0a6" stroke-width="2.00" />
<line x1="1354.54" y1="1354.90" x2="1354.45" y2="1354.78" stroke="#9aa0a6" stroke-width="2.00" />
<line x1="1354.54" y1="1354.90" x2="1354.72" y2="1355.02" stroke="#9aa0a6" stroke-width="2.00" />
<line x1="1355.60" y1="1353.29" x2="1355.70" y2="1353.10" stroke="#9aa0a6" stroke-width="2.00" />
<line x1="1355.60" y1="1353.29" x2="1355.53" y2="1353.40" stroke="#9aa0a6" stroke-width="2.00" />
<line x1="1356.63" y1="1356.62" x2="1356.42" y2="1356.46" stroke="#9aa0a6" stroke-width="2.00" />
<line x1="1354.66" y1="1355.99" x2="1354.68" y2="1356.10" stroke="#9aa0a6" stroke-width="2.00" />
<line x1="1356.71" y1="1357.44" x2="1356.44" y2="1357.23" stroke="#9aa0a6" stroke-width="2.00" />
<line x1="1356.71" y1="1357.44" x2="1356.82" y2="1357.24" stroke="#9aa0a6" stroke-width="2.00" />
<line x1="1356.72" y1="1352.99" x2="1356.72" y2="1353.16" stroke="#9aa0a6" stroke-width="2.00" />
<line x1="1357.77" y1="1353.00" x2="1357.51" y2="1353.11" stroke="#9aa0a6" stroke-width="2.00" />
<line x1="1355.29" y1="1355.48" x2="1355.34" y2="1355.62" stroke="#9aa0a6" stroke-width="2.00" />
<line x1="1356.61" y1="1357.97" x2="1356.66" y2="1357.88" stroke="#9aa0a6" stroke-width="2.00" />
<line x1="1356.33" y1="1357.85" x2="1356.25" y2="1357.73" stroke="#9aa0a6" stroke-width="2.00" />
<line x1="1356.33" y1="1357.85" x2="1356.57" y2="1358.14" stroke="#9aa0a6" stroke-width="2.00" />
<line x1="1356.93" y1="1354.28" x2="1357.09" y2="1354.12" stroke="#9aa0a6" stroke-width="2.00" />
<line x1="1354.91" y1="1355.83" x2="1355.11" y2="1355.87" stroke="#9aa0a6" stroke-width="2.00" />
<line x1="1354.91" y1="1355.83" x2="1355.04" y2="1355.87" stroke="#9aa0a6" stroke-width="2.00" />
<line x1="1354.62" y1="1355.14" x2="1354.66" y2="1355.33" stroke="#9aa0a6" stroke-width="2.00" />
<line x1="1354.62" y1="1355.14" x2="1354.72" y2="1355.02" stroke="#9aa0a6" stroke-width="2.00" />
<line x1="1356.85" y1="1353.24" x2="1357.13" y2="1353.18" stroke="#9aa0a6" stroke-width="2.00" />
<line x1="1356.44" y1="1357.23" x2="1356.25" y2="1357.06" stroke="#9aa0a6" stroke-width="2.00" />
<line x1="1357.13" y1="1353.18" x2="1357.51" y2="1353.11" stroke="#9aa0a6" stroke-width="2.00" />
<line x1="1353.42" y1="1355.68" x2="1353.14" y2="1355.61" stroke="#9aa0a6" stroke-width="2.00" />
<line x1="1354.91" y1="1354.59" x2="1354.89" y2="1354.68" stroke="#9aa0a6" stroke-width="2.00" />
<line x1="1354.79" y1="1354.91" x2="1354.72" y2="1355.02" stroke="#9aa0a6" stroke-width="2.00" />
<line x1="1354.79" y1="1354.91" x2="1354.84" y2="1354.81" stroke="#9aa0a6" stroke-width="2.00" />
<line x1="1355.69" y1="1355.33" x2="1355.90" y2="1355.34" stroke="#9aa0a6" stroke-width="2.00" />
<line x1="1354.68" y1="1356.10" x2="1354.69" y2="1356.19" stroke="#9aa0a6" stroke-width="2.00" />
<line x1="1355.36" y1="1353.97" x2="1355.30" y2="1354.12" stroke="#9aa0a6" stroke-width="2.00" />
<line x1="1354.11" y1="1354.78" x2="1354.45" y2="1354.78" stroke="#9aa0a6" stroke-width="2.00" />
<line x1="1355.92" y1="1356.41" x2="1356.12" y2="1356.64" stroke="#9aa0a6" stroke-width="2.00" />
<line x1="1355.86" y1="1353.51" x2="1355.53" y2="1353.40" stroke="#9aa0a6" stroke-width="2.00" />
<line x1="1356.25" y1="1357.06" x2="1356.09" y2="1356.84" stroke="#9aa0a6" stroke-width="2.00" />
<line x1="1353.18" y1="1355.18" x2="1352.98" y2="1355.27" stroke="#9aa0a6" stroke-width="2.00" />
<line x1="1358.11" y1="1355.38" x2="1357.79" y2="1355.45" stroke="#9aa0a6" stroke-width="2.00" />
<line x1="1357.10" y1="1354.57" x2="1357.27" y2="1354.65" stroke="#9aa0a6" stroke-width="2.00" />
<line x1="1356.29" y1="1350.79" x2="1356.28" y2="1350.97" stroke="#9aa0a6" stroke-width="2.00" />
<line x1="1354.89" y1="1354.68" x2="1354.84" y2="1354.81" stroke="#9aa0a6" stroke-width="2.00" />
<line x1="1357.58" y1="1355.48" x2="1357.79" y2="1355.45" stroke="#9aa0a6" stroke-width="2.00" />
<line x1="1352.86" y1="1355.65" x2="1353.14" y2="1355.61" stroke="#9aa0a6" stroke-width="2.00" />
</g>
<g>
<circle cx="1354.88" cy="1356.46" r="3.20" fill="#b91c1c" />
<circle cx="1355.21" cy="1354.35" r="2.20" fill="#1f2937" />
<circle cx="1355.19" cy="1354.24" r="2.20" fill="#1f2937" />
<circle cx="1355.84" cy="1356.67" r="2.20" fill="#1f2937" />
<circle cx="1359.23" cy="1359.97" r="2.20" fill="#1f2937" />
<circle cx="1355.64" cy="1354.60" r="2.20" fill="#1f2937" />
<circle cx="1356.47" cy="1354.91" r="2.20" fill="#1f2937" />
<circle cx="1357.75" cy="1354.90" r="2.20" fill="#1f2937" />
<circle cx="1356.29" cy="1354.60" r="2.20" fill="#1f2937" />
<circle cx="1355.38" cy="1355.15" r="3.20" fill="#b91c1c" />
<circle cx="1353.36" cy="1355.09" r="2.20" fill="#1f2937" />
<circle cx="1355.14" cy="1354.42" r="3.20" fill="#b91c1c" />
<circle cx="1355.32" cy="1354.51" r="2.20" fill="#1f2937" />
<circle cx="1355.80" cy="1352.60" r="2.20" fill="#1f2937" />
<circle cx="1356.95" cy="1352.53" r="2.20" fill="#1f2937" />
<circle cx="1354.57" cy="1355.75" r="3.20" fill="#b91c1c" />
<circle cx="1355.11" cy="1355.48" r="2.20" fill="#1f2937" />
<circle cx="1355.83" cy="1352.12" r="2.20" fill="#1f2937" />
<circle cx="1356.08" cy="1355.23" r="2.20" fill="#1f2937" />
<circle cx="1354.76" cy="1354.15" r="2.20" fill="#1f2937" />
<circle cx="1355.39" cy="1354.11" r="2.20" fill="#1f2937" />
<circle cx="1355.10" cy="1354.57" r="2.20" fill="#1f2937" />
<circle cx="1357.00" cy="1353.92" r="2.20" fill="#1f2937" />
<circle cx="1355.16" cy="1355.07" r="3.20" fill="#b91c1c" />
<circle cx="1354.84" cy="1354.47" r="2.20" fill="#1f2937" />
<circle cx="1354.70" cy="1356.94" r="2.20" fill="#1f2937" />
<circle cx="1357.51" cy="1354.80" r="2.20" fill="#1f2937" />
<circle cx="1355.50" cy="1353.74" r="2.20" fill="#1f2937" />
<circle cx="1356.75" cy="1355.75" r="2.20" fill="#1f2937" />
<circle cx="1353.87" cy="1354.68" r="2.20" fill="#1f2937" />
<circle cx="1355.43" cy="1353.59" r="2.20" fill="#1f2937" />
<circle cx="1358.01" cy="1352.97" r="2.20" fill="#1f2937" />
<circle cx="1357.41" cy="1356.29" r="2.20" fill="#1f2937" />
<circle cx="1356.03" cy="1354.74" r="2.20" fill="#1f2937" />
<circle cx="1355.80" cy="1354.99" r="3.20" fill="#b91c1c" />
<circle cx="1354.76" cy="1354.01" r="2.20" fill="#1f2937" />
<circle cx="1354.94" cy="1353.70" r="2.20" fill="#1f2937" />
<circle cx="1355.16" cy="1353.38" r="2.20" fill="#1f2937" />
<circle cx="1355.06" cy="1354.45" r="2.20" fill="#1f2937" />
<circle cx="1357.53" cy="1356.62" r="2.20" fill="#1f2937" />
<circle cx="1359.05" cy="1359.46" r="2.20" fill="#1f2937" />
<circle cx="1355.92" cy="1355.11" r="2.20" fill="#1f2937" />
<circle cx="1355.26" cy="1354.66" r="2.20" fill="#1f2937" />
<circle cx="1355.00" cy="1354.79" r="2.20" fill="#1f2937" />
<circle cx="1360.00" cy="1360.00" r="2.20" fill="#1f2937" />
<circle cx="1357.78" cy="1352.68" r="2.20" fill="#1f2937" />
<circle cx="1354.67" cy="1356.33" r="2.20" fill="#1f2937" />
<circle cx="1358.71" cy="1359.01" r="2.20" fill="#1f2937" />
<circle cx="1353.84" cy="1354.95" r="2.20" fill="#1f2937" />
<circle cx="1353.92" cy="1354.86" r="2.20" fill="#1f2937" />
<circle cx="1353.61" cy="1355.05" r="2.20" fill="#1f2937" />
<circle cx="1358.64" cy="1355.06" r="2.20" fill="#1f2937" />
<circle cx="1357.22" cy="1356.14" r="2.20" fill="#1f2937" />
<circle cx="1352.74" cy="1355.38" r="2.20" fill="#1f2937" />
<circle cx="1355.14" cy="1354.80" r="2.20" fill="#1f2937" />
<circle cx="1358.54" cy="1358.18" r="2.20" fill="#1f2937" />
<circle cx="1355.93" cy="1351.70" r="2.20" fill="#1f2937" />
<circle cx="1355.86" cy="1351.90" r="2.20" fill="#1f2937" />
<circle cx="1358.48" cy="1352.58" r="2.20" fill="#1f2937" />
<circle cx="1356.12" cy="1356.02" r="2.20" fill="#1f2937" />
<circle cx="1355.18" cy="1356.69" r="2.20" fill="#1f2937" />
<circle cx="1355.07" cy="1356.55" r="2.20" fill="#1f2937" />
<circle cx="1354.59" cy="1355.55" r="3.20" fill="#b91c1c" />
<circle cx="1355.24" cy="1356.11" r="2.20" fill="#1f2937" />
<circle cx="1357.01" cy="1355.23" r="2.20" fill="#1f2937" />
<circle cx="1355.80" cy="1352.92" r="2.20" fill="#1f2937" />
<circle cx="1353.76" cy="1355.73" r="2.20" fill="#1f2937" />
<circle cx="1356.75" cy="1357.71" r="2.20" fill="#1f2937" />
<circle cx="1357.69" cy="1356.41" r="2.20" fill="#1f2937" />
<circle cx="1355.32" cy="1355.29" r="2.20" fill="#1f2937" />
<circle cx="1354.65" cy="1354.52" r="2.20" fill="#1f2937" />
<circle cx="1356.06" cy="1351.36" r="2.20" fill="#1f2937" />
<circle cx="1354.99" cy="1354.78" r="3.20" fill="#b91c1c" />
<circle cx="1359.70" cy="1352.26" r="2.20" fill="#1f2937" />
<circle cx="1355.53" cy="1354.91" r="3.20" fill="#b91c1c" />
<circle cx="1355.53" cy="1354.91" r="2.20" fill="#1f2937" />
<circle cx="1357.23" cy="1352.50" r="2.20" fill="#1f2937" />
<circle cx="1355.33" cy="1354.60" r="2.20" fill="#1f2937" />
<circle cx="1357.36" cy="1355.54" r="2.20" fill="#1f2937" />
<circle cx="1356.00" cy="1355.40" r="3.20" fill="#b91c1c" />
<circle cx="1356.44" cy="1354.61" r="3.20" fill="#b91c1c" />
<circle cx="1354.32" cy="1355.55" r="2.20" fill="#1f2937" />
<circle cx="1356.75" cy="1352.77" r="2.20" fill="#1f2937" />
<circle cx="1354.67" cy="1355.43" r="2.20" fill="#1f2937" />
<circle cx="1356.63" cy="1355.54" r="2.20" fill="#1f2937" />
<circle cx="1354.86" cy="1355.90" r="2.20" fill="#1f2937" />
<circle cx="1355.33" cy="1354.91" r="2.20" fill="#1f2937" />
<circle cx="1357.67" cy="1352.49" r="2.20" fill="#1f2937" />
<circle cx="1355.41" cy="1355.01" r="2.20" fill="#1f2937" />
<circle cx="1354.98" cy="1355.00" r="3.20" fill="#b91c1c" />
<circle cx="1355.88" cy="1357.17" r="2.20" fill="#1f2937" />
<circle cx="1354.60" cy="1356.41" r="2.20" fill="#1f2937" />
<circle cx="1357.42" cy="1352.47" r="2.20" fill="#1f2937" />
<circle cx="1354.62" cy="1355.87" r="2.20" fill="#1f2937" />
<circle cx="1356.25" cy="1355.38" r="2.20" fill="#1f2937" />
<circle cx="1355.57" cy="1356.60" r="2.20" fill="#1f2937" />
<circle cx="1355.73" cy="1356.23" r="2.20" fill="#1f2937" />
<circle cx="1356.82" cy="1357.07" r="2.20" fill="#1f2937" />
<circle cx="1357.14" cy="1357.05" r="2.20" fill="#1f2937" />
<circle cx="1353.97" cy="1357.99" r="2.20" fill="#1f2937" />
<circle cx="40.57" cy="40.00" r="2.20" fill="#1f2937" />
<circle cx="40.71" cy="1310.76" r="2.20" fill="#1f2937" />
<circle cx="40.00" cy="1300.08" r="2.20" fill="#1f2937" />
<circle cx="1356.91" cy="1355.89" r="2.20" fill="#1f2937" />
<circle cx="1358.62" cy="1355.54" r="2.20" fill="#1f2937" />
<circle cx="1354.83" cy="1355.53" r="2.20" fill="#1f2937" />
<circle cx="1355.97" cy="1354.59" r="2.20" fill="#1f2937" />
<circle cx="1356.77" cy="1355.03" r="2.20" fill="#1f2937" />
<circle cx="1356.17" cy="1358.28" r="2.20" fill="#1f2937" />
<circle cx="1355.25" cy="1354.75" r="3.20" fill="#b91c1c" />
<circle cx="1354.99" cy="1355.67" r="2.20" fill="#1f2937" />
<circle cx="1356.15" cy="1354.67" r="2.20" fill="#1f2937" />
<circle cx="1356.17" cy="1351.13" r="2.20" fill="#1f2937" />
<circle cx="1354.08" cy="1357.38" r="2.20" fill="#1f2937" />
<circle cx="1354.13" cy="1357.28" r="2.20" fill="#1f2937" />
<circle cx="1354.14" cy="1357.59" r="2.20" fill="#1f2937" />
<circle cx="1354.88" cy="1355.10" r="2.20" fill="#1f2937" />
<circle cx="1356.37" cy="1358.19" r="2.20" fill="#1f2937" />
<circle cx="1354.52" cy="1354.60" r="2.20" fill="#1f2937" />
<circle cx="1355.58" cy="1355.87" r="2.20" fill="#1f2937" />
<circle cx="1354.77" cy="1355.72" r="2.20" fill="#1f2937" />
<circle cx="1356.08" cy="1354.96" r="2.20" fill="#1f2937" />
<circle cx="1356.88" cy="1356.85" r="2.20" fill="#1f2937" />
<circle cx="1354.23" cy="1356.51" r="2.20" fill="#1f2937" />
<circle cx="1356.00" cy="1355.66" r="2.20" fill="#1f2937" />
<circle cx="1355.70" cy="1355.54" r="2.20" fill="#1f2937" />
<circle cx="1355.63" cy="1354.79" r="3.20" fill="#b91c1c" />
<circle cx="1356.95" cy="1356.45" r="2.20" fill="#1f2937" />
<circle cx="1354.85" cy="1355.19" r="2.20" fill="#1f2937" />
<circle cx="1355.24" cy="1355.72" r="2.20" fill="#1f2937" />
<circle cx="1354.78" cy="1354.67" r="2.20" fill="#1f2937" />
<circle cx="1355.10" cy="1355.35" r="2.20" fill="#1f2937" />
<circle cx="1355.16" cy="1355.79" r="2.20" fill="#1f2937" />
<circle cx="1355.10" cy="1354.84" r="3.20" fill="#b91c1c" />
<circle cx="1356.56" cy="1353.55" r="2.20" fill="#1f2937" />
<circle cx="1356.54" cy="1353.38" r="2.20" fill="#1f2937" />
<circle cx="1355.28" cy="1354.35" r="3.20" fill="#b91c1c" />
<circle cx="1354.94" cy="1354.38" r="3.20" fill="#b91c1c" />
<circle cx="1358.38" cy="1352.88" r="2.20" fill="#1f2937" />
<circle cx="1355.56" cy="1355.45" r="2.20" fill="#1f2937" />
<circle cx="1356.60" cy="1354.50" r="2.20" fill="#1f2937" />
<circle cx="1355.12" cy="1354.48" r="2.20" fill="#1f2937" />
<circle cx="1355.15" cy="1355.16" r="2.20" fill="#1f2937" />
<circle cx="1355.39" cy="1355.21" r="2.20" fill="#1f2937" />
<circle cx="1355.45" cy="1353.83" r="3.20" fill="#b91c1c" />
<circle cx="1357.55" cy="1355.72" r="2.20" fill="#1f2937" />
<circle cx="1355.14" cy="1354.42" r="2.20" fill="#1f2937" />
<circle cx="1358.10" cy="1358.08" r="2.20" fill="#1f2937" />
<circle cx="1355.28" cy="1354.43" r="3.20" fill="#b91c1c" />
<circle cx="1352.33" cy="1355.55" r="2.20" fill="#1f2937" />
<circle cx="1355.68" cy="1354.95" r="2.20" fill="#1f2937" />
<circle cx="1356.18" cy="1356.14" r="2.20" fill="#1f2937" />
<circle cx="1356.70" cy="1352.51" r="2.20" fill="#1f2937" />
<circle cx="1355.40" cy="1356.24" r="2.20" fill="#1f2937" />
<circle cx="1355.25" cy="1356.55" r="2.20" fill="#1f2937" />
<circle cx="1354.82" cy="1353.43" r="2.20" fill="#1f2937" />
<circle cx="1356.96" cy="1357.34" r="2.20" fill="#1f2937" />
<circle cx="1356.39" cy="1356.72" r="2.20" fill="#1f2937" />
<circle cx="1354.79" cy="1356.83" r="2.20" fill="#1f2937" />
<circle cx="1356.02" cy="1357.41" r="2.20" fill="#1f2937" />
<circle cx="1356.80" cy="1356.87" r="2.20" fill="#1f2937" />
<circle cx="1357.61" cy="1358.00" r="2.20" fill="#1f2937" />
<circle cx="1357.35" cy="1357.84" r="2.20" fill="#1f2937" />
<circle cx="1355.03" cy="1355.57" r="3.20" fill="#b91c1c" />
<circle cx="1358.54" cy="1354.88" r="2.20" fill="#1f2937" />
<circle cx="1355.46" cy="1354.38" r="2.20" fill="#1f2937" />
<circle cx="1354.34" cy="1357.23" r="2.20" fill="#1f2937" />
<circle cx="1354.35" cy="1354.67" r="2.20" fill="#1f2937" />
<circle cx="1355.19" cy="1354.98" r="3.20" fill="#b91c1c" />
<circle cx="1355.24" cy="1355.36" r="3.20" fill="#b91c1c" />
<circle cx="1355.49" cy="1356.51" r="2.20" fill="#1f2937" />
<circle cx="1354.18" cy="1355.62" r="2.20" fill="#1f2937" />
<circle cx="1355.73" cy="1356.92" r="2.20" fill="#1f2937" />
<circle cx="1355.06" cy="1354.90" r="3.20" fill="#b91c1c" />
<circle cx="1354.54" cy="1354.90" r="2.20" fill="#1f2937" />
<circle cx="1357.15" cy="1357.54" r="2.20" fill="#1f2937" />
<circle cx="1355.60" cy="1353.29" r="2.20" fill="#1f2937" />
<circle cx="1356.63" cy="1356.62" r="2.20" fill="#1f2937" />
<circle cx="1353.82" cy="1355.78" r="2.20" fill="#1f2937" />
<circle cx="1355.67" cy="1355.66" r="2.20" fill="#1f2937" />
<circle cx="1357.19" cy="1356.53" r="2.20" fill="#1f2937" />
<circle cx="1355.07" cy="1355.47" r="2.20" fill="#1f2937" />
<circle cx="1354.66" cy="1355.99" r="2.20" fill="#1f2937" />
<circle cx="1356.71" cy="1357.44" r="2.20" fill="#1f2937" />
<circle cx="1356.72" cy="1352.99" r="2.20" fill="#1f2937" />
<circle cx="1355.40" cy="1355.03" r="2.20" fill="#1f2937" />
<circle cx="1353.87" cy="1356.69" r="2.20" fill="#1f2937" />
<circle cx="1358.36" cy="1358.53" r="2.20" fill="#1f2937" />
<circle cx="1357.77" cy="1353.00" r="2.20" fill="#1f2937" />
<circle cx="1355.29" cy="1355.48" r="2.20" fill="#1f2937" />
<circle cx="1356.61" cy="1357.97" r="2.20" fill="#1f2937" />
<circle cx="1356.33" cy="1357.85" r="2.20" fill="#1f2937" />
<circle cx="1356.66" cy="1357.88" r="2.20" fill="#1f2937" />
<circle cx="1355.39" cy="1354.80" r="2.20" fill="#1f2937" />
<circle cx="1356.93" cy="1354.28" r="2.20" fill="#1f2937" />
<circle cx="1354.91" cy="1355.83" r="2.20" fill="#1f2937" />
<circle cx="1354.62" cy="1355.14" r="2.20" fill="#1f2937" />
<circle cx="1356.85" cy="1353.24" r="2.20" fill="#1f2937" />
<circle cx="1354.84" cy="1356.75" r="2.20" fill="#1f2937" />
<circle cx="1356.44" cy="1357.23" r="2.20" fill="#1f2937" />
<circle cx="1354.66" cy="1355.33" r="2.20" fill="#1f2937" />
<circle cx="1356.59" cy="1356.77" r="2.20" fill="#1f2937" />
<circle cx="1356.25" cy="1357.73" r="2.20" fill="#1f2937" />
<circle cx="1352.67" cy="1355.52" r="2.20" fill="#1f2937" />
<circle cx="1357.13" cy="1353.18" r="2.20" fill="#1f2937" />
<circle cx="1353.42" cy="1355.68" r="2.20" fill="#1f2937" />
<circle cx="1358.16" cy="1354.84" r="2.20" fill="#1f2937" />
<circle cx="1354.91" cy="1354.59" r="2.20" fill="#1f2937" />
<circle cx="1354.79" cy="1354.91" r="2.20" fill="#1f2937" />
<circle cx="1355.69" cy="1355.33" r="2.20" fill="#1f2937" />
<circle cx="1355.18" cy="1354.51" r="2.20" fill="#1f2937" />
<circle cx="1354.68" cy="1356.10" r="2.20" fill="#1f2937" />
<circle cx="1357.83" cy="1356.70" r="2.20" fill="#1f2937" />
<circle cx="1355.36" cy="1353.97" r="2.20" fill="#1f2937" />
<circle cx="1354.11" cy="1354.78" r="2.20" fill="#1f2937" />
<circle cx="1355.92" cy="1356.41" r="2.20" fill="#1f2937" />
<circle cx="1355.86" cy="1353.51" r="2.20" fill="#1f2937" />
<circle cx="1356.25" cy="1357.06" r="2.20" fill="#1f2937" />
<circle cx="1356.09" cy="1356.84" r="2.20" fill="#1f2937" />
<circle cx="1355.90" cy="1355.34" r="2.20" fill="#1f2937" />
<circle cx="1355.09" cy="1354.69" r="2.20" fill="#1f2937" />
<circle cx="1359.15" cy="1352.37" r="2.20" fill="#1f2937" />
<circle cx="1353.18" cy="1355.18" r="2.20" fill="#1f2937" />
<circle cx="1352.98" cy="1355.27" r="2.20" fill="#1f2937" />
<circle cx="1355.22" cy="1354.87" r="2.20" fill="#1f2937" />
<circle cx="1357.09" cy="1354.12" r="2.20" fill="#1f2937" />
<circle cx="1358.11" cy="1355.38" r="2.20" fill="#1f2937" />
<circle cx="1355.06" cy="1354.29" r="2.20" fill="#1f2937" />
<circle cx="1356.25" cy="1354.95" r="2.20" fill="#1f2937" />
<circle cx="1354.69" cy="1356.19" r="3.20" fill="#b91c1c" />
<circle cx="1357.10" cy="1354.57" r="2.20" fill="#1f2937" />
<circle cx="1356.29" cy="1350.79" r="2.20" fill="#1f2937" />
<circle cx="1356.28" cy="1350.97" r="2.20" fill="#1f2937" />
<circle cx="1355.78" cy="1352.39" r="2.20" fill="#1f2937" />
<circle cx="1355.70" cy="1353.10" r="2.20" fill="#1f2937" />
<circle cx="1355.97" cy="1358.58" r="2.20" fill="#1f2937" />
<circle cx="1354.45" cy="1354.78" r="2.20" fill="#1f2937" />
<circle cx="1354.72" cy="1355.02" r="2.20" fill="#1f2937" />
<circle cx="1356.91" cy="1353.68" r="2.20" fill="#1f2937" />
<circle cx="1356.72" cy="1353.16" r="2.20" fill="#1f2937" />
<circle cx="1355.43" cy="1354.95" r="2.20" fill="#1f2937" />
<circle cx="1355.40" cy="1355.43" r="2.20" fill="#1f2937" />
<circle cx="1354.89" cy="1354.68" r="3.20" fill="#b91c1c" />
<circle cx="1358.79" cy="1357.93" r="2.20" fill="#1f2937" />
<circle cx="1356.12" cy="1356.64" r="2.20" fill="#1f2937" />
<circle cx="1356.42" cy="1356.46" r="2.20" fill="#1f2937" />
<circle cx="1355.26" cy="1356.47" r="2.20" fill="#1f2937" />
<circle cx="1354.47" cy="1355.56" r="2.20" fill="#1f2937" />
<circle cx="1357.58" cy="1355.48" r="2.20" fill="#1f2937" />
<circle cx="1355.53" cy="1353.40" r="2.20" fill="#1f2937" />
<circle cx="1356.00" cy="1355.51" r="2.20" fill="#1f2937" />
<circle cx="1356.82" cy="1357.24" r="2.20" fill="#1f2937" />
<circle cx="1354.58" cy="1355.68" r="2.20" fill="#1f2937" />
<circle cx="1356.57" cy="1358.14" r="2.20" fill="#1f2937" />
<circle cx="1355.34" cy="1355.62" r="2.20" fill="#1f2937" />
<circle cx="1354.84" cy="1354.81" r="2.20" fill="#1f2937" />
<circle cx="1355.11" cy="1355.87" r="2.20" fill="#1f2937" />
<circle cx="1355.30" cy="1354.12" r="2.20" fill="#1f2937" />
<circle cx="1356.05" cy="1355.84" r="2.20" fill="#1f2937" />
<circle cx="1355.63" cy="1356.08" r="2.20" fill="#1f2937" />
<circle cx="1352.86" cy="1355.65" r="2.20" fill="#1f2937" />
<circle cx="1353.14" cy="1355.61" r="2.20" fill="#1f2937" />
<circle cx="1357.27" cy="1354.65" r="2.20" fill="#1f2937" />
<circle cx="1355.04" cy="1355.87" r="2.20" fill="#1f2937" />
<circle cx="1357.51" cy="1353.11" r="2.20" fill="#1f2937" />
<circle cx="1357.79" cy="1355.45" r="2.20" fill="#1f2937" />
<g font-family="Arial, sans-serif" font-size="10" fill="#111827">
<text x="1359.38" y="1351.15">10:BakerStreet</text>
<text x="1359.63" y="1350.79">127:King&apos;sCrossSt.Pancras</text>
<text x="1359.19" y="1350.98">169:OxfordCircus</text>
<text x="1358.59" y="1351.55">63:Earl&apos;sCourt</text>
<text x="1358.98" y="1351.00">90:GreenPark</text>
<text x="1358.89" y="1350.68">243:Waterloo</text>
<text x="1359.28" y="1350.35">137:LiverpoolStreet</text>
<text x="1359.14" y="1350.42">12:Bank</text>
<text x="1358.69" y="1352.19">230:TurnhamGreen</text>
<text x="1358.88" y="1352.46">1:ActonTown</text>
<text x="1359.10" y="1350.84">134:LeicesterSquare</text>
<text x="1358.94" y="1350.38">138:LondonBridge</text>
<text x="1358.57" y="1351.75">16:BaronsCourt</text>
<text x="1359.45" y="1349.83">145:MileEnd</text>
<text x="1359.28" y="1350.43">149:Moorgate</text>
<text x="1359.16" y="1351.07">24:BondStreet</text>
<text x="1359.80" y="1350.99">35:CamdenTown</text>
<text x="1359.03" y="1351.57">164:NottingHillGate</text>
<text x="1359.24" y="1351.36">170:Paddington</text>
<text x="1359.06" y="1350.90">174:PiccadillyCircus</text>
<text x="1358.99" y="1350.78">73:Embankment</text>
<text x="1359.53" y="1350.91">75:Euston</text>
<text x="1360.00" y="1351.40">80:FinchleyRoad</text>
<text x="1360.44" y="1350.61">81:FinsburyPark</text>
<text x="1359.25" y="1350.75">110:Holborn</text>
</g>
</g>
</svg>
